<svg width="132" height="102" viewBox="0 0 132 102" fill="none" xmlns="http://www.w3.org/2000/svg">
<g clip-path="url(#clip0_1017_1642)">
<path d="M55.36 75.7176C55.36 75.7176 21.5129 90.7116 12.6596 81.3004C12.6596 81.3004 12.6495 81.3019 12.648 81.2919C12.5765 81.2306 12.5151 81.1678 12.4623 81.0934C11.4453 79.9289 10.7286 78.7696 10.2416 77.6263C8.7059 73.9807 9.53326 70.4545 11.0039 67.6135C11.3523 66.9295 11.7389 66.2912 12.1317 65.6933C13.1474 64.1829 14.2403 62.9704 15.0465 62.1741C15.7341 61.4789 16.2016 61.0966 16.2016 61.0966C23.8576 69.8464 43.8306 68.766 48.6127 68.3659C49.2862 68.3132 49.6509 68.2671 49.6509 68.2671L55.36 75.7176Z" fill="#3E2D57"/>
<path d="M40.7556 72.7848C40.7556 72.7848 21.4458 78.0797 11.0139 67.6117C11.3623 66.9277 11.7489 66.2894 12.1417 65.6915C14.5934 69.6496 21.4909 75.1705 40.7556 72.7848Z" fill="#8883C6"/>
<path d="M41.2959 76.4709C40.5707 76.7898 23.5198 84.2652 12.6496 81.3016C12.6496 81.3016 12.6395 81.3031 12.6379 81.293C12.5665 81.2318 12.5051 81.169 12.4523 81.0946C11.4353 79.9301 10.7186 78.7707 10.2316 77.6274C13.8587 79.9058 22.4936 82.4412 41.2959 76.4709Z" fill="#8883C6"/>
<path d="M48.6026 68.3671L48.6135 68.4378C24.7025 70.5001 17.2821 65.8039 15.0465 62.1738C15.7341 61.4785 16.2016 61.0962 16.2016 61.0962C23.8475 69.8476 43.8205 68.7672 48.6026 68.3671Z" fill="#8883C6"/>
<path d="M55.36 75.7176C55.36 75.7176 21.5129 90.7116 12.6596 81.3004C12.6596 81.3004 12.6495 81.3019 12.648 81.2919C12.5765 81.2306 12.5151 81.1678 12.4623 81.0934C11.4453 79.9289 10.7286 78.7696 10.2416 77.6263C8.7059 73.9807 9.53326 70.4545 11.0039 67.6135C11.3523 66.9295 11.7389 66.2912 12.1317 65.6933C13.1474 64.1829 14.2403 62.9704 15.0465 62.1741C15.7341 61.4789 16.2016 61.0966 16.2016 61.0966C23.8576 69.8464 43.8306 68.766 48.6127 68.3659C49.2862 68.3132 49.6509 68.2671 49.6509 68.2671L55.36 75.7176Z" stroke="#16093E" stroke-width="1.47241" stroke-miterlimit="10" stroke-linecap="round" stroke-linejoin="round"/>
<path d="M79.8019 69.4826C77.8595 70.145 75.746 69.7701 74.1586 68.5907C73.6795 68.2312 73.2499 67.7917 72.8846 67.3008C72.4898 66.7526 72.0951 66.2044 71.7135 65.6748C69.5848 62.6685 67.7194 59.828 66.104 57.1347C65.493 56.1242 64.9271 55.1377 64.3945 54.1667C62.5759 50.8955 61.134 47.8551 60.0237 45.0216C59.5085 43.6967 59.0633 42.423 58.6965 41.1888C58.695 41.1787 58.695 41.1787 58.695 41.1787C57.1196 36.0106 56.7503 31.6266 57.2407 27.9254C57.5293 25.722 58.1325 23.7488 58.9648 21.9879C60.6124 18.4895 63.1852 15.829 66.1233 13.7935C67.2531 13.0194 68.4373 12.3299 69.6356 11.7311C72.9435 10.0825 76.4189 9.04824 79.3879 8.41266C80.547 8.16078 81.6417 7.96019 82.6015 7.82182C82.9243 7.77181 83.2269 7.72493 83.5209 7.6897C85.4738 7.42845 87.2105 8.90488 87.2553 10.8604C87.4593 18.1103 88.1232 35.3282 90.1372 50.261C91.8712 63.1198 84.7867 67.7911 79.8019 69.4826Z" fill="#CCD7F5"/>
<mask id="mask0_1017_1642" style="mask-type:luminance" maskUnits="userSpaceOnUse" x="57" y="7" width="34" height="63">
<path d="M79.8019 69.4826C77.8595 70.145 75.746 69.7701 74.1586 68.5907C73.6795 68.2312 73.2499 67.7917 72.8846 67.3008C72.4898 66.7526 72.0951 66.2044 71.7135 65.6748C69.5848 62.6685 67.7194 59.828 66.104 57.1347C65.493 56.1242 64.9271 55.1377 64.3945 54.1667C62.5759 50.8955 61.134 47.8551 60.0237 45.0216C59.5085 43.6967 59.0633 42.423 58.6965 41.1888C58.695 41.1787 58.695 41.1787 58.695 41.1787C57.1196 36.0106 56.7503 31.6266 57.2407 27.9254C57.5293 25.722 58.1325 23.7488 58.9648 21.9879C60.6124 18.4895 63.1852 15.829 66.1233 13.7935C67.2531 13.0194 68.4373 12.3299 69.6356 11.7311C72.9435 10.0825 76.4189 9.04824 79.3879 8.41266C80.547 8.16078 81.6417 7.96019 82.6015 7.82182C82.9243 7.77181 83.2269 7.72493 83.5209 7.6897C85.4738 7.42845 87.2105 8.90488 87.2553 10.8604C87.4593 18.1103 88.1232 35.3282 90.1372 50.261C91.8712 63.1198 84.7867 67.7911 79.8019 69.4826Z" fill="white"/>
</mask>
<g mask="url(#mask0_1017_1642)">
<path d="M92.7673 20.4381C92.7673 20.4381 87.3852 40.4312 50.145 49.2581L61.2477 76.7881L105.97 68.8573L92.7673 20.4381Z" fill="#BEC5EF"/>
</g>
<path d="M79.8019 69.4826C77.8595 70.145 75.746 69.7701 74.1586 68.5907C73.6795 68.2312 73.2499 67.7917 72.8846 67.3008C72.4898 66.7526 72.0951 66.2044 71.7135 65.6748C69.5848 62.6685 67.7194 59.828 66.104 57.1347C65.493 56.1242 64.9271 55.1377 64.3945 54.1667C62.5759 50.8955 61.134 47.8551 60.0237 45.0216C59.5085 43.6967 59.0633 42.423 58.6965 41.1888C58.695 41.1787 58.695 41.1787 58.695 41.1787C57.1196 36.0106 56.7503 31.6266 57.2407 27.9254C57.5293 25.722 58.1325 23.7488 58.9648 21.9879C60.6124 18.4895 63.1852 15.829 66.1233 13.7935C67.2531 13.0194 68.4373 12.3299 69.6356 11.7311C72.9435 10.0825 76.4189 9.04824 79.3879 8.41266C80.547 8.16078 81.6417 7.96019 82.6015 7.82182C82.9243 7.77181 83.2269 7.72493 83.5209 7.6897C85.4738 7.42845 87.2105 8.90488 87.2553 10.8604C87.4593 18.1103 88.1232 35.3282 90.1372 50.261C91.8712 63.1198 84.7867 67.7911 79.8019 69.4826Z" stroke="#16093E" stroke-width="1.47241" stroke-miterlimit="10" stroke-linecap="round" stroke-linejoin="round"/>
<path d="M120.035 59.5722C119.474 61.8899 118.514 64.1561 117.164 66.245C113.898 71.2955 109.099 75.2512 103.71 78.2034C99.0461 80.7645 93.9241 82.5702 88.9728 83.6782C80.3085 85.6196 71.3288 85.7921 62.4601 85.214C55.3755 84.7521 47.7691 82.5222 46.5221 74.4733C45.3454 66.8783 51.4702 62.3454 57.4637 59.1652C66.6146 54.2977 74.246 47.8892 82.8294 42.1594C83.418 41.7584 84.0298 41.3744 84.6417 40.9904C92.3214 36.2269 101.22 33.0615 109.948 37.2659C118.676 41.4703 122.122 50.9137 120.035 59.5722Z" fill="#C8D0F7"/>
<path d="M120.035 59.5722C119.475 61.8899 118.514 64.1561 117.164 66.2449C113.898 71.2955 109.099 75.2512 103.71 78.2034C100.562 78.3503 99.4124 77.6609 99.0065 76.9078C98.4265 75.8306 99.3448 74.6245 98.6518 73.8849C97.7615 72.9383 95.6942 74.3947 94.7147 73.4723C93.8067 72.6112 95.1194 70.9515 94.1984 69.6069C93.1438 68.0661 90.5786 69.0419 89.8306 67.6808C89.0943 66.3282 91.2274 64.6964 90.5073 63.2484C89.7444 61.7243 86.8911 62.5072 86.2432 61.0584C85.631 59.7072 87.8994 58.4159 87.4507 56.7192C86.8943 54.5951 82.9331 54.8267 82.526 52.8654C82.1984 51.2843 84.6138 50.342 84.2882 48.4404C83.9986 46.7707 81.9463 46.3244 82.14 45.2409C82.3514 44.072 84.8268 44.05 85.145 42.6373C85.2933 41.9946 84.9178 41.3711 84.6435 41.0005C92.3232 36.237 101.221 33.0716 109.95 37.276C118.676 41.4703 122.122 50.9137 120.035 59.5722Z" fill="#8883C6"/>
<path d="M112.954 54.2172C113.281 52.754 112.802 51.4012 111.883 51.1957C110.965 50.9901 109.955 52.0096 109.627 53.4728C109.3 54.936 109.779 56.2888 110.698 56.4944C111.616 56.7 112.626 55.6804 112.954 54.2172Z" fill="#16093E"/>
<path d="M114.345 51.1788C114.345 51.1788 112.319 50.9039 110.645 48.767C110.182 48.1777 110.148 47.3568 110.479 46.696L110.496 46.6727C110.496 46.6727 111.984 48.6112 113.357 49.4726C113.86 49.7871 114.207 50.2912 114.298 50.8762L114.345 51.1788Z" fill="#16093E"/>
<path d="M111.838 63.1279C112.34 60.8836 110.29 58.5144 107.259 57.8361C104.228 57.1579 101.364 58.4275 100.862 60.6718C100.36 62.9161 102.409 65.2853 105.44 65.9636C108.471 66.6418 111.336 65.3723 111.838 63.1279Z" fill="#88E3FF"/>
<path d="M103.226 35.0126C103.226 35.0126 101.826 27.8446 97.7058 28.6483C93.5853 29.4519 101.891 35.0645 101.891 35.0645C101.353 34.7244 100.798 34.4076 100.244 34.1009C99.6908 33.7942 97.3936 32.0328 97.0373 33.3997C96.8757 34.0237 97.2519 34.5852 97.7311 34.9447C98.1171 35.2361 98.5798 35.4226 99.0447 35.5571C99.3692 35.6515 99.6906 35.7256 100.031 35.7866C100.297 35.8383 101.023 36.0563 101.264 35.9467L103.226 35.0126Z" fill="#16093E"/>
<path d="M120.035 59.5722C119.474 61.8899 118.514 64.1561 117.164 66.245C113.898 71.2955 109.099 75.2512 103.71 78.2034C99.0461 80.7645 93.9241 82.5702 88.9728 83.6782C80.3085 85.6196 71.3288 85.7921 62.4601 85.2141C55.3755 84.7521 47.7691 82.5222 46.5221 74.4733C45.3454 66.8783 51.4702 62.3454 57.4637 59.1652C66.6146 54.2977 74.246 47.8892 82.8294 42.1594C83.418 41.7584 84.0298 41.3744 84.6417 40.9904C92.3214 36.2269 101.22 33.0615 109.948 37.2659C118.676 41.4703 122.122 50.9137 120.035 59.5722Z" stroke="#16093E" stroke-width="1.47241" stroke-miterlimit="10" stroke-linecap="round" stroke-linejoin="round"/>
<path d="M120.456 56.2227C120.456 56.2227 117.795 59.3823 117.709 62.959C117.705 63.2694 117.989 63.5042 118.286 63.417C119.771 63.001 123.855 62.1617 126.597 64.5978C127.041 64.9938 127.729 64.7013 127.74 64.1108C127.8 61.8293 126.951 57.6848 120.456 56.2227Z" fill="#FF8939"/>
<path d="M120.456 56.2227C120.456 56.2227 117.795 59.3823 117.709 62.959C117.705 63.2694 117.989 63.5042 118.286 63.417C119.771 63.001 123.855 62.1617 126.597 64.5978C127.041 64.9938 127.729 64.7013 127.74 64.1108C127.8 61.8293 126.951 57.6848 120.456 56.2227Z" stroke="#16093E" stroke-width="1.47241" stroke-miterlimit="10" stroke-linecap="round" stroke-linejoin="round"/>
<path d="M78.0325 69.3952C76.1734 70.2616 74.0369 70.1382 72.3317 69.132C71.82 68.8291 71.3362 68.4393 70.9151 67.9881C70.4544 67.4811 70.0069 66.9927 69.5695 66.5027C67.1191 63.7528 64.9575 61.1338 63.0412 58.6317C62.317 57.6904 61.6479 56.7715 61.0121 55.8682C58.8454 52.8161 57.0692 49.9515 55.6502 47.2587C54.99 45.9976 54.4098 44.7861 53.9049 43.594C53.9034 43.5839 53.9034 43.5839 53.9034 43.5839C51.7618 38.6275 50.9067 34.3084 50.9897 30.5773C51.037 28.3494 51.4159 26.3283 52.0394 24.4862C53.2911 20.8322 55.5515 17.8896 58.2464 15.551C59.2853 14.6567 60.3786 13.8469 61.5131 13.1031C64.6204 11.0931 67.9557 9.68807 70.843 8.72432C71.9716 8.34289 73.0274 8.02438 73.9716 7.78515C74.2881 7.6948 74.5775 7.62931 74.8653 7.55373C76.7753 7.08223 78.6654 8.34898 78.9352 10.2902C79.9338 17.4687 82.5025 34.5155 86.1598 49.1214C89.333 61.7365 82.8087 67.1576 78.0325 69.3952Z" fill="#DDE7FF"/>
<path d="M76.7007 28.866C76.3959 28.2316 70.6422 16.1608 70.8431 8.72421C71.9718 8.34277 73.0276 8.02427 73.9717 7.78503C73.1237 11.645 72.6317 18.8685 76.7007 28.866Z" fill="#9AA2C9"/>
<path d="M73.3695 33.4308C73.0551 33.3349 63.528 30.3078 58.2566 15.5492C59.2954 14.6549 60.3887 13.8452 61.5232 13.1013C62.9953 18.2027 66.8544 29.245 73.3695 33.4308Z" fill="#9AA2C9"/>
<path d="M72.0032 37.5466C69.9039 37.9958 66.8173 38.3397 63.2578 37.6311C57.4413 36.4873 53.38 33.14 50.9996 30.5756C51.0469 28.3476 51.4258 26.3265 52.0493 24.4844C54.1757 29.0093 59.9004 37.8931 72.0032 37.5466Z" fill="#9AA2C9"/>
<path d="M73.7461 43.1948C72.7702 44.2962 69.834 47.3435 64.9749 48.3133C61.2478 49.056 57.9948 48.2586 55.6603 47.2569C55.0001 45.9958 54.4199 44.7843 53.915 43.5922C54.3826 43.9432 54.8904 44.288 55.444 44.5947C63.5278 49.1055 72.9791 43.6441 73.7461 43.1948Z" fill="#9AA2C9"/>
<path d="M75.4125 50.2182C74.579 51.6384 73.0472 53.8174 70.4402 55.657C67.8418 57.4849 65.1662 58.2816 63.0496 58.6198C62.3254 57.6785 61.6563 56.7597 61.0206 55.8563C61.6306 55.9271 62.2863 55.9597 62.9762 55.9458C69.8103 55.8579 74.3459 51.3336 75.4125 50.2182Z" fill="#9AA2C9"/>
<path d="M78.0035 56.8091C78.0035 56.8091 77.5742 63.2379 72.3316 69.1317C71.8199 68.8289 71.336 68.4391 70.9149 67.9879C70.4542 67.4809 70.0067 66.9924 69.5693 66.5025C71.6903 65.926 74.8394 63.7856 78.0035 56.8091Z" fill="#9AA2C9"/>
<path d="M78.0325 69.3952C76.1734 70.2616 74.0369 70.1382 72.3317 69.132C71.82 68.8291 71.3362 68.4393 70.9151 67.9881C70.4544 67.4811 70.0069 66.9927 69.5695 66.5027C67.1191 63.7528 64.9575 61.1338 63.0412 58.6317C62.317 57.6904 61.6479 56.7715 61.0121 55.8682C58.8454 52.8161 57.0692 49.9515 55.6502 47.2587C54.99 45.9976 54.4098 44.7861 53.9049 43.594C53.9034 43.5839 53.9034 43.5839 53.9034 43.5839C51.7618 38.6275 50.9067 34.3084 50.9897 30.5773C51.037 28.3494 51.4159 26.3283 52.0394 24.4862C53.2911 20.8322 55.5515 17.8896 58.2464 15.551C59.2853 14.6567 60.3786 13.8469 61.5131 13.1031C64.6204 11.0931 67.9557 9.68807 70.843 8.72432C71.9716 8.34289 73.0274 8.02438 73.9716 7.78515C74.2881 7.6948 74.5775 7.62931 74.8653 7.55373C76.7753 7.08223 78.6654 8.34898 78.9352 10.2902C79.9338 17.4687 82.5025 34.5155 86.1598 49.1214C89.333 61.7365 82.8087 67.1576 78.0325 69.3952Z" stroke="#16093E" stroke-width="1.47241" stroke-miterlimit="10" stroke-linecap="round" stroke-linejoin="round"/>
<path d="M74.8307 14.3964C74.8307 14.3964 65.4605 23.1813 72.344 31.5447C72.344 31.5447 64.4097 39.9316 73.7231 44.1796C73.7231 44.1796 67.1224 51.4407 76.493 55.5249C76.493 55.5249 75.6691 64.473 84.6205 61.7848" stroke="#16093E" stroke-width="1.47241" stroke-miterlimit="10" stroke-linecap="round" stroke-linejoin="round"/>
<path d="M63.6279 24.9527C63.6279 24.9527 56.4189 30.0874 61.7153 36.9408C61.7153 36.9408 57.1734 41.2904 64.1999 44.7773C64.1999 44.7773 59.887 55.9392 68.4019 55.7665C68.4019 55.7665 66.9928 64.671 74.3486 64.0168C74.3486 64.0168 75.4038 69.7612 82.6914 65.5336" stroke="#16093E" stroke-width="1.47241" stroke-miterlimit="10" stroke-linecap="round" stroke-linejoin="round"/>
<path d="M79.4034 85.1092C79.4034 85.1092 93.3503 81.2649 96.5023 81.9436C96.5023 81.9436 98.2879 84.1355 97.4304 85.6007C96.5729 87.0659 91.358 89.072 91.358 89.072C91.358 89.072 88.9778 88.1084 90.4632 86.7628C91.9486 85.4172 94.3311 84.8621 94.3311 84.8621C94.3311 84.8621 78.1935 86.4328 79.4034 85.1092Z" fill="#FF8939"/>
<path d="M79.4034 85.1092C79.4034 85.1092 93.3503 81.2649 96.5023 81.9436C96.5023 81.9436 98.2879 84.1355 97.4304 85.6007C96.5729 87.0659 91.358 89.072 91.358 89.072C91.358 89.072 88.9778 88.1084 90.4632 86.7628C91.9486 85.4172 94.3311 84.8621 94.3311 84.8621C94.3311 84.8621 78.1935 86.4328 79.4034 85.1092Z" stroke="#16093E" stroke-width="1.47241" stroke-miterlimit="10" stroke-linecap="round" stroke-linejoin="round"/>
</g>
<defs>
<clipPath id="clip0_1017_1642">
<rect width="120.102" height="84.5725" fill="white" transform="translate(0 18.3882) rotate(-8.80691)"/>
</clipPath>
</defs>
</svg>
