<svg width="92" height="75" viewBox="0 0 92 75" fill="none" xmlns="http://www.w3.org/2000/svg">
<g clip-path="url(#clip0_1017_1603)">
<path d="M40.4378 54.3236C40.4378 54.3236 18.9787 66.4711 12.496 60.81C12.496 60.81 12.4894 60.8117 12.4877 60.8051C12.4363 60.7692 12.3915 60.7315 12.3516 60.6856C11.6015 59.9801 11.0508 59.2583 10.6534 58.5321C9.39755 56.2157 9.71598 53.8242 10.5055 51.845C10.6919 51.3688 10.9065 50.9205 11.1279 50.4985C11.7027 49.431 12.3481 48.5559 12.8305 47.9755C13.241 47.4698 13.526 47.1858 13.526 47.1858C19.1719 52.4867 32.3415 50.4675 35.4855 49.8904C35.9285 49.8115 36.1672 49.7571 36.1672 49.7571L40.4378 54.3236Z" fill="#146326"/>
<path d="M30.5653 53.3325C30.5653 53.3325 18.1103 58.1022 10.5121 51.8435C10.6985 51.3673 10.9131 50.919 11.1345 50.497C13.0179 52.9608 17.9504 56.1707 30.5653 53.3325Z" fill="#55C484"/>
<path d="M31.1639 55.7409C30.704 55.9997 19.8886 62.0674 12.4894 60.8119C12.4894 60.8119 12.4829 60.8136 12.4812 60.807C12.4298 60.7711 12.385 60.7335 12.3451 60.6876C11.595 59.982 11.0443 59.2602 10.6469 58.5341C13.1999 59.8078 19.0893 60.9252 31.1639 55.7409Z" fill="#55C484"/>
<path d="M35.4789 49.8923L35.4908 49.9384C19.7747 52.8653 14.5494 50.2362 12.8306 47.9757C13.241 47.4699 13.526 47.186 13.526 47.186C19.1653 52.4885 32.335 50.4694 35.4789 49.8923Z" fill="#55C484"/>
<path d="M40.4378 54.3236C40.4378 54.3236 18.9787 66.4711 12.496 60.81C12.496 60.81 12.4894 60.8117 12.4877 60.8051C12.4363 60.7692 12.3915 60.7315 12.3516 60.6856C11.6015 59.9801 11.0508 59.2583 10.6534 58.5321C9.39755 56.2157 9.71598 53.8242 10.5055 51.845C10.6919 51.3688 10.9065 50.9205 11.1279 50.4985C11.7027 49.431 12.3481 48.5559 12.8305 47.9755C13.241 47.4698 13.526 47.1858 13.526 47.1858C19.1719 52.4867 32.3415 50.4675 35.4855 49.8904C35.9285 49.8115 36.1672 49.7571 36.1672 49.7571L40.4378 54.3236Z" stroke="#16093E" stroke-width="0.980777" stroke-miterlimit="10" stroke-linecap="round" stroke-linejoin="round"/>
<path d="M56.2337 48.5962C54.9892 49.162 53.5638 49.0514 52.4346 48.3731C52.0935 48.166 51.78 47.9027 51.5059 47.6011C51.2084 47.2635 50.911 46.9258 50.6235 46.5996C49.0163 44.7456 47.5944 42.9844 46.3479 41.3043C45.8769 40.6743 45.4374 40.0573 45.021 39.4484C43.6021 37.3985 42.4479 35.4771 41.527 33.6712C41.0991 32.8265 40.7209 32.0112 40.3972 31.217C40.3955 31.2104 40.3955 31.2104 40.3955 31.2104C39.0141 27.8873 38.4833 25.0052 38.5669 22.5197C38.6145 21.0402 38.8857 19.6928 39.3226 18.4713C40.1865 16.0447 41.7184 14.1132 43.5333 12.5723C44.2318 11.9854 44.9718 11.4511 45.7271 10.976C47.8124 9.66729 50.0487 8.75501 51.9755 8.13999C52.7274 7.89741 53.44 7.69303 54.0672 7.5387C54.2779 7.48449 54.4754 7.43367 54.668 7.39114C55.9456 7.09056 57.1932 7.956 57.3504 9.24936C57.9586 14.042 59.5218 25.4125 61.831 35.18C63.8194 43.591 59.4277 47.1497 56.2337 48.5962Z" fill="#BDFFD1"/>
<mask id="mask0_1017_1603" style="mask-type:luminance" maskUnits="userSpaceOnUse" x="38" y="7" width="25" height="42">
<path d="M56.2337 48.5962C54.9892 49.162 53.5638 49.0514 52.4346 48.3731C52.0935 48.166 51.78 47.9027 51.5059 47.6011C51.2084 47.2635 50.911 46.9258 50.6235 46.5996C49.0163 44.7456 47.5944 42.9844 46.3479 41.3043C45.8769 40.6743 45.4374 40.0573 45.021 39.4484C43.6021 37.3985 42.4479 35.4771 41.527 33.6712C41.0991 32.8265 40.7209 32.0112 40.3972 31.217C40.3955 31.2104 40.3955 31.2104 40.3955 31.2104C39.0141 27.8873 38.4833 25.0052 38.5669 22.5197C38.6145 21.0402 38.8857 19.6928 39.3226 18.4713C40.1865 16.0447 41.7184 14.1132 43.5333 12.5723C44.2318 11.9854 44.9718 11.4511 45.7271 10.976C47.8124 9.66729 50.0487 8.75501 51.9755 8.13999C52.7274 7.89741 53.44 7.69303 54.0672 7.5387C54.2779 7.48449 54.4754 7.43367 54.668 7.39114C55.9456 7.09056 57.1932 7.956 57.3504 9.24936C57.9586 14.042 59.5218 25.4125 61.831 35.18C63.8194 43.591 59.4277 47.1497 56.2337 48.5962Z" fill="white"/>
</mask>
<g mask="url(#mask0_1017_1603)">
<path d="M61.6292 15.2388C61.6292 15.2388 59.3656 28.8433 35.255 37.124L44.4108 54.6493L73.54 46.4746L61.6292 15.2388Z" fill="#55C484"/>
</g>
<path d="M56.2337 48.5962C54.9892 49.162 53.5638 49.0514 52.4346 48.3731C52.0935 48.166 51.78 47.9027 51.5059 47.6011C51.2084 47.2635 50.911 46.9258 50.6235 46.5996C49.0163 44.7456 47.5944 42.9844 46.3479 41.3043C45.8769 40.6743 45.4374 40.0573 45.021 39.4484C43.6021 37.3985 42.4479 35.4771 41.527 33.6712C41.0991 32.8265 40.7209 32.0112 40.3972 31.217C40.3955 31.2104 40.3955 31.2104 40.3955 31.2104C39.0141 27.8873 38.4833 25.0052 38.5669 22.5197C38.6145 21.0402 38.8857 19.6928 39.3226 18.4713C40.1865 16.0447 41.7184 14.1132 43.5333 12.5723C44.2318 11.9854 44.9718 11.4511 45.7271 10.976C47.8124 9.66729 50.0487 8.75501 51.9755 8.13999C52.7274 7.89741 53.44 7.69303 54.0672 7.5387C54.2779 7.48449 54.4754 7.43367 54.668 7.39114C55.9456 7.09056 57.1932 7.95599 57.3504 9.24936C57.9586 14.042 59.5218 25.4125 61.831 35.18C63.8193 43.591 59.4277 47.1497 56.2337 48.5962Z" stroke="#16093E" stroke-width="0.980777" stroke-miterlimit="10" stroke-linecap="round" stroke-linejoin="round"/>
<path d="M82.2575 39.4021C82.0373 40.975 81.5484 42.5399 80.79 44.0127C78.9543 47.5738 76.0309 50.5091 72.6514 52.8176C69.7267 54.8196 66.4491 56.3507 63.2392 57.4082C57.6222 59.2603 51.6809 59.9605 45.7641 60.1558C41.0376 60.3117 35.8499 59.3297 34.4982 54.0755C33.2227 49.1175 36.9871 45.7131 40.7528 43.214C46.5013 39.3904 51.1421 34.6444 56.4583 30.2862C56.8223 29.9819 57.2029 29.6875 57.5834 29.393C62.3635 25.7344 68.0556 23.0555 74.1158 25.2733C80.176 27.491 83.0765 33.5262 82.2575 39.4021Z" fill="#BDFFD1"/>
<path d="M82.2574 39.4021C82.0373 40.975 81.5484 42.5399 80.79 44.0127C78.9543 47.5737 76.0309 50.509 72.6514 52.8176C70.5742 53.1203 69.7669 52.7383 69.4487 52.2656C68.9939 51.5893 69.5239 50.7299 69.0163 50.2848C68.3644 49.7154 67.089 50.8157 66.3795 50.2682C65.7214 49.7565 66.4834 48.5707 65.7851 47.7394C64.9855 46.7868 63.3487 47.601 62.7641 46.7476C62.1878 45.899 63.4953 44.6781 62.9235 43.7652C62.3184 42.8047 60.478 43.5098 59.9539 42.5916C59.46 41.7358 60.8795 40.7318 60.4713 39.6364C59.964 38.2646 57.3532 38.6766 56.9554 37.403C56.6351 36.3762 58.1748 35.594 57.8349 34.3546C57.534 33.2667 56.1444 33.1047 56.2021 32.3738C56.266 31.5852 57.9055 31.4091 58.0243 30.4519C58.0807 30.0162 57.7911 29.6274 57.5851 29.3996C62.3652 25.7409 68.0573 23.0621 74.1175 25.2798C80.176 27.491 83.0765 33.5262 82.2574 39.4021Z" fill="#55C484"/>
<path d="M77.2143 36.3143C77.3359 35.323 76.93 34.4575 76.3076 34.3811C75.6853 34.3048 75.0821 35.0465 74.9605 36.0378C74.8389 37.0291 75.2449 37.8947 75.8673 37.971C76.4896 38.0473 77.0927 37.3056 77.2143 36.3143Z" fill="#16093E"/>
<path d="M77.9381 34.2092C77.9381 34.2092 76.5774 34.1592 75.3285 32.8518C74.983 32.4914 74.9068 31.9494 75.0834 31.4898L75.0932 31.4732C75.0932 31.4732 76.2061 32.6611 77.1723 33.1426C77.5264 33.3183 77.7891 33.6298 77.8873 34.0117L77.9381 34.2092Z" fill="#16093E"/>
<path d="M77.0559 42.2938C77.2424 40.7733 75.729 39.3365 73.6755 39.0846C71.6221 38.8327 69.8062 39.8611 69.6197 41.3816C69.4332 42.9021 70.9466 44.339 73.0001 44.5909C75.0535 44.8428 76.8694 43.8143 77.0559 42.2938Z" fill="#ECFFA9"/>
<path d="M69.513 24.218C69.513 24.218 68.1175 19.5577 65.4385 20.3592C62.7595 21.1608 68.6317 24.3395 68.6317 24.3395C68.2528 24.1491 67.8641 23.9754 67.4771 23.8082C67.0901 23.6409 65.4523 22.6232 65.3053 23.5525C65.2389 23.9768 65.5249 24.3244 65.866 24.5315C66.1409 24.6995 66.4598 24.7929 66.7768 24.8518C66.998 24.8931 67.2159 24.9213 67.4452 24.9396C67.6251 24.9565 68.1204 25.0537 68.2732 24.9652L69.513 24.218Z" fill="#16093E"/>
<path d="M82.2575 39.4021C82.0373 40.975 81.5484 42.5399 80.79 44.0127C78.9543 47.5738 76.0309 50.5091 72.6514 52.8176C69.7266 54.8196 66.4491 56.3507 63.2392 57.4082C57.6222 59.2603 51.6809 59.9605 45.7641 60.1558C41.0376 60.3117 35.8499 59.3297 34.4982 54.0755C33.2227 49.1175 36.9871 45.7131 40.7528 43.214C46.5013 39.3904 51.1421 34.6444 56.4583 30.2862C56.8223 29.9819 57.2029 29.6875 57.5834 29.393C62.3635 25.7344 68.0556 23.0555 74.1158 25.2733C80.176 27.491 83.0765 33.5262 82.2575 39.4021Z" stroke="#16093E" stroke-width="0.980777" stroke-miterlimit="10" stroke-linecap="round" stroke-linejoin="round"/>
<path d="M82.3181 37.1541C82.3181 37.1541 80.7605 39.4221 80.9367 41.7987C80.9545 42.0047 81.1583 42.1419 81.3491 42.0647C82.3062 41.6921 84.9587 40.8693 86.9357 42.3053C87.2556 42.5389 87.6926 42.3001 87.6619 41.9079C87.5526 40.3916 86.7196 37.6995 82.3181 37.1541Z" fill="#FF8939"/>
<path d="M82.3181 37.1541C82.3181 37.1541 80.7605 39.4221 80.9367 41.7987C80.9545 42.0047 81.1583 42.1419 81.3491 42.0647C82.3062 41.6921 84.9587 40.8693 86.9357 42.3053C87.2556 42.5389 87.6926 42.3001 87.6619 41.9079C87.5526 40.3916 86.7196 37.6995 82.3181 37.1541Z" stroke="#16093E" stroke-width="0.980777" stroke-miterlimit="10" stroke-linecap="round" stroke-linejoin="round"/>
<path d="M55.0551 48.6538C53.8792 49.3494 52.4549 49.4069 51.2589 48.8511C50.8999 48.6838 50.5538 48.4569 50.2452 48.1853C49.9067 47.8792 49.5782 47.5847 49.2563 47.2884C47.4525 45.6254 45.8488 44.0302 44.4152 42.4966C43.8737 41.9198 43.3703 41.3544 42.8899 40.797C41.2545 38.9152 39.8902 37.132 38.7738 35.4396C38.254 34.6467 37.7903 33.8814 37.3779 33.1241C37.3762 33.1175 37.3762 33.1175 37.3762 33.1175C35.6332 29.9716 34.7846 27.1643 34.5962 24.6855C34.4822 23.2055 34.6016 21.841 34.8947 20.5792C35.4861 18.0754 36.7926 15.9772 38.4265 14.2512C39.0568 13.5906 39.7288 12.9825 40.4323 12.4154C42.361 10.8803 44.4803 9.73131 46.3314 8.9041C47.0547 8.57762 47.7338 8.29761 48.3441 8.07743C48.548 7.99689 48.7356 7.9346 48.9214 7.86572C50.1568 7.42857 51.4924 8.145 51.7979 9.41426C52.9281 14.1077 55.743 25.2404 59.1201 34.6841C62.0466 42.8397 58.0753 46.8589 55.0551 48.6538Z" fill="#CCFFD9"/>
<path d="M51.5286 21.8739C51.2851 21.4732 46.6836 13.8468 46.3316 8.90401C47.0549 8.57753 47.7341 8.29752 48.3443 8.07735C48.034 10.6914 48.179 15.512 51.5286 21.8739Z" fill="#55C484"/>
<path d="M49.618 25.1173C49.4034 25.0742 42.8904 23.689 38.4332 14.2494C39.0635 13.5889 39.7355 12.9808 40.439 12.4137C41.7476 15.6994 45.0261 22.7675 49.618 25.1173Z" fill="#55C484"/>
<path d="M48.9809 27.9346C47.6185 28.3694 45.5949 28.7987 43.1891 28.5612C39.2587 28.1823 36.3481 26.2284 34.6029 24.6837C34.4889 23.2037 34.6082 21.8392 34.9014 20.5774C36.6061 23.4382 40.9805 28.9538 48.9809 27.9346Z" fill="#55C484"/>
<path d="M50.5047 31.5651C49.9297 32.3589 48.182 34.5705 45.0242 35.5303C42.602 36.2658 40.3935 35.9494 38.7806 35.4377C38.2607 34.6448 37.7971 33.8795 37.3846 33.1222C37.7175 33.3244 38.0766 33.5198 38.4636 33.687C44.1166 36.1499 50.0256 31.913 50.5047 31.5651Z" fill="#55C484"/>
<path d="M52.0675 36.1123C51.6076 37.1081 50.7343 38.6525 49.1262 40.042C47.5229 41.4233 45.8013 42.1259 44.4203 42.4882C43.8788 41.9115 43.3753 41.346 42.8949 40.7887C43.3039 40.7958 43.7407 40.7746 44.1971 40.7204C48.7217 40.2163 51.4332 36.9213 52.0675 36.1123Z" fill="#55C484"/>
<path d="M54.2152 40.3124C54.2152 40.3124 54.35 44.6021 51.2591 48.8511C50.9002 48.6837 50.554 48.4568 50.2454 48.1852C49.907 47.8792 49.5784 47.5846 49.2565 47.2883C50.6249 46.7678 52.5728 45.1435 54.2152 40.3124Z" fill="#55C484"/>
<path d="M55.0551 48.6538C53.8792 49.3494 52.4549 49.4069 51.2589 48.8511C50.8999 48.6838 50.5538 48.4569 50.2452 48.1853C49.9067 47.8792 49.5782 47.5847 49.2563 47.2884C47.4525 45.6254 45.8488 44.0302 44.4152 42.4966C43.8737 41.9198 43.3703 41.3544 42.8899 40.797C41.2545 38.9152 39.8902 37.132 38.7738 35.4396C38.254 34.6467 37.7903 33.8814 37.3779 33.1241C37.3762 33.1175 37.3762 33.1175 37.3762 33.1175C35.6332 29.9716 34.7846 27.1643 34.5962 24.6855C34.4822 23.2055 34.6016 21.841 34.8947 20.5792C35.4861 18.0754 36.7926 15.9772 38.4265 14.2512C39.0568 13.5906 39.7288 12.9825 40.4323 12.4154C42.361 10.8803 44.4803 9.73131 46.3314 8.9041C47.0547 8.57762 47.7338 8.29761 48.3441 8.07743C48.548 7.99689 48.7356 7.9346 48.9214 7.86572C50.1568 7.42857 51.4924 8.145 51.7979 9.41426C52.9281 14.1077 55.743 25.2404 59.1201 34.6841C62.0466 42.8397 58.0753 46.8589 55.0551 48.6538Z" stroke="#16093E" stroke-width="0.980777" stroke-miterlimit="10" stroke-linecap="round" stroke-linejoin="round"/>
<path d="M49.3448 12.4041C49.3448 12.4041 43.7064 18.8389 48.815 23.934C48.815 23.934 44.1025 30.0112 50.5535 32.2197C50.5535 32.2197 46.6515 37.4636 53.1297 39.5597C53.1297 39.5597 53.1673 45.5452 58.9258 43.1792" stroke="#16093E" stroke-width="0.980777" stroke-miterlimit="10" stroke-linecap="round" stroke-linejoin="round"/>
<path d="M42.6072 20.1323C42.6072 20.1323 38.1633 24.0064 42.1214 28.204C42.1214 28.204 39.3942 31.3836 44.2795 33.2367C44.2795 33.2367 42.1487 40.9173 47.7819 40.2473C47.7819 40.2473 47.4287 46.242 52.2622 45.3285C52.2622 45.3285 53.3364 49.0676 57.8916 45.7897" stroke="#16093E" stroke-width="0.980777" stroke-miterlimit="10" stroke-linecap="round" stroke-linejoin="round"/>
<path d="M56.9889 58.9811C56.9889 58.9811 65.9834 55.5229 68.1172 55.7672C68.1172 55.7672 69.4438 57.1037 68.971 58.1309C68.4982 59.1581 65.1721 60.8281 65.1721 60.8281C65.1721 60.8281 63.5314 60.3446 64.4282 59.3557C65.3251 58.3669 66.8683 57.8435 66.8683 57.8435C66.8683 57.8435 56.2732 59.9374 56.9889 58.9811Z" fill="#FF8939"/>
<path d="M56.9889 58.9811C56.9889 58.9811 65.9834 55.5229 68.1172 55.7672C68.1172 55.7672 69.4438 57.1037 68.971 58.1309C68.4982 59.1581 65.1721 60.8281 65.1721 60.8281C65.1721 60.8281 63.5314 60.3446 64.4282 59.3557C65.3251 58.3669 66.8683 57.8435 66.8683 57.8435C66.8683 57.8435 56.2732 59.9374 56.9889 58.9811Z" stroke="#16093E" stroke-width="0.980777" stroke-miterlimit="10" stroke-linecap="round" stroke-linejoin="round"/>
</g>
<defs>
<clipPath id="clip0_1017_1603">
<rect width="80" height="56.3338" fill="white" transform="translate(0 19.9318) rotate(-14.4271)"/>
</clipPath>
</defs>
</svg>
