<svg width="1440" height="1809" viewBox="0 0 1440 1809" fill="none" xmlns="http://www.w3.org/2000/svg">
<path d="M1440 287.5V1809H0V181C14.3181 174.898 25.194 171.691 41.7295 171.691C63.7137 171.691 84.2885 177.656 101.958 188.072C118.614 197.853 132.657 211.569 142.85 227.95C153.954 216.055 169.939 206.825 188.761 202.734C214.853 197.062 240.069 202.631 256.759 215.712C258.478 184.377 284.416 159.488 316.18 159.488C328.35 159.488 339.66 163.149 349.079 169.405C357.227 132.708 389.937 105.275 429.075 105.275C474.367 105.275 511.065 141.972 511.065 187.247C511.065 191.39 510.756 195.446 510.154 199.434C509.81 201.737 509.363 204.006 508.83 206.258C515.809 201.857 524.077 199.296 532.946 199.296C540.99 199.296 548.519 201.393 555.068 205.072C555.137 203.903 555.24 202.717 555.36 201.565V201.548C559.331 165.572 589.806 137.572 626.848 137.572C643.246 137.572 658.354 143.072 670.455 152.32C670.575 119.558 697.184 93.019 729.962 93.019C731.148 93.019 732.317 93.0706 733.486 93.1394C746.205 41.075 793.13 2.435 849.097 2.435C914.843 2.435 968.128 55.7369 968.128 121.466C968.128 128.135 967.561 134.667 966.512 141.027C978.097 134.77 991.35 131.195 1005.44 131.195C1050.72 131.195 1087.43 167.91 1087.43 213.185C1087.43 218.995 1086.82 224.667 1085.66 230.133C1087.07 229.6 1088.5 229.119 1089.93 228.655C1100.1 225.354 1111.12 223.55 1122.6 223.55C1155.97 223.55 1185.24 238.744 1201.91 261.622C1202.12 260.918 1202.34 260.23 1202.56 259.543C1210.5 235.994 1232.75 219.063 1258.96 219.063C1291.15 219.063 1317.35 244.623 1318.41 276.559C1332.85 271.162 1349.75 268.068 1367.83 268.068C1375.26 268.068 1382.48 268.601 1389.42 269.581C1393.91 270.217 1398.27 271.042 1402.48 272.073C1418.14 275.837 1429.58 279.559 1440 287.5Z" fill="#EFFFFF"/>
<path d="M0 510.217V181.462C14.163 175.366 29.7372 172 46.0935 172C67.8396 172 88.1915 177.959 105.67 188.366C80.4554 197.656 58.9643 213.06 48.2188 239.231C46.3996 243.662 44.9543 248.23 43.8832 252.866C36.1471 286.25 47.3687 323.687 71.5801 348.107C85.335 361.982 103.375 372.166 122.74 373.763C138.604 375.068 155.249 370.019 166.947 359.355C169.531 357.002 171.894 354.375 173.935 351.472C170.976 355.663 172.166 361.123 175.499 366.756C182.147 377.987 195.715 391.193 208.347 395.177C209.657 395.589 210.983 395.933 212.326 396.207C228.767 399.625 247.011 391.708 255.988 377.781C259.542 375.205 263.027 372.646 266.479 370.38C283.226 359.372 304.479 353.482 323.488 359.681C342.513 365.863 357.305 386.574 352.647 406.202C358.173 402.647 363.97 399.522 369.972 396.894C386.414 389.647 404.351 385.904 422.289 386.11C432.184 386.23 442.436 387.655 450.785 393.03C454.015 395.108 456.803 397.684 459.252 400.604C464.285 406.545 467.889 413.861 470.745 421.194C473.279 427.668 475.404 434.314 477.087 441.08C481.27 457.789 482.817 475.185 481.593 492.375C482.443 473.914 474.418 455.659 461.445 442.574C450.989 431.978 437.302 424.748 422.493 423.443C391.497 420.713 360.944 444.411 353.65 474.567C352.834 477.967 352.307 481.47 352.103 485.008C351.559 469.071 346.373 453.187 337.243 440.255C332.89 434.073 327.636 428.561 321.549 424.044C302.745 410.083 276.204 406.7 255.359 417.295C234.531 427.908 221.235 452.826 225.741 475.94C224.058 475.116 222.357 474.326 220.64 473.536C212.7 467.715 203.094 464.16 193.317 463.422C180.497 462.46 168.715 458.459 156.439 459.609C152.597 459.97 148.686 460.846 144.69 462.477C141.732 463.679 138.757 464.933 135.832 466.289C128.521 469.621 121.516 473.553 115.616 478.98C107.336 486.57 101.453 497.647 102.66 508.861C99.073 508.929 95.6385 507.59 92.221 506.542C89.7557 505.787 87.2223 505.186 84.672 504.756C73.7904 502.902 62.3648 504.069 52.7244 509.376C40.8228 515.919 32.3386 529.365 33.5797 543C27.0168 535.908 24.2624 525.14 15.9312 520.332C12.7348 518.477 9.02827 517.739 5.37276 517.361C3.60451 517.172 1.80225 517.069 0 517.052V510.217Z" fill="#C5EFFF"/>
<path d="M1241.56 324.412C1227.45 304.748 1206.1 295.518 1190.58 301.294C1170.99 308.582 1168.27 336.943 1166.93 350.951C1164.3 378.453 1174.49 399.991 1179.81 409.548C1175.9 404.683 1160.9 387.168 1134.88 382.75C1128.26 381.633 1103.56 377.439 1082.59 394.318C1063.22 409.891 1060.65 432.46 1060.22 437.067C1057.84 423.694 1044.5 415.701 1032.93 419.019C1022.6 421.975 1015.62 433.388 1018.15 445.145C1017.27 444.286 1000.91 428.627 978.905 434.127C959.62 438.957 951.902 456.06 951.043 458.071C949.788 455.115 946.178 447.638 937.807 442.137C930.416 437.29 923.197 436.499 919.948 436.362C907.487 438.012 888.063 439.06 865.237 433.938C844.714 429.332 828.986 421.425 818.742 415.237C849.08 417.901 879.624 417.953 909.962 415.374C914.534 414.996 920.017 413.879 921.581 409.565C929.711 416.715 941.245 419.792 951.85 417.678C959.843 416.079 968.266 409.41 966.547 401.452C978.39 407.158 993.499 407.21 1003.93 399.234C1014.37 391.259 1017.91 374.552 1009.62 364.359C1023.1 371.303 1038.76 368.862 1047.81 359.099C1055.52 350.797 1058.11 337.544 1053.44 329.156C1046.23 316.23 1020.02 311.607 991.161 326.131C1013.37 307.413 1034.27 299.781 1047.51 296.326C1062.27 292.476 1077.52 288.729 1086.8 297.357C1094.81 304.817 1094.16 317.554 1093.62 322.59C1093.62 317.623 1090.24 313.274 1085.47 312.088C1080.58 310.85 1075.39 313.257 1073.13 317.863C1071.67 337.527 1079.72 353.513 1091.66 357.638C1103.4 361.694 1115.52 353.272 1120.18 349.645C1141.1 333.385 1150.79 304.009 1143.64 278.484C1139.21 262.602 1128.39 248.834 1114.58 239.982C1111.12 237.764 1107.46 235.839 1103.66 234.275C1100.45 232.952 1094.55 232.625 1091.89 230.7C1090.75 229.892 1090.15 229.256 1089.91 228.672C1100.09 225.371 1111.1 223.567 1122.59 223.567C1155.95 223.567 1185.22 238.761 1201.89 261.639C1208.94 268.824 1217.19 278.467 1224.99 290.791C1232.88 303.219 1238.09 314.907 1241.56 324.412Z" fill="#C5EFFF"/>
<path d="M692.319 266.796C689.672 276.026 686.699 285.807 679.445 292.081C674.924 295.965 669.166 298.097 663.442 299.764C650.087 303.631 634.703 305.058 623.169 297.306C624.012 302.858 621.296 308.479 617.274 312.398C613.251 316.299 608.061 318.74 602.852 320.854C594.653 324.189 585.767 326.905 577.052 325.323C568.338 323.759 560.053 316.695 559.881 307.843C550.891 313.102 539.701 315.354 529.921 311.813C520.124 308.289 512.543 298.079 513.953 287.766C505.84 295.621 493.309 296.395 482.068 295.501C471.308 294.642 463.143 289.193 459.276 278.811C449.392 252.323 464.518 227.056 485.643 211.586C493.034 206.172 501.371 202.064 510.154 199.434C509.81 201.737 509.363 204.006 508.831 206.258C515.809 201.857 524.077 199.296 532.946 199.296C540.99 199.296 548.519 201.393 555.068 205.072C555.137 203.903 555.24 202.717 555.36 201.565C557.045 202.597 558.678 203.731 560.311 204.865C575.454 215.368 591.095 226.575 600.738 242.044C595.289 234.327 586.472 228.981 577.19 226.712C565.759 223.893 553.676 225.2 542.262 228.053C535.765 229.669 529.388 231.8 523.217 234.378C519.814 235.805 516.394 237.421 513.798 240.051C511.203 242.663 509.535 246.496 510.378 250.089C518.834 259.474 533.617 262.482 545.081 257.153C543.328 262.911 545.58 269.667 550.444 273.207C553.538 275.476 557.371 276.422 561.153 277.058C579.321 280.134 598.504 276.92 614.678 268.085C618.271 276.765 629.426 278.794 638.794 279.584C651.754 280.667 665.608 281.578 676.97 275.253C682.092 272.4 686.595 268.12 692.319 266.796Z" fill="#C5EFFF"/>
<path d="M1440 411V597C1431.42 597.481 1422.43 592.787 1417.07 584.158C1420.64 605.18 1413.39 624.741 1399.05 632.871C1384.84 640.95 1368.25 635.157 1364.85 633.868C1346.37 626.889 1345.56 612.554 1328.3 603.306C1320.1 598.906 1307.13 595.09 1286.78 598.992C1283.75 595.159 1269.55 578.091 1245.92 575.736C1221.8 573.329 1197.55 587.235 1184.9 610.955C1182.6 609.065 1159.34 590.673 1129 598.648C1100.23 606.228 1088.8 631.289 1087.42 634.418C1069.15 631.1 1040.03 628.763 1007.98 639.592C999.434 642.479 991.836 645.9 985.167 649.475C981.54 646.037 976.401 641.998 969.56 638.835C951.89 630.671 935.028 633.937 928.703 635.535C930.593 633.971 948.796 618.725 945.307 606.968C941.955 595.675 918.75 587.991 888 595.898C918.579 568.637 970.694 570.528 999.21 599.955C1039.19 571.989 1092.6 564.254 1138.89 579.689C1140.88 565.698 1153.79 555.006 1167.66 552.17C1181.5 549.334 1195.95 553.03 1208.86 558.805C1204.68 535.411 1223.52 510.522 1247.17 508.184C1262.2 506.723 1280.66 511.914 1290.13 500.157C1298.28 490.05 1292.81 475.165 1287.09 463.528C1302.01 473.051 1322.89 470.662 1336.57 459.472C1349.26 449.09 1355.75 432.297 1355.31 415.899C1357.77 434.136 1379.75 446.512 1398.45 442.971C1416.17 439.602 1429.98 426.281 1440 411Z" fill="#C5EFFF"/>
<path d="M555.068 205.072C555.068 205.072 555.36 162.014 599.311 143.055C643.263 124.096 677.949 158.765 677.949 158.765" stroke="#180930" stroke-width="4" stroke-miterlimit="10" stroke-linecap="round" stroke-linejoin="round"/>
<path d="M670.455 152.32C670.455 152.32 670.386 96.4912 733.486 93.1394C733.486 93.1394 748.457 15.7218 834.796 3.29444C921.134 -9.13294 957.402 72.0145 957.402 72.0145C957.402 72.0145 972.477 100.032 966.512 141.027C966.512 141.027 1044.79 100.874 1083.67 188.553C1083.67 188.553 1090.17 201.393 1085.66 230.133" stroke="#180930" stroke-width="4" stroke-miterlimit="10" stroke-linecap="round" stroke-linejoin="round"/>
<path d="M991.676 269.529C991.676 269.529 1086.06 211.792 1149.06 226.867C1176.63 233.45 1192.65 247.201 1201.94 260.574C1213.91 277.762 1214.75 294.366 1214.75 294.366" stroke="#180930" stroke-width="4" stroke-miterlimit="10" stroke-linecap="round" stroke-linejoin="round"/>
<path d="M1201.91 261.622C1201.91 261.622 1216.85 210.005 1269.81 220.06C1322.76 230.115 1318.42 276.559 1318.42 276.559C1318.42 276.559 1384.5 248.5 1438 287" stroke="#180930" stroke-width="4" stroke-miterlimit="10" stroke-linecap="round" stroke-linejoin="round"/>
<path d="M253.923 377.663C253.923 377.663 313.74 333.333 343.51 374.534C343.51 374.534 355.198 385.037 351.64 406.11C351.64 406.11 460.049 342.563 476.774 438.476C476.774 438.476 490.353 404.718 521.481 416.148" stroke="#180930" stroke-width="4" stroke-miterlimit="10" stroke-linecap="round" stroke-linejoin="round"/>
<path d="M1060.24 437.049C1060.24 437.049 1051.22 405.56 1024.01 424.45C1024.01 424.45 1013.88 432.735 1018.16 445.128C1018.16 445.128 979.799 413.26 951.059 458.054C951.059 458.054 942.499 432.219 912.11 437.187" stroke="#180930" stroke-width="4" stroke-miterlimit="10" stroke-linecap="round" stroke-linejoin="round"/>
<path d="M2 180.5C2 180.5 80 138.5 142.85 227.95C141.183 225.371 166.433 210.727 168.186 209.867C188.83 199.881 214.303 197.148 236.219 204.487C260.231 212.549 272.177 233.759 274.085 258.236C274.377 262.035 274.463 265.85 274.36 269.649" stroke="#180930" stroke-width="4" stroke-miterlimit="10" stroke-linecap="round" stroke-linejoin="round"/>
<path d="M256.209 216.519C256.209 216.519 259.75 158.662 321.251 159.71C321.251 159.71 340.434 161.722 349.079 169.405C349.079 169.405 358.739 105.205 436.174 105.583C436.174 105.583 491.968 108.901 508.71 167.634C508.71 167.634 513.729 193.056 508.848 206.257C508.848 206.257 544.617 176.143 600.755 242.044" stroke="#180930" stroke-width="4" stroke-miterlimit="10" stroke-linecap="round" stroke-linejoin="round"/>
</svg>
