<svg width="1637" height="2716" viewBox="0 0 1637 2716" fill="none" xmlns="http://www.w3.org/2000/svg">
<path d="M1637 287.5V1809H0V181C16.2769 174.898 28.6407 171.691 47.4383 171.691C72.4301 171.691 95.8197 177.656 115.907 188.072C134.841 197.853 150.806 211.569 162.393 227.95C175.016 216.055 193.188 206.825 214.585 202.734C244.246 197.062 272.912 202.631 291.885 215.712C293.839 184.377 323.325 159.488 359.436 159.488C373.27 159.488 386.127 163.149 396.835 169.405C406.097 132.708 443.282 105.275 487.775 105.275C539.263 105.275 580.982 141.972 580.982 187.247C580.982 191.39 580.63 195.446 579.946 199.434C579.555 201.737 579.047 204.006 578.441 206.258C586.375 201.857 595.773 199.296 605.856 199.296C615.001 199.296 623.559 201.393 631.004 205.072C631.082 203.903 631.2 202.717 631.336 201.565V201.548C635.85 165.572 670.495 137.572 712.604 137.572C731.245 137.572 748.421 143.072 762.177 152.32C762.314 119.558 792.562 93.019 829.825 93.019C831.173 93.019 832.502 93.0706 833.831 93.1394C848.29 41.075 901.635 2.435 965.258 2.435C1040 2.435 1100.57 55.7369 1100.57 121.466C1100.57 128.135 1099.93 134.667 1098.74 141.027C1111.91 134.77 1126.97 131.195 1142.99 131.195C1194.46 131.195 1236.2 167.91 1236.2 213.185C1236.2 218.995 1235.5 224.667 1234.19 230.133C1235.79 229.6 1237.41 229.119 1239.03 228.655C1250.6 225.354 1263.13 223.55 1276.18 223.55C1314.11 223.55 1347.38 238.744 1366.34 261.622C1366.57 260.918 1366.83 260.23 1367.08 259.543C1376.11 235.994 1401.39 219.063 1431.19 219.063C1467.79 219.063 1497.57 244.623 1498.78 276.559C1515.2 271.162 1534.4 268.068 1554.96 268.068C1563.4 268.068 1571.61 268.601 1579.5 269.581C1584.6 270.217 1589.56 271.042 1594.35 272.073C1612.15 275.837 1625.16 279.559 1637 287.5Z" fill="#EFFFFF"/>
<path d="M0 510.217V181.462C16.1006 175.366 33.8054 172 52.3994 172C77.1204 172 100.257 177.959 120.126 188.366C91.4621 197.656 67.031 213.06 54.8154 239.231C52.7473 243.662 51.1043 248.23 49.8867 252.866C41.0922 286.25 53.849 323.687 81.3726 348.107C97.0093 361.982 117.517 372.166 139.532 373.763C157.565 375.068 176.488 370.019 189.786 359.355C192.724 357.002 195.41 354.375 197.73 351.472C194.367 355.663 195.72 361.123 199.508 366.756C207.065 377.987 222.489 391.193 236.85 395.177C238.339 395.589 239.846 395.933 241.373 396.207C260.064 399.625 280.803 391.708 291.009 377.781C295.048 375.205 299.011 372.646 302.934 370.38C321.973 359.372 346.133 353.482 367.743 359.681C389.371 365.863 406.187 386.574 400.891 406.202C407.172 402.647 413.764 399.522 420.586 396.894C439.277 389.647 459.669 385.904 480.06 386.11C491.309 386.23 502.964 387.655 512.454 393.03C516.127 395.108 519.297 397.684 522.08 400.604C527.801 406.545 531.899 413.861 535.146 421.194C538.026 427.668 540.442 434.314 542.355 441.08C547.11 457.789 548.869 475.185 547.478 492.375C548.444 473.914 539.321 455.659 524.573 442.574C512.686 431.978 497.127 424.748 480.292 423.443C445.056 420.713 410.323 444.411 402.031 474.567C401.103 477.967 400.504 481.47 400.272 485.008C399.654 469.071 393.759 453.187 383.379 440.255C378.431 434.073 372.459 428.561 365.539 424.044C344.162 410.083 313.99 406.7 290.294 417.295C266.616 427.908 251.501 452.826 256.623 475.94C254.71 475.116 252.777 474.326 250.825 473.536C241.799 467.715 230.878 464.16 219.764 463.422C205.191 462.46 191.796 458.459 177.841 459.609C173.473 459.97 169.027 460.846 164.485 462.477C161.122 463.679 157.739 464.933 154.415 466.289C146.104 469.621 138.14 473.553 131.433 478.98C122.02 486.57 115.333 497.647 116.705 508.861C112.627 508.929 108.722 507.59 104.837 506.542C102.035 505.787 99.1548 505.186 96.2555 504.756C83.8853 502.902 70.8966 504.069 59.9374 509.376C46.4075 515.919 36.7627 529.365 38.1736 543C30.7129 535.908 27.5817 525.14 18.1107 520.332C14.477 518.477 10.2634 517.739 6.10778 517.361C4.09763 517.172 2.04881 517.069 0 517.052V510.217Z" fill="#C5EFFF"/>
<path d="M1411.42 324.412C1395.38 304.748 1371.11 295.518 1353.46 301.294C1331.19 308.582 1328.1 336.943 1326.57 350.951C1323.58 378.453 1335.17 399.991 1341.21 409.548C1336.77 404.683 1319.72 387.168 1290.13 382.75C1282.61 381.633 1254.53 377.439 1230.69 394.318C1208.67 409.891 1205.76 432.46 1205.27 437.067C1202.55 423.694 1187.39 415.701 1174.24 419.019C1162.5 421.975 1154.56 433.388 1157.44 445.145C1156.44 444.286 1137.84 428.627 1112.82 434.127C1090.9 438.957 1082.13 456.06 1081.15 458.071C1079.72 455.115 1075.62 447.638 1066.1 442.137C1057.7 437.29 1049.5 436.499 1045.8 436.362C1031.64 438.012 1009.56 439.06 983.606 433.938C960.275 429.332 942.396 421.425 930.75 415.237C965.238 417.901 999.961 417.953 1034.45 415.374C1039.65 414.996 1045.88 413.879 1047.66 409.565C1056.9 416.715 1070.01 419.792 1082.07 417.678C1091.15 416.079 1100.73 409.41 1098.78 401.452C1112.24 407.158 1129.41 407.21 1141.28 399.234C1153.14 391.259 1157.16 374.552 1147.74 364.359C1163.06 371.303 1180.86 368.862 1191.16 359.099C1199.92 350.797 1202.87 337.544 1197.55 329.156C1189.36 316.23 1159.56 311.607 1126.76 326.131C1152 307.413 1175.76 299.781 1190.81 296.326C1207.59 292.476 1224.93 288.729 1235.48 297.357C1244.58 304.817 1243.84 317.554 1243.24 322.59C1243.24 317.623 1239.39 313.274 1233.97 312.088C1228.4 310.85 1222.5 313.257 1219.94 317.863C1218.28 337.527 1227.43 353.513 1241.01 357.638C1254.35 361.694 1268.13 353.272 1273.43 349.645C1297.21 333.385 1308.23 304.009 1300.1 278.484C1295.06 262.602 1282.77 248.834 1267.06 239.982C1263.13 237.764 1258.97 235.839 1254.65 234.275C1250.99 232.952 1244.29 232.625 1241.26 230.7C1239.97 229.892 1239.29 229.256 1239.02 228.672C1250.58 225.371 1263.11 223.567 1276.16 223.567C1314.09 223.567 1347.37 238.761 1366.32 261.639C1374.33 268.824 1383.71 278.467 1392.58 290.791C1401.55 303.219 1407.47 314.907 1411.42 324.412Z" fill="#C5EFFF"/>
<path d="M787.033 266.796C784.023 276.026 780.643 285.807 772.397 292.081C767.258 295.965 760.712 298.097 754.205 299.764C739.022 303.631 721.534 305.058 708.423 297.306C709.38 302.858 706.293 308.479 701.72 312.398C697.148 316.299 691.247 318.74 685.326 320.854C676.006 324.189 665.903 326.905 655.996 325.323C646.09 323.759 636.671 316.695 636.476 307.843C626.256 313.102 613.536 315.354 602.417 311.813C591.28 308.289 582.662 298.079 584.265 287.766C575.042 295.621 560.797 296.395 548.018 295.501C535.786 294.642 526.504 289.193 522.107 278.811C510.872 252.323 528.067 227.056 552.082 211.586C560.484 206.172 569.961 202.064 579.946 199.434C579.555 201.737 579.047 204.006 578.442 206.258C586.375 201.857 595.774 199.296 605.856 199.296C615.001 199.296 623.56 201.393 631.005 205.072C631.083 203.903 631.2 202.717 631.337 201.565C633.252 202.597 635.108 203.731 636.964 204.865C654.179 215.368 671.961 226.575 682.923 242.045C676.728 234.327 666.704 228.981 656.153 226.712C643.159 223.893 629.422 225.2 616.447 228.053C609.061 229.669 601.812 231.8 594.797 234.378C590.928 235.805 587.039 237.421 584.089 240.051C581.138 242.663 579.243 246.496 580.2 250.089C589.814 259.474 606.618 262.482 619.652 257.153C617.659 262.911 620.218 269.667 625.748 273.207C629.266 275.476 633.623 276.422 637.922 277.058C658.576 280.134 680.383 276.92 698.77 268.085C702.854 276.766 715.535 278.794 726.185 279.584C740.918 280.667 756.667 281.578 769.583 275.253C775.406 272.4 780.526 268.12 787.033 266.796Z" fill="#C5EFFF"/>
<path d="M1637 411V597C1627.25 597.481 1617.03 592.787 1610.93 584.158C1614.99 605.18 1606.75 624.741 1590.45 632.871C1574.29 640.95 1555.43 635.157 1551.57 633.868C1530.56 626.889 1529.64 612.554 1510.02 603.306C1500.7 598.906 1485.95 595.09 1462.81 598.992C1459.38 595.159 1443.24 578.091 1416.37 575.736C1388.95 573.329 1361.38 587.235 1347 610.955C1344.38 609.065 1317.94 590.673 1283.46 598.648C1250.75 606.228 1237.75 631.289 1236.19 634.418C1215.42 631.1 1182.32 628.763 1145.87 639.592C1136.16 642.479 1127.53 645.9 1119.94 649.475C1115.82 646.037 1109.98 641.998 1102.2 638.835C1082.11 630.671 1062.95 633.937 1055.75 635.535C1057.9 633.971 1078.6 618.725 1074.63 606.968C1070.82 595.675 1044.44 587.991 1009.48 595.898C1044.25 568.637 1103.49 570.528 1135.91 599.955C1181.36 571.989 1242.07 564.254 1294.69 579.689C1296.96 565.698 1311.63 555.006 1327.4 552.17C1343.13 549.334 1359.56 553.03 1374.24 558.805C1369.49 535.411 1390.91 510.522 1417.79 508.184C1434.87 506.723 1455.86 511.914 1466.62 500.157C1475.89 490.05 1469.67 475.165 1463.17 463.528C1480.13 473.051 1503.87 470.662 1519.42 459.472C1533.84 449.09 1541.23 432.297 1540.72 415.899C1543.52 434.136 1568.51 446.512 1589.77 442.971C1609.91 439.602 1625.61 426.281 1637 411Z" fill="#C5EFFF"/>
<path d="M631.004 205.072C631.004 205.072 631.337 162.014 681.301 143.055C731.265 124.096 770.697 158.765 770.697 158.765" stroke="#180930" stroke-width="4" stroke-miterlimit="10" stroke-linecap="round" stroke-linejoin="round"/>
<path d="M762.177 152.32C762.177 152.32 762.099 96.4912 833.831 93.1394C833.831 93.1394 850.85 15.7218 949 3.29444C1047.15 -9.13294 1088.38 72.0145 1088.38 72.0145C1088.38 72.0145 1105.52 100.032 1098.74 141.027C1098.74 141.027 1187.72 100.874 1231.92 188.553C1231.92 188.553 1239.31 201.393 1234.19 230.133" stroke="#180930" stroke-width="4" stroke-miterlimit="10" stroke-linecap="round" stroke-linejoin="round"/>
<path d="M1127.34 269.529C1127.34 269.529 1234.64 211.792 1306.25 226.867C1337.59 233.45 1355.81 247.201 1366.38 260.574C1379.98 277.762 1380.93 294.366 1380.93 294.366" stroke="#180930" stroke-width="4" stroke-miterlimit="10" stroke-linecap="round" stroke-linejoin="round"/>
<path d="M1366.34 261.622C1366.34 261.622 1383.32 210.005 1443.52 220.06C1503.73 230.115 1498.78 276.559 1498.78 276.559C1498.78 276.559 1573.91 248.5 1634.73 287" stroke="#180930" stroke-width="4" stroke-miterlimit="10" stroke-linecap="round" stroke-linejoin="round"/>
<path d="M288.661 377.663C288.661 377.663 356.661 333.333 390.504 374.534C390.504 374.534 403.792 385.037 399.747 406.11C399.747 406.11 522.986 342.563 541.999 438.476C541.999 438.476 557.436 404.718 592.823 416.148" stroke="#180930" stroke-width="4" stroke-miterlimit="10" stroke-linecap="round" stroke-linejoin="round"/>
<path d="M1205.29 437.049C1205.29 437.049 1195.03 405.56 1164.1 424.45C1164.1 424.45 1152.59 432.735 1157.45 445.128C1157.45 445.128 1113.84 413.26 1081.17 458.054C1081.17 458.054 1071.44 432.219 1036.89 437.187" stroke="#180930" stroke-width="4" stroke-miterlimit="10" stroke-linecap="round" stroke-linejoin="round"/>
<path d="M2.27393 180.5C2.27393 180.5 90.9448 138.5 162.393 227.95C160.498 225.371 189.202 210.727 191.195 209.867C214.663 199.881 243.621 197.148 268.535 204.487C295.833 212.549 309.413 233.759 311.582 258.236C311.914 262.035 312.012 265.85 311.895 269.649" stroke="#180930" stroke-width="4" stroke-miterlimit="10" stroke-linecap="round" stroke-linejoin="round"/>
<path d="M291.26 216.519C291.26 216.519 295.286 158.662 365.2 159.71C365.2 159.71 387.007 161.722 396.836 169.405C396.836 169.405 407.817 105.205 495.845 105.583C495.845 105.583 559.273 108.901 578.305 167.634C578.305 167.634 584.01 193.056 578.461 206.257C578.461 206.257 619.124 176.143 682.942 242.044" stroke="#180930" stroke-width="4" stroke-miterlimit="10" stroke-linecap="round" stroke-linejoin="round"/>
<rect y="1709" width="1637" height="1007" fill="#EFFFFF"/>
</svg>
