<svg width="1440" height="2070" viewBox="0 0 1440 2070" fill="none" xmlns="http://www.w3.org/2000/svg">
<g clip-path="url(#clip0_78_72)">
<path d="M1440 286.044V2069.36H0V177.771C14.2478 171.701 29.9152 168.35 46.3694 168.35C68.2456 168.35 88.7193 174.283 106.302 184.644C122.876 194.372 136.85 208.015 146.993 224.308C158.043 212.477 173.949 203.296 192.678 199.227C218.643 193.585 243.734 199.124 260.343 212.135C262.053 180.968 287.863 156.212 319.472 156.212C331.581 156.212 342.836 159.853 352.209 166.077C360.316 129.575 392.866 102.289 431.812 102.289C476.881 102.289 513.399 138.79 513.399 183.823C513.399 187.943 513.091 191.978 512.492 195.944C512.15 198.235 511.705 200.492 511.175 202.732C518.119 198.355 526.347 195.808 535.172 195.808C543.177 195.808 550.669 197.893 557.185 201.552C557.254 200.39 557.356 199.21 557.476 198.064V198.047C561.427 162.264 591.753 134.414 628.612 134.414C644.93 134.414 659.964 139.885 672.006 149.083C672.125 116.496 698.603 90.0992 731.22 90.0992C732.401 90.0992 733.564 90.1505 734.727 90.2189C747.384 38.4332 794.078 0 849.769 0C915.193 0 968.216 53.0166 968.216 118.394C968.216 125.028 967.651 131.524 966.608 137.85C978.136 131.627 991.323 128.071 1005.35 128.071C1050.4 128.071 1086.94 164.589 1086.94 209.622C1086.94 215.4 1086.32 221.042 1085.17 226.479C1086.58 225.949 1088 225.47 1089.42 225.009C1099.54 221.726 1110.51 219.931 1121.93 219.931C1155.13 219.931 1184.26 235.044 1200.85 257.8C1201.05 257.099 1201.28 256.415 1201.5 255.731C1209.4 232.309 1231.53 215.469 1257.62 215.469C1289.65 215.469 1315.72 240.891 1316.78 272.657C1331.15 267.289 1347.96 264.211 1365.96 264.211C1373.35 264.211 1380.53 264.741 1387.44 265.716C1391.9 266.348 1396.25 267.169 1400.44 268.195C1416.02 271.939 1429.63 278.145 1440 286.044Z" fill="#FFFBFE"/>
<path d="M0 505.069V177.771C14.2478 171.702 29.9152 168.351 46.3694 168.351C68.2456 168.351 88.7193 174.283 106.302 184.644C80.9369 193.893 59.3173 209.229 48.5074 235.284C46.6773 239.695 45.2234 244.243 44.1459 248.859C36.3635 282.094 47.6522 319.365 72.0085 343.677C85.8458 357.491 103.993 367.629 123.475 369.219C139.433 370.518 156.178 365.492 167.946 354.875C170.546 352.533 172.923 349.917 174.976 347.027C172 351.199 173.197 356.636 176.549 362.243C183.237 373.425 196.886 386.572 209.594 390.538C210.912 390.949 212.246 391.291 213.597 391.564C230.137 394.966 248.489 387.085 257.52 373.219C261.095 370.655 264.601 368.108 268.074 365.851C284.921 354.892 306.301 349.028 325.424 355.2C344.563 361.354 359.444 381.973 354.758 401.514C360.316 397.975 366.149 394.864 372.187 392.248C388.726 385.033 406.771 381.306 424.816 381.511C434.771 381.631 445.085 383.05 453.483 388.401C456.733 390.47 459.538 393.034 462.001 395.941C467.064 401.856 470.69 409.139 473.563 416.44C476.112 422.885 478.25 429.502 479.943 436.238C484.151 452.873 485.707 470.192 484.476 487.305C485.331 468.926 477.258 450.753 464.207 437.725C453.688 427.176 439.919 419.979 425.022 418.679C393.841 415.961 363.104 439.554 355.767 469.576C354.946 472.961 354.415 476.449 354.21 479.971C353.663 464.105 348.446 448.291 339.261 435.417C334.883 429.262 329.597 423.774 323.474 419.278C304.557 405.378 277.857 402.01 256.888 412.559C235.935 423.125 222.559 447.932 227.092 470.944C225.399 470.123 223.688 469.337 221.961 468.55C213.973 462.755 204.309 459.216 194.474 458.48C181.578 457.523 169.725 453.539 157.375 454.685C153.51 455.044 149.576 455.916 145.556 457.54C142.58 458.737 139.587 459.985 136.645 461.335C129.29 464.652 122.243 468.567 116.308 473.97C107.979 481.527 102.061 492.554 103.275 503.718C99.666 503.786 96.211 502.453 92.773 501.41C90.2929 500.658 87.7444 500.059 85.1788 499.632C74.2321 497.785 62.7381 498.948 53.04 504.231C41.0671 510.745 32.5321 524.131 33.7807 537.706C27.1785 530.645 24.4076 519.926 16.0266 515.139C12.811 513.292 9.08231 512.557 5.40492 512.181C3.62608 511.993 1.81304 511.89 0 511.873L0 505.069Z" fill="#E3F5FF"/>
<path d="M1240.31 320.254C1226.27 300.696 1205.02 291.515 1189.58 297.259C1170.08 304.508 1167.38 332.718 1166.04 346.651C1163.43 374.006 1173.57 395.428 1178.85 404.934C1174.97 400.095 1160.04 382.674 1134.14 378.28C1127.56 377.169 1102.98 372.997 1082.11 389.786C1062.84 405.276 1060.29 427.724 1059.86 432.305C1057.48 419.004 1044.21 411.054 1032.7 414.354C1022.42 417.295 1015.47 428.647 1017.99 440.341C1017.12 439.486 1000.83 423.911 978.94 429.382C959.749 434.186 952.069 451.197 951.214 453.198C949.965 450.257 946.373 442.82 938.044 437.349C930.689 432.528 923.505 431.741 920.272 431.604C907.872 433.246 888.544 434.289 865.83 429.194C845.407 424.612 829.757 416.748 819.563 410.593C849.752 413.243 880.146 413.294 910.335 410.73C914.884 410.353 920.341 409.242 921.897 404.951C929.987 412.063 941.464 415.123 952.018 413.02C959.971 411.43 968.352 404.797 966.642 396.881C978.427 402.557 993.461 402.609 1003.84 394.676C1014.23 386.743 1017.75 370.125 1009.5 359.987C1022.91 366.894 1038.5 364.466 1047.51 354.755C1055.17 346.497 1057.76 333.316 1053.1 324.973C1045.94 312.116 1019.85 307.517 991.135 321.964C1013.23 303.346 1034.03 295.755 1047.2 292.318C1061.89 288.489 1077.07 284.762 1086.3 293.344C1094.27 300.764 1093.62 313.433 1093.09 318.442C1093.09 313.501 1089.72 309.176 1084.99 307.996C1080.11 306.765 1074.95 309.158 1072.7 313.74C1071.25 333.299 1079.26 349.199 1091.14 353.302C1102.83 357.337 1114.88 348.959 1119.52 345.352C1140.33 329.179 1149.98 299.96 1142.87 274.572C1138.45 258.775 1127.69 245.08 1113.94 236.276C1110.5 234.07 1106.86 232.155 1103.08 230.599C1099.88 229.283 1094.02 228.958 1091.37 227.043C1090.24 226.24 1089.64 225.607 1089.4 225.026C1099.52 221.743 1110.49 219.948 1121.91 219.948C1155.11 219.948 1184.24 235.062 1200.83 257.817C1207.84 264.964 1216.05 274.555 1223.82 286.813C1231.67 299.174 1236.85 310.8 1240.31 320.254Z" fill="#E3F5FF"/>
<path d="M693.762 262.946C691.128 272.127 688.169 281.855 680.951 288.095C676.453 291.959 670.723 294.079 665.027 295.737C651.737 299.584 636.429 301.003 624.952 293.293C625.79 298.815 623.088 304.405 619.086 308.303C615.083 312.184 609.918 314.612 604.735 316.715C596.576 320.032 587.734 322.733 579.062 321.16C570.39 319.604 562.146 312.578 561.975 303.773C553.029 309.004 541.894 311.244 532.162 307.722C522.413 304.217 514.87 294.062 516.272 283.804C508.199 291.617 495.73 292.386 484.544 291.497C473.837 290.643 465.713 285.223 461.864 274.897C452.029 248.551 467.081 223.419 488.102 208.032C495.457 202.646 503.752 198.56 512.492 195.944C512.15 198.235 511.706 200.492 511.175 202.732C518.12 198.355 526.347 195.808 535.173 195.808C543.177 195.808 550.669 197.893 557.186 201.552C557.254 200.39 557.357 199.21 557.476 198.064C559.153 199.09 560.777 200.219 562.402 201.347C577.471 211.793 593.036 222.94 602.631 238.327C597.209 230.651 588.435 225.333 579.199 223.077C567.824 220.273 555.8 221.572 544.443 224.41C537.978 226.017 531.632 228.137 525.492 230.702C522.105 232.121 518.701 233.728 516.118 236.344C513.536 238.942 511.877 242.755 512.715 246.328C521.13 255.663 535.84 258.655 547.248 253.355C545.503 259.082 547.744 265.801 552.585 269.323C555.663 271.58 559.478 272.52 563.24 273.153C581.32 276.213 600.408 273.016 616.503 264.228C620.078 272.862 631.178 274.88 640.5 275.666C653.397 276.743 667.183 277.649 678.488 271.358C683.585 268.52 688.067 264.263 693.762 262.946Z" fill="#E3F5FF"/>
<path d="M1440 405.771V590.501C1431.47 590.979 1422.31 586.585 1416.98 578.003C1420.54 598.912 1413.32 618.368 1399.05 626.455C1384.91 634.49 1368.4 628.729 1365.02 627.446C1346.63 620.505 1345.82 606.247 1328.65 597.049C1320.49 592.672 1307.58 588.876 1287.33 592.757C1284.32 588.945 1270.19 571.968 1246.67 569.626C1222.67 567.232 1198.54 581.063 1185.95 604.657C1183.66 602.776 1160.52 584.483 1130.33 592.415C1101.7 599.955 1090.32 624.882 1088.95 627.993C1070.77 624.694 1041.8 622.369 1009.9 633.14C1001.4 636.012 993.838 639.414 987.202 642.97C983.593 639.551 978.478 635.533 971.671 632.387C954.088 624.266 937.309 627.515 931.014 629.105C932.896 627.549 951.009 612.384 947.537 600.69C944.202 589.458 921.111 581.815 890.512 589.68C920.94 562.565 972.8 564.445 1001.18 593.715C1040.96 565.898 1094.1 558.205 1140.16 573.558C1142.15 559.641 1154.99 549.007 1168.8 546.186C1182.57 543.365 1196.95 547.041 1209.8 552.785C1205.64 529.517 1224.39 504.761 1247.92 502.436C1262.87 500.983 1281.24 506.146 1290.66 494.452C1298.77 484.399 1293.33 469.593 1287.64 458.019C1302.48 467.49 1323.26 465.114 1336.88 453.984C1349.5 443.658 1355.97 426.954 1355.52 410.644C1357.97 428.784 1379.84 441.093 1398.45 437.571C1416.09 434.22 1430.03 420.97 1440 405.771Z" fill="#E3F5FF"/>
</g>
<defs>
<clipPath id="clip0_78_72">
<rect width="1440" height="2069.36" fill="white"/>
</clipPath>
</defs>
</svg>
