<svg width="1440" height="920" viewBox="0 0 1440 920" fill="none" xmlns="http://www.w3.org/2000/svg">
<g clip-path="url(#clip0_78_54)">
<path d="M718.538 407.605C744.241 407.605 765.078 363.856 765.078 309.89C765.078 255.923 744.241 212.175 718.538 212.175C692.835 212.175 671.998 255.923 671.998 309.89C671.998 363.856 692.835 407.605 718.538 407.605Z" fill="#E3F5FF"/>
<path d="M1438.43 0.222352C1435.95 0.564431 1433.48 0.99203 1431.05 1.50515C1430.23 1.67619 1429.43 1.86433 1428.63 2.05248C1427.82 2.24062 1427.02 2.42876 1426.23 2.63401C1425.43 2.83926 1424.64 3.06161 1423.85 3.28396C1422.96 3.52342 1422.08 3.77998 1421.19 4.07074C1420.74 4.20758 1420.31 4.34441 1419.89 4.48124C1418.86 4.80621 1417.85 5.14829 1416.84 5.52458C1416.07 5.79824 1415.32 6.08901 1414.55 6.37978C1413.8 6.65344 1413.04 6.94421 1412.31 7.26919C1412.29 7.25208 1412.29 7.25208 1412.27 7.26919C1411.52 7.55995 1410.79 7.88493 1410.05 8.2099C1409.32 8.53488 1408.56 8.87696 1407.84 9.20193C1407.11 9.54401 1406.37 9.9032 1405.66 10.2453C1404.92 10.6045 1404.2 10.9636 1403.48 11.3399C1402.78 11.7162 1402.06 12.0925 1401.36 12.4688C1400.64 12.8622 1399.94 13.2556 1399.26 13.649C1398.56 14.0595 1397.87 14.4529 1397.17 14.8805C1396.49 15.2909 1395.8 15.7185 1395.14 16.1461C1394.42 16.5908 1393.7 17.0527 1393 17.5316C1392.38 17.9592 1391.75 18.3868 1391.13 18.8144C1390.36 19.3446 1389.61 19.8919 1388.86 20.4563C1387.03 21.7905 1385.27 23.1759 1383.52 24.6468C1382.91 25.1599 1382.31 25.6731 1381.71 26.2033C1381.25 26.6138 1380.8 27.0072 1380.36 27.4177C1378.1 29.4359 1375.93 31.591 1373.84 33.8145C1373.14 34.5842 1372.44 35.3368 1371.76 36.1236C1371.05 36.9104 1370.39 37.6971 1369.72 38.501C1369.29 38.997 1368.88 39.5102 1368.47 40.0233C1367.92 40.7074 1367.38 41.3916 1366.86 42.0929C1366.15 43.0336 1365.44 43.9743 1364.76 44.9321C1364.06 45.8899 1363.39 46.8649 1362.74 47.8569C1362.26 48.5753 1361.78 49.3107 1361.32 50.0462C1361.05 50.4738 1360.77 50.9014 1360.52 51.329C1359.99 52.1671 1359.49 53.0223 1359 53.8946C1358.59 54.5788 1358.19 55.28 1357.82 55.9984C1356 59.2995 1354.36 62.7031 1352.91 66.2095C1352.68 66.7397 1352.46 67.2699 1352.26 67.8001C1351.5 69.6474 1350.8 71.5459 1350.17 73.4615C1349.96 74.026 1349.79 74.5904 1349.61 75.1719C1348.22 79.5163 1347.11 83.9805 1346.29 88.5472C1346.15 89.2143 1346.03 89.8984 1345.93 90.5826C1345.62 92.4469 1345.36 94.3284 1345.16 96.244C1345.09 96.8427 1345.02 97.4584 1344.97 98.0741C1344.65 101.427 1344.49 104.847 1344.49 108.285C1344.49 122.55 1347.25 136.165 1352.22 148.651C1337.98 148.907 1326.45 160.23 1325.83 174.409C1307.85 177.094 1292.09 183.012 1280.56 190.846C1273.44 188.794 1265.92 187.665 1258.15 187.665C1213.73 187.665 1177.71 223.669 1177.71 268.088C1177.71 280.266 1180.45 291.811 1185.29 302.159C1182.89 301.457 1180.34 301.064 1177.71 301.064C1166.88 301.064 1157.56 307.478 1153.29 316.714C1145.04 307.598 1133.12 301.868 1119.87 301.868C1119.16 301.868 1118.48 301.885 1117.8 301.919C1117.33 301.936 1116.87 301.971 1116.43 302.005C1116.07 302.022 1115.73 302.056 1115.37 302.09C1115.21 302.107 1115.08 302.124 1114.94 302.142C1114.43 302.193 1113.91 302.261 1113.4 302.33C1113.02 302.381 1112.65 302.449 1112.27 302.518C1111.78 302.586 1111.26 302.689 1110.78 302.792C1110.13 302.911 1109.48 303.065 1108.85 303.236C1108.68 303.27 1108.51 303.305 1108.35 303.356C1107.7 303.527 1107.07 303.698 1106.46 303.903C1105.77 304.109 1105.1 304.331 1104.44 304.57C1102.45 305.289 1100.54 306.144 1098.71 307.136C1098.37 307.307 1098.04 307.495 1097.72 307.683C1097.34 307.888 1096.96 308.094 1096.6 308.333C1096.45 308.419 1096.3 308.504 1096.14 308.607C1095.73 308.863 1095.32 309.12 1094.93 309.394C1094.71 309.53 1094.5 309.684 1094.28 309.838C1093.97 310.044 1093.66 310.249 1093.37 310.488C1093.06 310.694 1092.74 310.933 1092.43 311.19C1092.23 311.326 1092 311.497 1091.8 311.686C1091.49 311.925 1091.18 312.182 1090.87 312.438C1090.82 312.472 1090.75 312.524 1090.7 312.575C1080.95 320.836 1074.76 333.185 1074.76 346.971C1074.76 351.401 1075.39 355.66 1076.59 359.696C1063.75 353.607 1049.41 350.204 1034.28 350.204C1025.14 350.204 1016.3 351.435 1007.92 353.761C966.049 365.289 935.296 403.654 935.296 449.167C935.296 456.111 936.032 462.885 937.417 469.418C937.965 472.155 938.649 474.84 939.435 477.491C933.774 474.225 927.223 472.343 920.228 472.343C915.918 472.343 911.778 473.079 907.896 474.379C906.066 467.486 903.038 461.003 899.019 455.171C888.534 439.965 871.31 429.002 851.145 425.786C855.677 422.16 858.585 416.601 858.585 410.358C858.585 399.446 849.742 390.62 838.847 390.62C838.334 390.62 837.838 390.655 837.342 390.689C839.6 387.49 840.934 383.591 840.934 379.366C840.934 369.292 833.391 360.996 823.642 359.799C823.642 359.44 823.676 359.098 823.676 358.739C823.676 329.166 799.713 305.203 770.14 305.203C769.627 305.203 769.097 305.203 768.584 305.237C768.242 305.237 767.9 305.254 767.558 305.272C766.822 305.306 766.087 305.357 765.368 305.426C765.249 305.426 765.129 305.443 765.026 305.443C764.941 305.46 764.855 305.46 764.787 305.477C764.513 305.511 764.222 305.528 763.949 305.562C763.333 305.631 762.717 305.716 762.119 305.802C761.605 305.887 761.092 305.973 760.579 306.058C759.878 306.195 759.177 306.332 758.475 306.486C758.219 306.537 757.945 306.606 757.672 306.674C756.987 306.828 756.32 307.016 755.653 307.204C755.226 307.324 754.815 307.444 754.388 307.581C753.43 307.854 752.489 308.179 751.565 308.538C751.018 308.727 750.471 308.949 749.924 309.171C749.325 309.411 748.743 309.667 748.145 309.941C747.597 310.18 747.033 310.454 746.486 310.728C745.938 310.984 745.391 311.275 744.861 311.566C743.783 312.13 742.723 312.746 741.696 313.396C736.89 303.305 729.022 294.941 719.29 289.536C711.594 285.26 702.751 282.831 693.344 282.831C690.59 282.831 687.887 283.036 685.253 283.43C684.655 283.515 684.056 283.618 683.457 283.738L682.175 283.994C681.388 284.165 680.601 284.353 679.831 284.559C678.634 284.849 677.471 285.209 676.308 285.602C676.069 285.688 675.829 285.756 675.59 285.841C674.837 286.098 674.084 286.389 673.349 286.697C672.118 287.176 670.903 287.723 669.723 288.322C668.543 288.903 667.397 289.519 666.268 290.186C665.704 290.511 665.139 290.853 664.592 291.212C662.368 292.615 660.282 294.171 658.315 295.899C658.075 296.104 657.836 296.309 657.613 296.514C656.604 297.404 655.629 298.344 654.706 299.319C654.569 299.456 654.432 299.61 654.295 299.764C652.26 301.919 650.43 304.228 648.805 306.674C648.651 306.896 648.514 307.119 648.36 307.341C648.24 307.512 648.121 307.7 648.035 307.871C647.727 308.316 647.454 308.778 647.18 309.257C646.051 311.155 645.059 313.122 644.17 315.158C643.879 315.842 643.588 316.543 643.332 317.244C643.297 317.33 643.263 317.398 643.246 317.467C643.024 318.048 642.818 318.613 642.63 319.194C642.528 319.485 642.425 319.793 642.339 320.084C642.186 320.528 642.049 320.973 641.929 321.418C641.844 321.657 641.775 321.897 641.724 322.153C641.365 323.453 641.057 324.753 640.8 326.087C640.749 326.361 640.68 326.652 640.646 326.925C640.441 328.037 640.287 329.149 640.167 330.278C640.099 330.757 640.048 331.235 640.013 331.714C639.945 332.484 639.894 333.254 639.859 334.023C639.825 334.793 639.808 335.58 639.808 336.367C639.808 339.651 640.116 342.866 640.68 345.979C625.082 359.936 615.264 380.221 615.264 402.798C615.264 403.158 615.315 403.517 615.315 403.893C610.235 401.618 604.608 400.353 598.69 400.353C576.045 400.353 557.692 418.705 557.692 441.351C557.692 447.508 559.077 453.324 561.523 458.574C533.575 458.882 510.553 476.534 506.637 499.504C506.26 501.762 506.055 504.088 506.055 506.448C506.055 506.927 506.089 507.389 506.089 507.868C499.761 509.527 493.792 512.059 488.301 515.36C488.609 512.161 488.78 508.929 488.78 505.645C488.78 450.997 444.481 406.681 389.817 406.681C382.992 406.681 376.356 407.365 369.925 408.682C373.91 402.302 376.39 394.896 376.869 386.96C376.937 386.002 376.971 385.044 376.971 384.07C376.971 358.362 356.139 337.53 330.432 337.53C328.345 337.53 326.292 337.684 324.291 337.94C329.474 330.876 333.955 322.957 337.496 314.285C356.72 267.369 341.344 216.656 303.134 201.006C280.026 191.53 253.857 197.106 232.528 213.355C230.579 206 223.891 200.578 215.903 200.578C208.275 200.578 201.827 205.538 199.552 212.414C188.691 195.362 169.637 184.039 147.932 184.039C142.1 184.039 136.455 184.877 131.119 186.399C130.982 177.009 123.337 169.432 113.912 169.432C113.091 169.432 112.288 169.5 111.501 169.62C117.607 161.735 121.267 151.866 121.267 141.125C121.267 115.418 100.417 94.5849 74.7272 94.5849C69.921 94.5849 65.2858 95.3204 60.9414 96.6716C56.1352 98.1597 51.6711 100.4 47.6687 103.257C43.8033 106.01 40.3825 109.363 37.5261 113.143C34.054 100.537 22.543 91.2839 8.82563 91.2839C5.76402 91.2839 2.80504 91.7457 0.0170898 92.6009V919.954H1440V0C1439.47 0.0684159 1438.96 0.136832 1438.43 0.222352ZM775.066 460.986C774.981 461.14 774.895 461.311 774.81 461.465C774.673 461.174 774.536 460.901 774.399 460.627L775.066 460.986Z" fill="#E3F5FF"/>
<path d="M859.714 612.527C853.711 614.272 847.485 616.153 842.884 620.378C841.088 622.037 837.205 650.857 833.391 685.441C827.525 738.481 821.795 805.135 823.796 808.316C804.024 803.886 783.55 803.989 763.282 804.143C739.114 804.314 714.946 804.468 690.778 804.639C647.112 807.068 603.428 808.829 559.728 810.061C439.333 813.499 318.784 813.123 198.355 812.746C132.761 812.541 66.9796 812.336 1.59114 807.803C1.06092 807.769 0.547801 807.735 0.0175781 807.701V305.101C0.530697 305.87 1.04382 306.606 1.59114 307.341C4.29357 310.984 7.4236 314.337 10.8273 317.279C25.2972 329.73 44.2142 335.751 62.9944 339.137C56.9567 347.467 52.7833 357.182 50.9361 367.308C49.7388 374.012 49.5336 381.025 51.415 387.576C55.5884 402.234 69.682 412.394 84.477 416.003C99.289 419.595 114.837 417.747 129.888 415.404C135.002 414.583 140.27 413.728 145.384 414.72C146.77 414.994 148.104 415.404 149.387 415.917C195.242 419.56 231.297 457.907 231.297 504.67C231.297 512.845 230.169 520.764 228.116 528.29C234.513 525.468 241.577 523.877 249.034 523.877C277.102 523.877 299.936 546.164 300.876 574.009C309.702 569.904 320.751 567.458 332.741 567.458C343.961 567.458 354.172 572.863 364.845 571.358C374.594 569.973 384.994 562.481 392.075 556.084C407.639 542.025 417.371 520.936 415.507 499.795C416.294 508.672 425.291 518.9 431.465 524.63C438.991 531.591 448.124 536.757 457.874 539.835C467.589 542.897 478.022 543.923 488.113 542.401C493.108 541.631 498.034 540.246 502.669 538.193C504.533 537.355 507.287 535.098 509.357 535.337H509.408C509.921 535.405 510.52 535.662 511.135 536.038C512.145 536.859 513.154 537.612 514.18 538.313C514.18 538.313 514.197 538.33 514.231 538.347C515.514 539.408 516.763 540.502 517.755 541.033C519.533 541.991 521.415 542.829 523.331 543.513C527.949 545.223 532.875 546.13 537.801 546.386C548.627 546.968 559.403 544.471 569.734 541.135C583.708 536.62 597.545 530.189 607.362 519.276C617.18 508.364 622.174 492.15 616.667 478.535C624.877 488.746 638.594 494.647 651.474 492.269C664.336 489.892 675.436 478.654 676.411 465.587C677.369 452.52 667.089 439.264 654.056 438.067C661.89 429.207 673.777 424.11 685.579 424.538C689.667 424.674 693.806 425.478 697.363 427.497C708.19 433.637 710.123 448.141 710.824 460.558C721.429 457.052 733.35 463.175 739.798 472.275C746.281 481.374 748.402 492.782 749.873 503.849C750.882 511.58 751.908 519.892 757.159 525.639C764.137 533.216 775.956 533.541 786.133 531.899C797.422 530.069 808.437 526.494 818.665 521.312C804.434 536.928 800.552 561.147 809.223 580.406C817.878 599.648 838.608 612.835 859.714 612.527Z" fill="#C5EFFF"/>
<path d="M203.657 320.272C203.127 324.548 202.118 328.721 200.784 332.792C201.981 322.683 199.706 312.062 194.045 303.578C183.543 287.825 163.07 280.009 144.375 282.968C125.68 285.927 109.226 298.772 100.127 315.363C104.831 301.885 102.197 286.098 93.371 274.861C84.5454 263.64 69.8189 257.346 55.6226 258.732C59.7617 249.837 60.5485 239.438 57.7606 230.031C52.0821 210.823 32.6348 198.286 12.914 194.814C8.63798 194.061 4.32778 193.651 0.0175781 193.531V92.6007C2.80552 91.7455 5.76451 91.2837 8.82612 91.2837C22.5435 91.2837 34.0545 100.537 37.5266 113.143C40.3829 109.363 43.8037 106.01 47.6692 103.256C44.1629 110.269 41.1184 116.923 40.1606 122.635C35.1662 152.43 57.7435 175.162 59.8131 177.163C75.7026 192.539 94.7907 195.122 101.393 195.703C98.9811 201.057 95.663 210.225 95.5603 221.872C95.509 227.277 95.3038 251.377 109.5 260.562C122.858 269.182 147.043 263.384 164.541 243.047C163.429 244.963 158.161 254.49 161.787 264.615C164.387 271.884 170.253 275.767 173.554 277.956C182.671 283.994 185.921 280.402 192.454 285.14C205.351 294.462 204.085 316.731 203.657 320.272Z" fill="#FFFBFE"/>
<path d="M376.971 384.07C376.971 385.045 376.937 386.002 376.869 386.96C372.045 394.554 367.547 402.354 363.391 410.324C364.622 400.182 360.517 390.244 356.344 380.923C351.692 370.592 345.244 359.047 334.058 357.148C324.479 355.523 315.517 361.783 307.803 367.701C316.423 354.394 322.872 339.702 326.84 324.343C322.957 325.557 319.673 328.499 318.031 332.21C321.007 309.924 318.014 286.851 309.445 266.069C305.237 255.841 299.371 245.801 290.169 239.661C273.988 228.885 249.239 234.564 239.387 251.343C232.699 242.346 215.647 245.955 213.184 256.885C208.36 239.644 193.737 226.439 177.317 219.273C160.897 212.106 142.733 210.174 124.859 209.011C124.551 199.877 121.917 190.572 116.05 183.56C110.184 176.547 100.759 172.203 91.7628 173.776C94.756 159.871 96.073 144.836 91.6943 131.068C87.0763 116.564 77.6349 111.757 66.8081 102.726C64.2938 100.64 62.361 98.6044 60.9414 96.6716C65.2858 95.3204 69.921 94.585 74.7272 94.585C100.417 94.585 121.267 115.418 121.267 141.125C121.267 151.866 117.607 161.735 111.501 169.62C112.288 169.5 113.091 169.432 113.912 169.432C123.337 169.432 130.982 177.009 131.119 186.399C136.455 184.877 142.1 184.039 147.932 184.039C169.637 184.039 188.691 195.362 199.552 212.414C201.827 205.538 208.275 200.578 215.903 200.578C223.891 200.578 230.579 206 232.528 213.355C253.857 197.106 280.026 191.53 303.134 201.006C341.344 216.656 356.72 267.369 337.495 314.285C333.955 322.957 329.474 330.876 324.291 337.94C326.292 337.684 328.345 337.53 330.432 337.53C356.139 337.53 376.971 358.362 376.971 384.07Z" fill="#FFFBFE"/>
<path d="M652.91 312.729C650.156 319.365 649.369 326.925 651.028 333.955C651.764 337.085 653.03 341.258 655.287 343.687C656.656 345.141 663.514 349.502 665.567 349.229C658.537 350.152 651.439 351.332 644.888 354.052C638.337 356.771 632.265 361.167 628.725 367.325C626.775 370.711 625.663 374.525 624.808 378.34C622.909 386.823 622.277 395.58 622.961 404.252C631.119 403.653 639.295 403.072 647.454 402.49C627.699 404.013 609.928 419.919 606.25 439.401C603.839 433.295 605.121 425.906 609.449 420.98C596.98 419.663 585.127 428.728 579.944 440.136C574.779 451.545 575.138 464.715 577.242 477.064C561.25 471.967 543.855 476.123 528.068 481.836C523.125 483.632 518.131 485.633 513.991 488.883C510.554 491.585 507.714 495.314 506.637 499.504C510.554 476.533 533.575 458.882 561.523 458.574C559.077 453.323 557.692 447.508 557.692 441.351C557.692 418.705 576.045 400.352 598.69 400.352C604.608 400.352 610.235 401.618 615.315 403.893C615.315 403.517 615.264 403.157 615.264 402.798C615.264 380.221 625.082 359.936 640.68 345.979C640.116 342.866 639.808 339.65 639.808 336.366C639.808 309.565 659.529 287.329 685.253 283.43C681.696 285.003 678.224 286.765 674.888 288.783C665.464 294.496 657.135 302.552 652.91 312.729Z" fill="#FFFBFE"/>
<path d="M899.019 455.171C879.52 442.736 855.558 437.263 832.587 440.359C842.867 430.935 847.519 415.781 844.303 402.217C844.081 401.276 843.79 400.301 843.123 399.6C842.371 398.848 841.259 398.557 840.216 398.317C836.897 397.548 833.596 396.778 830.278 396.008C834.571 385.814 827.388 372.559 816.527 370.592C816.629 380.392 812.268 390.142 804.896 396.607C806.076 388.004 807.273 379.246 805.905 370.66C804.554 362.074 800.261 353.539 792.769 349.126C785.432 344.799 776.247 345.056 767.883 346.732C772.689 343.465 777.837 340.403 783.567 339.446C789.297 338.488 795.762 340.027 799.371 344.577C796.686 331.304 783.755 321.914 770.414 319.554C757.073 317.21 743.407 320.546 730.511 324.719C733.264 312.113 728.749 298.225 719.291 289.536C729.023 294.941 736.891 303.305 741.697 313.396C749.941 308.214 759.69 305.203 770.141 305.203C799.713 305.203 823.676 329.166 823.676 358.739C823.676 359.098 823.642 359.44 823.642 359.799C833.391 360.997 840.934 369.292 840.934 379.366C840.934 383.591 839.6 387.491 837.342 390.689C837.838 390.655 838.334 390.621 838.847 390.621C849.742 390.621 858.585 399.446 858.585 410.359C858.585 416.601 855.678 422.16 851.145 425.786C871.311 429.002 888.534 439.966 899.019 455.171Z" fill="#FFFBFE"/>
<path d="M726.644 394.742C729.757 391.954 733.794 390.466 737.762 389.132C744.466 386.874 752.026 384.942 758.372 388.02C760.972 389.286 763.11 391.287 765.179 393.306C767.198 395.29 769.199 397.359 770.618 399.822C772.876 403.739 773.475 408.374 774.039 412.855C777.87 412.582 781.873 412.77 785.294 414.497C788.714 416.225 791.434 419.8 791.177 423.631C795.163 422.194 799.25 420.757 803.492 420.689C806.246 420.638 809 421.185 811.617 422.109C818.048 424.366 823.624 428.967 827.079 434.834C830.534 440.701 831.834 447.816 830.688 454.538C829.234 449.509 826.805 444.754 823.555 440.649C822.084 438.785 820.425 437.04 818.441 435.723C816.354 434.338 813.96 433.466 811.548 432.747C806.93 431.379 802.004 430.524 797.301 431.601C792.597 432.662 788.184 435.997 786.953 440.649C784.336 434.372 776.81 431.704 770.02 431.276C765.778 431.003 761.382 431.362 757.551 433.209C753.72 435.056 750.521 438.58 749.905 442.787C747.408 437.844 740.379 435.894 735.675 438.819C739.044 435.039 740.772 429.857 740.379 424.811C740.259 423.289 739.917 421.715 738.976 420.518C738.07 419.355 736.701 418.671 735.333 418.141C731.673 416.704 727.687 416.105 723.754 416.413C729.483 415.968 723.48 409.093 722.796 407.348C721.085 402.986 723.394 397.667 726.644 394.742Z" fill="#C5EFFF"/>
<path d="M1440 0V112.373C1438.44 108.918 1436.61 105.566 1434.54 102.384C1426.97 90.7023 1414.6 80.5426 1400.71 81.4833C1389.63 82.2359 1380.1 89.9498 1373.65 98.9978C1353.73 126.963 1360.4 170.304 1387.8 190.983C1377.09 184.586 1362.81 184.672 1352.21 191.222C1341.58 197.773 1335.1 210.481 1336.02 222.933C1326.29 210.43 1303.49 212.517 1296.19 226.593C1291.09 208.036 1267.4 198.132 1249.7 205.658C1232 213.201 1222.52 234.906 1226.83 253.669C1231.13 272.432 1247.41 287.21 1266 292.204C1269.7 293.196 1273.58 293.897 1276.74 296.07C1279.62 298.037 1281.62 301.047 1284.22 303.373C1288.48 307.153 1294.19 308.915 1299.85 309.462C1317.43 311.172 1335.58 301.098 1343.41 285.26C1352.27 294.393 1366.35 298.071 1378.53 294.393C1360.19 305.699 1339.41 321.691 1341.75 343.088C1300.28 327.746 1254.83 323.282 1211.17 330.278C1210.17 317.33 1193.86 311.686 1180.93 312.883C1169.62 313.926 1158.33 317.946 1150.05 325.711C1141.77 333.493 1136.97 345.329 1139.14 356.464C1130.37 345.175 1112.82 341.925 1100.59 349.314C1088.34 356.703 1083.04 373.722 1088.92 386.755C1086.96 382.376 1077.28 377.536 1073.32 375.004C1067.94 371.549 1061.57 367.085 1055.25 365.956C1041.84 363.562 1024.56 363.904 1011.72 368.642C1005.8 370.814 1000.36 374.098 995.108 377.57C983.272 385.369 971.984 394.281 963.346 405.518C954.709 416.755 948.876 430.541 948.979 444.703C949.047 455.222 952.331 465.416 955.581 475.422C958.763 485.188 961.944 494.955 965.125 504.738C954.931 493.723 944.6 482.486 937.417 469.418C936.031 462.885 935.296 456.111 935.296 449.167C935.296 403.654 966.049 365.289 1007.92 353.761C1016.3 351.435 1025.14 350.204 1034.28 350.204C1049.41 350.204 1063.75 353.607 1076.59 359.696C1075.39 355.66 1074.76 351.401 1074.76 346.971C1074.76 333.185 1080.95 320.836 1090.7 312.575C1090.75 312.524 1090.82 312.472 1090.87 312.438C1091.18 312.182 1091.49 311.925 1091.8 311.686C1092 311.497 1092.22 311.326 1092.43 311.19C1092.74 310.933 1093.06 310.694 1093.37 310.488C1093.66 310.249 1093.97 310.044 1094.28 309.838C1094.5 309.684 1094.7 309.53 1094.93 309.394C1095.32 309.12 1095.73 308.863 1096.14 308.607C1096.3 308.504 1096.45 308.419 1096.6 308.333C1096.96 308.094 1097.34 307.888 1097.72 307.683C1098.04 307.495 1098.37 307.307 1098.71 307.136C1100.54 306.144 1102.45 305.289 1104.44 304.57C1105.1 304.331 1105.77 304.109 1106.46 303.903C1107.07 303.698 1107.7 303.527 1108.35 303.356C1108.51 303.305 1108.68 303.27 1108.85 303.236C1109.48 303.065 1110.13 302.911 1110.78 302.792C1111.26 302.689 1111.77 302.586 1112.27 302.518C1112.65 302.449 1113.02 302.381 1113.4 302.33C1113.91 302.261 1114.43 302.193 1114.94 302.142C1115.08 302.124 1115.21 302.107 1115.37 302.09C1115.73 302.056 1116.07 302.022 1116.43 302.005C1116.87 301.971 1117.33 301.936 1117.8 301.919C1118.48 301.885 1119.16 301.868 1119.86 301.868C1133.12 301.868 1145.04 307.598 1153.29 316.714C1157.56 307.478 1166.88 301.064 1177.71 301.064C1180.34 301.064 1182.89 301.457 1185.29 302.159C1180.45 291.811 1177.71 280.266 1177.71 268.088C1177.71 223.669 1213.73 187.665 1258.15 187.665C1265.92 187.665 1273.44 188.794 1280.56 190.846C1292.08 183.012 1307.85 177.094 1325.83 174.409C1326.45 160.23 1337.97 148.907 1352.22 148.651C1347.24 136.165 1344.49 122.55 1344.49 108.285C1344.49 52.6118 1386.16 6.70475 1440 0Z" fill="#FFFBFE"/>
<path d="M347.844 452.041C342.251 458.899 332.33 461.841 323.915 459.122C326.566 458.643 327.678 462.56 326.857 465.125C325.13 470.616 319.964 474.635 314.32 475.849C308.676 477.064 302.723 475.815 297.558 473.267C287.826 468.495 280.642 459.412 276.503 449.39C272.364 439.367 271.013 428.403 270.688 417.559C262.136 434.492 269.336 457.599 285.979 466.699C275.528 467.314 265.249 470.445 256.218 475.747C254.37 476.824 252.369 478.364 252.386 480.519C261.366 477.372 271.97 479.339 279.205 485.53C286.44 491.722 290.049 501.882 288.339 511.255C296.515 512.332 304.673 507.765 312.849 508.86C321.196 509.989 327.541 516.642 333.151 522.902C335.597 525.622 338.214 528.82 337.855 532.464C341.498 515.103 347.655 498.273 356.105 482.674C358.174 478.843 360.449 474.994 363.802 472.189C367.992 468.666 373.465 467.109 378.802 465.844C384.001 464.612 389.629 463.586 394.537 465.69C399.446 467.793 402.747 474.327 399.669 478.689C407.314 471.334 416.448 463.432 426.984 464.561C406.544 459.72 387.251 450.159 371.037 436.818C367.599 433.996 352.154 418.226 349.947 423.99C348.955 426.573 352.274 433.072 352.53 435.86C353.077 441.641 351.521 447.508 347.844 452.041Z" fill="#C5EFFF"/>
<path d="M1126.57 432.457C1127.84 432.73 1129.12 433.004 1130.38 433.278C1129.1 433.141 1127.84 432.867 1126.57 432.457Z" fill="#C5EFFF"/>
<path d="M1440 339.411V833.647C1439.47 833.699 1438.96 833.75 1438.43 833.801C1430.73 834.503 1422.97 834.691 1415.23 834.862C1338.16 836.641 1261.01 838.402 1183.9 838.402C1177.83 838.402 1171.76 838.385 1165.7 838.368C1153.1 838.317 1140.49 838.231 1127.9 838.06C1109.76 837.838 1091.61 837.496 1073.48 837C1066.93 836.829 1060.4 836.623 1053.84 836.401C1010.02 834.964 966.238 832.621 922.503 829.046C920.416 819.28 919.749 751.514 922.144 693.822C922.161 693.292 922.195 692.779 922.212 692.266C923.991 650.515 927.412 614.374 933.073 609.842C941.933 602.744 953.461 599.255 964.801 599.734C970.753 599.973 976.654 601.324 982.093 603.821C991.329 589.061 997.47 569.938 1018.08 569.049C1019.84 568.981 1036.64 567.835 1037.05 568.536C1030.89 558.085 1029.86 544.761 1034.35 533.49C1040.88 550.953 1058.29 563.815 1076.92 564.893C1078.1 549.55 1088.26 535.234 1102.35 529.077C1093.2 533.353 1084.7 523.159 1084.7 514.744C1084.7 506.38 1092.07 499.008 1098.84 495.16C1106.44 490.833 1115.13 488.866 1123.22 485.53C1131.19 482.263 1139.21 477.184 1142.51 468.82C1147.01 457.429 1140.78 444.857 1134.73 434.201C1133.28 433.893 1131.84 433.586 1130.38 433.278C1144.29 434.783 1158.62 420.587 1155.7 406.493C1152.48 391.082 1130.35 383.813 1118.63 394.298C1114.17 398.283 1110.54 404.423 1104.57 404.663C1110.2 385.883 1127.85 373.705 1144.32 363.066C1150.04 359.354 1156.3 355.506 1163.1 356.002C1167.53 356.31 1171.62 358.465 1175.27 360.979C1187.73 369.531 1196.71 382.958 1199.93 397.736C1197.36 388.123 1186.14 381.504 1176.53 384.343C1176.68 403.825 1191.43 421.151 1209.42 428.591C1227.42 436.031 1247.92 434.988 1266.84 430.336C1272.88 428.848 1278.95 426.949 1284.03 423.34C1301.1 411.248 1300.62 386.225 1298.36 365.426C1304.28 385.848 1328 395.871 1349.26 396.333C1377.61 396.949 1406.15 384.908 1424.83 363.596C1430.29 357.37 1434.85 350.375 1438.43 342.917C1438.97 341.754 1439.5 340.591 1440 339.411Z" fill="#C5EFFF"/>
<path d="M963.945 537.013C970.821 532.498 980.758 532.327 986.865 537.851C988.438 533.9 990.183 529.864 993.244 526.922C996.323 523.98 1001.08 522.406 1004.94 524.185C1005.88 515.513 1011.25 507.423 1018.9 503.198C1026.55 498.974 1036.24 498.734 1044.09 502.549C1043.43 494.219 1041.26 486.06 1040.57 477.731C1039.89 469.401 1040.91 460.473 1045.94 453.802C1050.51 447.73 1057.73 444.344 1064.64 441.197C1056.43 440.701 1048.42 445.455 1043.85 452.297C1039.31 459.139 1037.92 467.759 1038.79 475.935C1024.48 470.393 1006.59 476.619 998.786 489.84C993.569 487.771 987.309 487.908 982.674 491.055C978.022 494.202 975.542 500.564 977.628 505.764C975.388 506.38 973.147 506.996 970.89 507.611C970.103 507.834 969.265 508.073 968.752 508.706C968.17 509.407 968.153 510.382 968.136 511.289C968.119 514.59 968.102 517.891 968.084 521.192C962.166 521.209 956.248 521.243 950.331 521.26C948.689 521.26 947.012 521.277 945.422 521.756C943.609 522.304 942.052 523.432 940.513 524.544C931.721 530.924 922.571 537.697 917.833 547.481C913.198 557.008 913.386 568.074 913.677 578.661C914.481 570.195 918.774 561.865 925.94 557.281C929.583 554.938 933.945 553.741 938.255 553.792C941.744 553.826 946.482 556.648 949.8 555.622C953.341 554.527 953.7 550.012 955.188 547.104C957.241 543.102 960.165 539.51 963.945 537.013Z" fill="#C5EFFF"/>
<path d="M1438.43 512.298C1437.3 511.323 1436.13 510.383 1434.94 509.476C1436.08 510.075 1437.25 510.605 1438.43 511.015C1438.94 511.204 1439.47 511.375 1440 511.529V513.701C1439.49 513.222 1438.96 512.76 1438.43 512.298Z" fill="#8BE0FF"/>
<path d="M1440 612.151V838.402H0V640.714H0.017104C0.547327 640.834 1.04334 640.971 1.57356 641.091C45.7531 651.045 78.2335 599.135 68.8606 557.316C77.8744 597.561 114.562 629.99 155.595 633.993C196.661 637.995 238.908 613.28 255.533 575.548C248.64 599.716 248.23 628.519 265.283 647.009C282.335 665.481 320.443 661.804 325.796 637.242C324.924 644.99 326.07 652.379 328.738 659.272V659.289C337.324 681.422 361.663 698.269 385.831 705.008C413.454 712.688 444.703 711.935 468.871 696.559C487.343 684.791 500.069 663.223 500.274 641.826C500.274 641.809 500.274 641.809 500.274 641.809C500.359 635.207 499.231 628.622 496.716 622.345C505.508 629.169 509.476 641.604 506.26 652.26C526.665 651.199 544.744 633.001 545.685 612.561C546.489 594.807 534.242 577.55 517.72 571.443C562.105 581.244 611.706 564.037 639.894 528.239C623.012 549.396 605.241 573.085 606.182 600.144C606.712 614.853 616.273 629.169 628.519 636.746C636.404 641.638 645.401 643.725 653.799 641.33H653.816C656.348 640.595 658.811 639.466 661.188 637.875C672.528 630.281 677.06 615.349 676.017 601.735C678.822 606.079 682.996 609.397 687.733 611.432C694.626 614.409 702.734 614.716 709.592 611.621C684.124 633.411 687.819 680.156 716.417 697.654C744.997 715.151 788.305 697.175 796.121 664.592C802.056 678.737 818.322 687.442 833.374 685.441H833.391C835.358 685.185 837.29 684.74 839.189 684.107C842.952 652.619 879.537 629.665 909.555 639.962C918.962 656.211 923.358 675.333 921.921 694.045L922.143 693.822C922.673 693.309 923.204 692.779 923.768 692.266C950.365 667.208 991.089 658.109 1025.81 669.689C1040.06 674.443 1054.07 682.482 1069 680.823C1072.81 680.396 1076.32 679.421 1079.52 677.95C1103.41 667.055 1110.12 629.597 1102.32 601.957C1117.78 621.336 1146.09 629.306 1169.38 620.823C1192.69 612.322 1209.25 588.034 1208.63 563.233C1252.23 592.567 1312.13 595.577 1358.47 570.811C1356.11 596.86 1379.37 621.661 1405.48 623.046C1417.88 623.713 1430.01 619.506 1439.98 612.168C1439.98 612.168 1440 612.168 1440 612.151Z" fill="#8BE0FF"/>
</g>
<defs>
<clipPath id="clip0_78_54">
<rect width="1440" height="919.954" fill="white"/>
</clipPath>
</defs>
</svg>
