<svg width="1488" height="2068" viewBox="0 0 1488 2068" fill="none" xmlns="http://www.w3.org/2000/svg">
<path d="M733.071 410.639C761.382 410.639 784.333 366.674 784.333 312.441C784.333 258.207 761.382 214.242 733.071 214.242C704.76 214.242 681.809 258.207 681.809 312.441C681.809 366.674 704.76 410.639 733.071 410.639Z" fill="#E3F5FF"/>
<path d="M1529.22 1.22345C1526.48 1.56722 1523.76 1.99694 1521.08 2.5126C1520.17 2.68449 1519.29 2.87356 1518.4 3.06264C1517.51 3.25171 1516.62 3.44079 1515.76 3.64705C1514.87 3.85331 1514 4.07676 1513.13 4.30022C1512.15 4.54086 1511.17 4.79869 1510.19 5.09089C1509.7 5.2284 1509.22 5.36591 1508.75 5.50342C1507.62 5.83 1506.51 6.17378 1505.39 6.55193C1504.54 6.82694 1503.71 7.11915 1502.86 7.41136C1502.03 7.68638 1501.2 7.97858 1500.39 8.30517C1500.37 8.28798 1500.37 8.28798 1500.35 8.30517C1499.52 8.59737 1498.71 8.92396 1497.9 9.25054C1497.09 9.57713 1496.26 9.9209 1495.46 10.2475C1494.65 10.5913 1493.84 10.9522 1493.05 11.296C1492.23 11.6569 1491.44 12.0179 1490.65 12.3961C1489.87 12.7742 1489.08 13.1524 1488.31 13.5305C1487.51 13.9258 1486.74 14.3212 1485.99 14.7165C1485.21 15.1291 1484.46 15.5244 1483.68 15.9541C1482.93 16.3666 1482.17 16.7963 1481.44 17.2261C1480.64 17.673 1479.85 18.1371 1479.08 18.6183C1478.4 19.0481 1477.7 19.4778 1477.02 19.9075C1476.17 20.4403 1475.34 20.9904 1474.51 21.5576C1472.49 22.8983 1470.54 24.2906 1468.62 25.7688C1467.94 26.2845 1467.28 26.8001 1466.62 27.333C1466.11 27.7455 1465.62 28.1408 1465.13 28.5534C1462.63 30.5816 1460.24 32.7474 1457.93 34.9819C1457.16 35.7554 1456.39 36.5117 1455.63 37.3024C1454.86 38.0931 1454.12 38.8837 1453.38 39.6916C1452.91 40.1901 1452.46 40.7057 1452.01 41.2214C1451.4 41.9089 1450.8 42.5965 1450.23 43.3012C1449.44 44.2466 1448.66 45.192 1447.91 46.1545C1447.14 47.1171 1446.4 48.0968 1445.68 49.0938C1445.15 49.8157 1444.62 50.5548 1444.12 51.2939C1443.81 51.7236 1443.51 52.1534 1443.23 52.5831C1442.64 53.4253 1442.1 54.2847 1441.55 55.1614C1441.09 55.8489 1440.66 56.5536 1440.25 57.2756C1438.24 60.593 1436.43 64.0135 1434.83 67.5372C1434.58 68.07 1434.34 68.6029 1434.11 69.1357C1433.28 70.9921 1432.51 72.9 1431.81 74.8252C1431.58 75.3924 1431.39 75.9596 1431.18 76.544C1429.65 80.9099 1428.43 85.3962 1427.52 89.9855C1427.37 90.6559 1427.24 91.3434 1427.13 92.031C1426.79 93.9045 1426.5 95.7953 1426.28 97.7204C1426.2 98.322 1426.12 98.9408 1426.07 99.5596C1425.71 102.929 1425.54 106.366 1425.54 109.821C1425.54 124.157 1428.58 137.839 1434.07 150.386C1418.35 150.644 1405.62 162.023 1404.94 176.272C1385.1 178.971 1367.7 184.918 1354.98 192.791C1347.12 190.728 1338.82 189.594 1330.25 189.594C1281.22 189.594 1241.46 225.776 1241.46 270.415C1241.46 282.653 1244.48 294.255 1249.83 304.654C1247.18 303.95 1244.37 303.554 1241.46 303.554C1229.52 303.554 1219.23 310 1214.51 319.282C1205.41 310.12 1192.25 304.362 1177.62 304.362C1176.85 304.362 1176.09 304.379 1175.34 304.414C1174.83 304.431 1174.32 304.465 1173.83 304.5C1173.43 304.517 1173.05 304.551 1172.66 304.586C1172.49 304.603 1172.33 304.62 1172.18 304.637C1171.62 304.689 1171.05 304.757 1170.48 304.826C1170.07 304.878 1169.65 304.947 1169.24 305.015C1168.69 305.084 1168.12 305.187 1167.6 305.29C1166.88 305.411 1166.16 305.565 1165.46 305.737C1165.27 305.772 1165.09 305.806 1164.92 305.858C1164.2 306.029 1163.5 306.201 1162.82 306.408C1162.07 306.614 1161.33 306.837 1160.59 307.078C1158.4 307.8 1156.29 308.659 1154.27 309.656C1153.89 309.828 1153.53 310.017 1153.17 310.206C1152.76 310.413 1152.34 310.619 1151.95 310.859C1151.78 310.945 1151.61 311.031 1151.44 311.134C1150.98 311.392 1150.53 311.65 1150.1 311.925C1149.85 312.063 1149.63 312.217 1149.38 312.372C1149.04 312.578 1148.7 312.785 1148.38 313.025C1148.04 313.231 1147.68 313.472 1147.34 313.73C1147.11 313.867 1146.87 314.039 1146.64 314.228C1146.3 314.469 1145.96 314.727 1145.62 314.985C1145.57 315.019 1145.49 315.071 1145.43 315.122C1134.67 323.424 1127.84 335.835 1127.84 349.689C1127.84 354.14 1128.54 358.42 1129.86 362.477C1115.68 356.358 1099.86 352.937 1083.16 352.937C1073.08 352.937 1063.32 354.175 1054.07 356.512C1007.85 368.098 973.913 406.652 973.913 452.391C973.913 459.369 974.724 466.176 976.254 472.742C976.858 475.492 977.613 478.191 978.481 480.855C972.233 477.572 965.003 475.681 957.282 475.681C952.524 475.681 947.956 476.42 943.671 477.727C941.651 470.8 938.31 464.285 933.873 458.424C922.301 443.143 903.292 432.125 881.035 428.894C886.038 425.25 889.247 419.663 889.247 413.39C889.247 402.423 879.487 393.554 867.462 393.554C866.896 393.554 866.348 393.588 865.801 393.623C868.293 390.408 869.765 386.489 869.765 382.244C869.765 372.12 861.44 363.783 850.68 362.58C850.68 362.219 850.718 361.875 850.718 361.514C850.718 331.795 824.27 307.714 791.631 307.714C791.065 307.714 790.479 307.714 789.913 307.748C789.535 307.748 789.158 307.765 788.78 307.783C787.969 307.817 787.157 307.869 786.364 307.937C786.232 307.937 786.1 307.955 785.986 307.955C785.892 307.972 785.798 307.972 785.722 307.989C785.42 308.023 785.099 308.04 784.797 308.075C784.118 308.144 783.438 308.23 782.777 308.316C782.211 308.401 781.645 308.487 781.078 308.573C780.304 308.711 779.53 308.848 778.756 309.003C778.473 309.055 778.171 309.123 777.869 309.192C777.114 309.347 776.378 309.536 775.642 309.725C775.17 309.845 774.717 309.966 774.245 310.103C773.188 310.378 772.149 310.705 771.13 311.066C770.526 311.255 769.922 311.478 769.318 311.702C768.657 311.942 768.015 312.2 767.354 312.475C766.75 312.716 766.127 312.991 765.523 313.266C764.919 313.524 764.315 313.816 763.73 314.108C762.541 314.675 761.37 315.294 760.238 315.947C754.933 305.806 746.249 297.401 735.508 291.969C727.013 287.672 717.253 285.231 706.871 285.231C703.831 285.231 700.849 285.437 697.942 285.833C697.281 285.919 696.62 286.022 695.959 286.142L694.544 286.4C693.675 286.572 692.807 286.761 691.957 286.967C690.636 287.259 689.352 287.62 688.069 288.016C687.804 288.102 687.54 288.17 687.276 288.256C686.445 288.514 685.614 288.806 684.803 289.116C683.443 289.597 682.103 290.147 680.801 290.749C679.498 291.333 678.233 291.952 676.987 292.622C676.364 292.949 675.741 293.293 675.137 293.654C672.683 295.063 670.38 296.627 668.209 298.363C667.945 298.57 667.681 298.776 667.435 298.982C666.322 299.876 665.246 300.821 664.226 301.801C664.075 301.939 663.924 302.093 663.773 302.248C661.527 304.414 659.507 306.734 657.713 309.192C657.544 309.416 657.392 309.639 657.223 309.862C657.09 310.034 656.958 310.223 656.864 310.395C656.524 310.842 656.222 311.306 655.92 311.788C654.674 313.696 653.579 315.672 652.598 317.718C652.277 318.405 651.956 319.11 651.673 319.815C651.635 319.901 651.597 319.969 651.578 320.038C651.333 320.623 651.106 321.19 650.899 321.774C650.785 322.066 650.672 322.376 650.578 322.668C650.408 323.115 650.257 323.562 650.125 324.009C650.03 324.249 649.955 324.49 649.898 324.748C649.502 326.054 649.162 327.361 648.879 328.701C648.822 328.976 648.747 329.268 648.709 329.543C648.482 330.661 648.312 331.778 648.18 332.912C648.105 333.394 648.048 333.875 648.01 334.356C647.935 335.13 647.878 335.903 647.84 336.677C647.803 337.45 647.784 338.241 647.784 339.032C647.784 342.332 648.124 345.563 648.747 348.692C631.53 362.717 620.695 383.103 620.695 405.792C620.695 406.153 620.751 406.514 620.751 406.892C615.144 404.606 608.934 403.334 602.402 403.334C577.408 403.334 557.153 421.778 557.153 444.535C557.153 450.723 558.682 456.567 561.381 461.844C530.535 462.154 505.126 479.892 500.803 502.977C500.388 505.246 500.161 507.583 500.161 509.955C500.161 510.437 500.199 510.901 500.199 511.382C493.214 513.049 486.626 515.593 480.566 518.911C480.906 515.696 481.095 512.448 481.095 509.147C481.095 454.23 432.202 409.694 371.869 409.694C364.337 409.694 357.013 410.382 349.915 411.705C354.313 405.294 357.05 397.851 357.579 389.876C357.654 388.913 357.692 387.95 357.692 386.971C357.692 361.136 334.699 340.2 306.326 340.2C304.023 340.2 301.758 340.355 299.549 340.613C305.269 333.514 310.215 325.556 314.123 316.841C335.341 269.693 318.37 218.728 276.198 203.001C250.694 193.478 221.811 199.082 198.271 215.411C196.119 208.02 188.738 202.571 179.922 202.571C171.503 202.571 164.386 207.556 161.875 214.466C149.888 197.329 128.858 185.95 104.903 185.95C98.4653 185.95 92.2357 186.792 86.3459 188.322C86.1949 178.885 77.7567 171.271 67.3551 171.271C66.449 171.271 65.5618 171.339 64.6934 171.46C71.4327 163.536 75.4725 153.618 75.4725 142.823C75.4725 116.989 52.4608 96.0531 24.1067 96.0531C18.8021 96.0531 13.6862 96.7922 8.89133 98.1501C3.58674 99.6455 -1.34032 101.897 -5.75767 104.768C-10.024 107.535 -13.7995 110.904 -16.9521 114.703C-20.7842 102.035 -49.5312 89.256 -65.9718 91.256C-72 90.256 -72 106.756 -72 110.256V860.756L1530.95 844.756V1C1530.37 1.06875 1529.8 1.13751 1529.22 1.22345ZM797.068 464.268C796.973 464.423 796.879 464.594 796.784 464.749C796.633 464.457 796.482 464.182 796.331 463.907L797.068 464.268Z" fill="#E3F5FF"/>
<path d="M166.386 322.874C165.801 327.172 164.687 331.366 163.215 335.457C164.536 325.298 162.026 314.624 155.777 306.098C144.186 290.268 121.59 282.412 100.957 285.386C80.3236 288.36 62.1634 301.268 52.1205 317.941C57.3118 304.397 54.4047 288.532 44.6639 277.239C34.923 265.963 18.6694 259.637 3.00105 261.03C7.56943 252.092 8.4378 241.641 5.36076 232.187C-0.906601 212.884 -22.3704 200.285 -44.1362 196.796C-48.8556 196.04 -67.2429 201.376 -72 201.256V149.756C-72 146.256 -72 91.756 -72 90.256C-50.0793 84.256 -17.7462 98.756 -16.9714 114.72C-13.8189 110.921 -10.0433 107.552 -5.77702 104.785C-9.64692 111.832 -13.0071 118.519 -14.0643 124.26C-19.5765 154.202 5.34189 177.046 7.62608 179.057C25.1633 194.51 46.2307 197.105 53.5174 197.69C50.8557 203.07 47.1935 212.283 47.0802 223.988C47.0236 229.42 46.797 253.639 62.4654 262.869C77.2088 271.532 103.902 265.705 123.213 245.268C121.986 247.193 116.172 256.767 120.174 266.943C123.044 274.248 129.519 278.15 133.162 280.35C143.224 286.417 146.81 282.808 154.022 287.569C168.274 296.92 166.877 319.299 166.386 322.874Z" fill="#FFFBFE"/>
<path d="M357.673 386.988C357.673 387.968 357.635 388.93 357.56 389.893C352.236 397.525 347.271 405.363 342.684 413.373C344.043 403.18 339.513 393.193 334.907 383.825C329.772 373.443 322.655 361.841 310.309 359.933C299.738 358.3 289.846 364.591 281.332 370.538C290.846 357.166 297.963 342.401 302.343 326.965C298.058 328.186 294.433 331.142 292.621 334.872C295.906 312.475 292.602 289.288 283.144 268.404C278.5 258.125 272.025 248.035 261.869 241.864C244.011 231.036 216.695 236.742 205.822 253.604C198.441 244.563 179.62 248.19 176.901 259.173C171.578 241.847 155.438 228.578 137.315 221.376C119.193 214.174 99.1446 212.231 79.4176 211.062C79.0778 201.884 76.1706 192.533 69.6956 185.486C63.2206 178.438 52.8191 174.072 42.8895 175.654C46.193 161.679 47.6466 146.571 42.8139 132.734C37.717 118.158 27.2966 113.328 15.3471 104.252C12.5721 102.155 10.4389 100.11 8.87207 98.1674C13.667 96.8095 18.7828 96.0704 24.0874 96.0704C52.4415 96.0704 75.4533 117.006 75.4533 142.841C75.4533 153.635 71.4135 163.553 64.6742 171.477C65.5425 171.357 66.4298 171.288 67.3359 171.288C77.7374 171.288 86.1757 178.902 86.3268 188.339C92.2166 186.809 98.4462 185.967 104.883 185.967C128.839 185.967 149.869 197.346 161.856 214.483C164.367 207.573 171.483 202.588 179.903 202.588C188.719 202.588 196.1 208.037 198.252 215.428C221.792 199.099 250.675 193.496 276.178 203.018C318.351 218.746 335.322 269.71 314.104 316.858C310.196 325.573 305.25 333.531 299.53 340.63C301.739 340.372 304.004 340.218 306.307 340.218C334.68 340.218 357.673 361.153 357.673 386.988Z" fill="#FFFBFE"/>
<path d="M662.225 315.294C659.185 321.963 658.317 329.561 660.148 336.625C660.96 339.771 662.357 343.965 664.849 346.405C666.359 347.866 673.929 352.25 676.194 351.975C668.435 352.903 660.601 354.089 653.371 356.822C646.141 359.555 639.439 363.972 635.532 370.16C633.38 373.563 632.153 377.396 631.209 381.23C629.113 389.755 628.415 398.556 629.17 407.27C638.175 406.669 647.198 406.084 656.203 405.5C634.399 407.03 614.785 423.015 610.727 442.593C608.065 436.457 609.481 429.031 614.257 424.081C600.495 422.757 587.413 431.867 581.693 443.332C575.992 454.797 576.388 468.032 578.71 480.442C561.06 475.32 541.861 479.497 524.437 485.238C518.982 487.043 513.469 489.054 508.901 492.32C505.107 495.035 501.973 498.783 500.784 502.994C505.107 479.909 530.516 462.171 561.362 461.861C558.662 456.585 557.133 450.74 557.133 444.552C557.133 421.795 577.389 403.351 602.383 403.351C608.914 403.351 615.125 404.623 620.732 406.909C620.732 406.531 620.675 406.17 620.675 405.809C620.675 383.12 631.511 362.735 648.727 348.709C648.104 345.58 647.764 342.349 647.764 339.049C647.764 312.114 669.53 289.769 697.922 285.85C693.996 287.431 690.164 289.202 686.482 291.23C676.081 296.971 666.887 305.067 662.225 315.294Z" fill="#FFFBFE"/>
<path d="M933.854 458.441C912.334 445.945 885.886 440.445 860.534 443.556C871.879 434.085 877.014 418.856 873.465 405.225C873.22 404.28 872.899 403.3 872.162 402.595C871.332 401.839 870.105 401.547 868.953 401.306C865.291 400.533 861.648 399.759 857.985 398.986C862.724 388.741 854.795 375.42 842.808 373.443C842.921 383.292 838.107 393.09 829.971 399.587C831.274 390.941 832.595 382.141 831.085 373.512C829.593 364.883 824.855 356.306 816.587 351.872C808.488 347.523 798.351 347.781 789.12 349.465C794.425 346.182 800.107 343.105 806.431 342.143C812.755 341.18 819.89 342.727 823.874 347.299C820.91 333.961 806.638 324.524 791.914 322.152C777.189 319.798 762.106 323.149 747.872 327.343C750.912 314.675 745.928 300.718 735.489 291.986C746.23 297.418 754.914 305.823 760.218 315.964C769.317 310.756 780.078 307.731 791.612 307.731C824.251 307.731 850.699 331.812 850.699 361.532C850.699 361.892 850.661 362.236 850.661 362.597C861.421 363.8 869.746 372.137 869.746 382.261C869.746 386.507 868.274 390.426 865.782 393.64C866.329 393.606 866.877 393.571 867.443 393.571C879.468 393.571 889.228 402.44 889.228 413.407C889.228 419.681 886.019 425.267 881.016 428.911C903.273 432.142 922.282 443.16 933.854 458.441Z" fill="#FFFBFE"/>
<path d="M743.625 397.696C747.061 394.895 751.516 393.399 755.895 392.058C763.295 389.79 771.639 387.847 778.643 390.941C781.512 392.213 783.872 394.224 786.156 396.252C788.384 398.246 790.592 400.326 792.159 402.801C794.651 406.738 795.312 411.396 795.935 415.899C800.163 415.624 804.581 415.813 808.356 417.549C812.132 419.285 815.133 422.878 814.85 426.728C819.249 425.284 823.76 423.84 828.442 423.771C831.481 423.72 834.521 424.27 837.409 425.198C844.507 427.467 850.661 432.091 854.474 437.986C858.287 443.882 859.722 451.033 858.457 457.788C856.853 452.734 854.172 447.956 850.585 443.831C848.962 441.957 847.131 440.204 844.941 438.88C842.638 437.488 839.995 436.611 837.333 435.889C832.236 434.514 826.8 433.655 821.608 434.738C816.417 435.803 811.547 439.155 810.187 443.831C807.299 437.522 798.993 434.841 791.499 434.411C786.817 434.136 781.965 434.497 777.737 436.354C773.508 438.21 769.978 441.751 769.298 445.979C766.542 441.012 758.784 439.052 753.592 441.991C757.311 438.193 759.218 432.985 758.784 427.914C758.652 426.384 758.274 424.803 757.236 423.6C756.235 422.431 754.725 421.743 753.215 421.21C749.175 419.766 744.777 419.165 740.435 419.474C746.759 419.027 740.133 412.118 739.378 410.364C737.471 405.998 740.038 400.636 743.625 397.696Z" fill="#C5EFFF"/>
<path d="M1530.93 1.01727V113.947C1529.22 110.474 1527.2 107.105 1524.91 103.908C1516.55 92.1686 1502.9 81.9585 1487.57 82.9039C1475.34 83.6602 1464.82 91.4123 1457.71 100.505C1435.71 128.608 1443.08 172.164 1473.32 192.946C1461.5 186.517 1445.74 186.603 1434.03 193.186C1422.31 199.769 1415.16 212.541 1416.18 225.054C1405.43 212.489 1380.27 214.586 1372.21 228.732C1366.58 210.083 1340.44 200.13 1320.9 207.693C1301.36 215.274 1290.9 237.086 1295.66 255.942C1300.4 274.798 1318.37 289.649 1338.89 294.668C1342.97 295.665 1347.25 296.369 1350.75 298.552C1353.92 300.529 1356.13 303.554 1359 305.892C1363.7 309.691 1370 311.461 1376.25 312.011C1395.66 313.73 1415.69 303.606 1424.33 287.689C1434.11 296.868 1449.65 300.564 1463.09 296.868C1442.85 308.23 1419.91 324.301 1422.5 345.804C1376.72 330.386 1326.56 325.9 1278.37 332.93C1277.27 319.918 1259.27 314.246 1244.99 315.449C1232.52 316.497 1220.06 320.537 1210.92 328.34C1201.78 336.161 1196.48 348.056 1198.88 359.245C1189.19 347.901 1169.82 344.635 1156.33 352.061C1142.81 359.486 1136.96 376.589 1143.45 389.687C1141.28 385.286 1130.6 380.422 1126.24 377.878C1120.29 374.406 1113.27 369.92 1106.28 368.785C1091.48 366.379 1072.42 366.723 1058.24 371.484C1051.71 373.667 1045.7 376.967 1039.91 380.456C1026.85 388.294 1014.39 397.25 1004.85 408.542C995.32 419.835 988.882 433.689 988.996 447.922C989.071 458.493 992.696 468.737 996.282 478.792C999.794 488.607 1003.3 498.422 1006.82 508.254C995.565 497.184 984.163 485.891 976.234 472.759C974.705 466.193 973.894 459.386 973.894 452.408C973.894 406.669 1007.84 368.115 1054.05 356.53C1063.3 354.192 1073.06 352.954 1083.14 352.954C1099.84 352.954 1115.66 356.375 1129.84 362.494C1128.52 358.438 1127.82 354.158 1127.82 349.706C1127.82 335.852 1134.65 323.442 1145.42 315.139C1145.47 315.088 1145.55 315.036 1145.6 315.002C1145.94 314.744 1146.28 314.486 1146.62 314.246C1146.85 314.057 1147.1 313.885 1147.32 313.747C1147.66 313.489 1148.02 313.249 1148.36 313.042C1148.68 312.802 1149.02 312.596 1149.36 312.389C1149.61 312.235 1149.83 312.08 1150.08 311.942C1150.51 311.667 1150.97 311.41 1151.42 311.152C1151.59 311.049 1151.76 310.963 1151.93 310.877C1152.32 310.636 1152.74 310.43 1153.16 310.224C1153.51 310.034 1153.87 309.845 1154.25 309.673C1156.27 308.677 1158.38 307.817 1160.57 307.095C1161.31 306.855 1162.05 306.631 1162.8 306.425C1163.48 306.219 1164.18 306.047 1164.9 305.875C1165.07 305.823 1165.26 305.789 1165.44 305.754C1166.14 305.583 1166.86 305.428 1167.58 305.308C1168.11 305.204 1168.67 305.101 1169.22 305.033C1169.64 304.964 1170.05 304.895 1170.47 304.843C1171.03 304.775 1171.6 304.706 1172.16 304.654C1172.32 304.637 1172.47 304.62 1172.64 304.603C1173.03 304.568 1173.41 304.534 1173.81 304.517C1174.3 304.483 1174.81 304.448 1175.32 304.431C1176.07 304.397 1176.83 304.379 1177.6 304.379C1192.23 304.379 1205.39 310.138 1214.49 319.299C1219.21 310.017 1229.5 303.572 1241.45 303.572C1244.35 303.572 1247.17 303.967 1249.81 304.672C1244.47 294.272 1241.45 282.67 1241.45 270.432C1241.45 225.793 1281.2 189.611 1330.23 189.611C1338.8 189.611 1347.1 190.745 1354.96 192.808C1367.68 184.936 1385.08 178.988 1404.93 176.29C1405.6 162.04 1418.33 150.661 1434.05 150.404C1428.56 137.856 1425.52 124.174 1425.52 109.838C1425.52 53.8895 1471.51 7.75522 1530.93 1.01727Z" fill="#FFFBFE"/>
<path d="M325.525 455.278C319.352 462.171 308.403 465.127 299.115 462.394C302.041 461.913 303.268 465.849 302.362 468.428C300.455 473.945 294.754 477.984 288.525 479.205C282.314 480.442 275.726 479.17 270.024 476.609C259.283 471.814 251.355 462.687 246.786 452.614C242.218 442.541 240.726 431.524 240.368 420.626C230.929 437.643 238.876 460.865 257.244 470.009C245.71 470.628 234.365 473.773 224.397 479.102C222.359 480.185 220.15 481.732 220.169 483.897C230.08 480.735 241.784 482.711 249.769 488.934C257.754 495.156 261.737 505.366 259.849 514.785C268.873 515.868 277.878 511.279 286.901 512.379C296.113 513.513 303.117 520.2 309.309 526.491C312.008 529.224 314.896 532.438 314.5 536.099C318.521 518.653 325.317 501.739 334.642 486.063C336.927 482.213 339.437 478.345 343.137 475.526C347.762 471.986 353.803 470.421 359.693 469.149C365.432 467.912 371.642 466.881 377.06 468.995C382.478 471.109 386.122 477.675 382.724 482.058C391.162 474.667 401.242 466.726 412.871 467.86C390.312 462.996 369.018 453.387 351.123 439.98C347.328 437.144 330.282 421.296 327.847 427.089C326.752 429.684 330.414 436.216 330.697 439.018C331.32 444.845 329.602 450.74 325.525 455.278Z" fill="#C5EFFF"/>
<path d="M1185.02 435.597C1186.42 435.872 1187.83 436.147 1189.23 436.422C1187.81 436.285 1186.42 436.01 1185.02 435.597Z" fill="#C5EFFF"/>
<path d="M902.404 618.811C895.778 620.564 888.907 622.455 883.829 626.7C881.847 628.368 877.561 657.331 873.352 692.086C866.877 745.388 860.553 812.372 862.761 815.569C840.939 811.117 818.342 811.22 795.972 811.375C769.298 811.547 742.625 811.702 715.951 811.874C667.756 814.314 619.543 816.085 571.311 817.322C438.431 820.777 305.382 820.399 172.465 820.021C100.07 819.815 27.4664 819.608 -44.7026 815.053C-45.2878 815.019 -71.4148 815.29 -72 815.256L-71.452 293.256C-70.8857 294.029 -45.3066 311.375 -44.7026 312.114C-41.7199 315.775 -38.2653 319.144 -34.5087 322.101C-18.5382 334.614 2.34035 340.664 23.0679 344.068C16.4041 352.439 11.798 362.202 9.75925 372.377C8.43781 379.115 8.21128 386.163 10.2878 392.746C14.8939 407.477 30.4491 417.687 46.7782 421.313C63.1261 424.923 80.2859 423.067 96.8981 420.712C102.543 419.887 108.357 419.027 114.001 420.024C115.53 420.299 117.003 420.712 118.419 421.228C169.029 424.889 208.823 463.426 208.823 510.419C208.823 518.635 207.577 526.594 205.312 534.157C212.372 531.321 220.169 529.722 228.399 529.722C259.377 529.722 284.579 552.119 285.617 580.102C295.358 575.977 307.553 573.519 320.786 573.519C333.17 573.519 344.44 578.95 356.219 577.438C366.98 576.046 378.457 568.517 386.272 562.088C403.451 547.959 414.192 526.766 412.135 505.521C413.003 514.441 422.933 524.72 429.748 530.478C438.054 537.474 448.134 542.665 458.895 545.759C469.617 548.836 481.132 549.867 492.27 548.337C497.782 547.564 503.219 546.172 508.335 544.109C510.393 543.267 513.432 540.998 515.716 541.239H515.773C516.339 541.307 517 541.565 517.679 541.943C518.793 542.768 519.907 543.525 521.04 544.229C521.04 544.229 521.058 544.247 521.096 544.264C522.512 545.329 523.89 546.43 524.985 546.962C526.948 547.925 529.025 548.767 531.139 549.455C536.236 551.174 541.673 552.085 547.109 552.342C559.059 552.927 570.952 550.417 582.354 547.066C597.777 542.528 613.049 536.065 623.885 525.098C634.72 514.132 640.232 497.837 634.154 484.155C643.215 494.417 658.355 500.347 672.57 497.958C686.766 495.568 699.017 484.275 700.093 471.143C701.15 458.011 689.805 444.69 675.42 443.487C684.066 434.583 697.186 429.461 710.212 429.891C714.723 430.028 719.292 430.836 723.218 432.864C735.168 439.035 737.301 453.611 738.075 466.09C749.779 462.566 762.937 468.72 770.054 477.864C777.208 487.008 779.549 498.473 781.172 509.594C782.286 517.364 783.419 525.717 789.214 531.493C796.916 539.107 809.961 539.434 821.193 537.784C833.652 535.944 845.809 532.352 857.098 527.144C841.392 542.837 837.107 567.176 846.678 586.531C856.23 605.868 879.109 619.12 902.404 618.811Z" fill="#C5EFFF"/>
<path d="M1530.95 342.091V838.774C1530.37 838.825 1529.8 838.877 1529.22 838.928C1520.72 839.633 1512.15 839.822 1503.62 839.994C1418.55 841.782 1333.4 843.552 1248.3 843.552C1241.6 843.552 1234.9 843.535 1228.21 843.518C1214.3 843.466 1200.39 843.38 1186.49 843.208C1166.46 842.985 1146.43 842.641 1126.42 842.143C1119.19 841.971 1111.98 841.765 1104.75 841.541C1056.39 840.097 1008.06 837.742 959.792 834.15C957.489 824.335 956.753 756.234 959.396 698.257C959.415 697.724 959.452 697.208 959.471 696.693C961.435 654.735 965.21 618.415 971.459 613.861C981.237 606.727 993.961 603.221 1006.48 603.702C1013.05 603.943 1019.56 605.301 1025.56 607.81C1035.76 592.976 1042.53 573.759 1065.28 572.866C1067.22 572.797 1085.76 571.645 1086.22 572.35C1079.42 561.848 1078.29 548.458 1083.23 537.13C1090.44 554.68 1109.66 567.606 1130.22 568.689C1131.52 553.271 1142.73 538.884 1158.29 532.696C1148.19 536.993 1138.81 526.749 1138.81 518.292C1138.81 509.886 1146.94 502.478 1154.42 498.611C1162.8 494.262 1172.39 492.285 1181.32 488.934C1190.12 485.651 1198.97 480.545 1202.61 472.14C1207.58 460.693 1200.71 448.059 1194.03 437.35C1192.42 437.041 1190.83 436.732 1189.23 436.422C1204.58 437.935 1220.4 423.668 1217.17 409.505C1213.62 394.018 1189.19 386.713 1176.26 397.249C1171.33 401.254 1167.33 407.425 1160.74 407.666C1166.95 388.793 1186.44 376.554 1204.62 365.863C1210.92 362.133 1217.83 358.266 1225.34 358.764C1230.23 359.073 1234.74 361.239 1238.77 363.766C1252.53 372.36 1262.44 385.853 1265.99 400.704C1263.15 391.044 1250.77 384.392 1240.16 387.246C1240.33 406.823 1256.6 424.236 1276.46 431.713C1296.32 439.19 1318.96 438.141 1339.84 433.466C1346.5 431.97 1353.2 430.062 1358.81 426.436C1377.65 414.283 1377.12 389.136 1374.63 368.235C1381.16 388.758 1407.34 398.831 1430.81 399.295C1462.09 399.914 1493.59 387.813 1514.21 366.396C1520.23 360.139 1525.27 353.109 1529.22 345.615C1529.82 344.446 1530.4 343.277 1530.95 342.091Z" fill="#C5EFFF"/>
<path d="M1005.53 540.689C1013.12 536.151 1024.09 535.979 1030.83 541.531C1032.57 537.56 1034.49 533.504 1037.87 530.547C1041.27 527.591 1046.52 526.01 1050.78 527.797C1051.82 519.083 1057.75 510.952 1066.19 506.707C1074.62 502.461 1085.33 502.221 1093.99 506.054C1093.26 497.683 1090.86 489.484 1090.1 481.113C1089.35 472.742 1090.48 463.77 1096.03 457.066C1101.07 450.964 1109.04 447.561 1116.66 444.398C1107.6 443.899 1098.77 448.678 1093.73 455.553C1088.71 462.429 1087.18 471.092 1088.14 479.308C1072.34 473.739 1052.59 479.996 1043.99 493.282C1038.23 491.203 1031.32 491.34 1026.2 494.503C1021.07 497.666 1018.33 504.06 1020.63 509.285C1018.16 509.904 1015.69 510.523 1013.2 511.141C1012.33 511.365 1011.4 511.606 1010.84 512.241C1010.2 512.946 1010.18 513.926 1010.16 514.837C1010.14 518.154 1010.12 521.472 1010.1 524.789C1003.57 524.806 997.037 524.841 990.506 524.858C988.694 524.858 986.844 524.875 985.088 525.356C983.087 525.906 981.369 527.041 979.67 528.158C969.967 534.57 959.868 541.376 954.638 551.208C949.523 560.782 949.73 571.903 950.051 582.543C950.938 574.035 955.677 565.664 963.586 561.057C967.607 558.702 972.421 557.499 977.178 557.551C981.029 557.585 986.258 560.421 989.921 559.39C993.828 558.29 994.225 553.752 995.867 550.83C998.132 546.791 1001.36 543.181 1005.53 540.689Z" fill="#C5EFFF"/>
<path d="M1531.5 610.256V2068H-69.2599L-72 645.756L-69.2599 646.756C-53.3159 648.626 -72.0372 646.136 -71.452 646.256C-22.6912 656.26 3.31529 603.1 -7.02962 561.074C2.91886 601.519 43.4113 634.109 88.6986 638.131C134.024 642.153 180.651 617.315 199 579.397C191.393 603.685 190.94 632.631 209.76 651.211C228.581 669.775 270.641 666.08 276.549 641.397C275.587 649.183 276.851 656.609 279.796 663.536V663.553C289.273 685.795 316.136 702.726 342.81 709.498C373.297 717.216 407.786 716.459 434.46 701.007C454.848 689.181 468.893 667.506 469.119 646.003C469.119 645.986 469.119 645.986 469.119 645.986C469.214 639.351 467.968 632.734 465.193 626.425C474.896 633.284 479.276 645.78 475.727 656.488C498.248 655.423 518.201 637.134 519.239 616.594C520.127 598.752 506.61 581.408 488.375 575.272C537.362 585.121 592.107 567.829 623.217 531.854C604.585 553.116 584.971 576.922 586.009 604.115C586.595 618.897 597.147 633.284 610.663 640.898C619.366 645.814 629.296 647.911 638.565 645.505H638.583C641.377 644.766 644.096 643.631 646.72 642.033C659.235 634.401 664.238 619.395 663.087 605.713C666.182 610.079 670.789 613.414 676.018 615.459C683.625 618.45 692.573 618.759 700.143 615.648C672.034 637.546 676.112 684.523 707.675 702.107C739.22 719.691 787.018 701.626 795.645 668.881C802.195 683.096 820.148 691.845 836.76 689.834H836.779C838.95 689.576 841.083 689.13 843.179 688.494C847.332 656.849 887.711 633.782 920.841 644.13C931.224 660.459 936.075 679.676 934.49 698.48L934.735 698.257C935.32 697.741 935.905 697.208 936.528 696.693C965.883 671.511 1010.83 662.367 1049.15 674.004C1064.88 678.782 1080.34 686.861 1096.82 685.193C1101.03 684.764 1104.9 683.784 1108.43 682.306C1134.8 671.356 1142.2 633.713 1133.59 605.937C1150.66 625.411 1181.9 633.421 1207.61 624.896C1233.34 616.353 1251.61 591.945 1250.93 567.021C1299.05 596.5 1365.16 599.525 1416.3 574.636C1413.7 600.814 1439.37 625.738 1468.2 627.13C1481.88 627.8 1499.17 616.181 1506.27 616.198C1506.27 616.198 1531.5 610.273 1531.5 610.256Z" fill="#8BE0FF"/>
<path d="M-70.356 88.756C-70.356 88.756 -31.1282 84.0382 -17.0553 114.72C-17.0553 114.72 10.7139 82.9897 47.9217 101.519C85.1294 120.048 72.036 158.963 72.036 158.963L64.4438 171.477C64.4438 171.477 84.6395 168.348 86.0525 188.339C86.0525 188.339 131.418 174.914 161.429 214.483C161.429 214.483 178.309 188.373 197.751 215.428C197.751 215.428 248.749 180.999 288.481 209.378C328.213 237.756 322.26 281.931 322.26 281.931C322.26 281.931 319.302 329.183 291.081 345.735" stroke="#180930" stroke-width="4" stroke-miterlimit="10" stroke-linecap="round" stroke-linejoin="round"/>
<path d="M298.824 340.613C298.824 340.613 346.45 332.861 356.849 381.402C367.249 429.942 285.166 438.227 285.166 438.227" stroke="#180930" stroke-width="4" stroke-miterlimit="10" stroke-linecap="round" stroke-linejoin="round"/>
<path d="M349.087 411.705C349.087 411.705 408.356 398.642 451.084 441.682C493.811 484.723 475.612 531.854 475.612 531.854" stroke="#180930" stroke-width="4" stroke-miterlimit="10" stroke-linecap="round" stroke-linejoin="round"/>
<path d="M479.475 518.911C479.475 518.911 490.063 510.437 499.068 511.382C499.068 511.382 497.768 468.926 555.247 462.309C556.829 462.12 558.449 461.965 560.126 461.844C560.126 461.844 536.652 407.064 605.303 403.524L619.376 406.892C619.376 406.892 619.376 365.588 647.315 348.692C675.253 331.795 718.433 342.452 718.433 342.452C718.433 342.452 723.388 319.97 746.259 327.326C746.259 327.326 803.361 304.431 822.106 347.282" stroke="#180930" stroke-width="4" stroke-miterlimit="10" stroke-linecap="round" stroke-linejoin="round"/>
<path d="M647.295 348.709C647.295 348.709 639.063 303.589 683.279 289.133C683.279 289.133 690.098 238.238 715.607 220.086C741.115 201.935 769.318 243.05 769.318 243.05C769.318 243.05 784.634 277.273 783.071 308.092C783.071 308.092 847.445 301.148 848.82 362.597C848.82 362.597 876.759 365.984 863.91 393.64C863.91 393.64 905.451 400.67 879.114 428.911C879.114 428.911 958.182 446.512 937.459 498.542" stroke="#180930" stroke-width="4" stroke-miterlimit="10" stroke-linecap="round" stroke-linejoin="round"/>
<path d="M941.641 477.727C941.641 477.727 964.814 470.696 976.381 480.855C976.381 480.855 953.453 426.401 1008.75 376.348C1008.75 376.348 1062.14 334.425 1127.45 362.477C1127.45 362.477 1114.18 323.912 1160.49 307.256C1160.49 307.256 1187.46 296.112 1211.93 319.282C1211.93 319.282 1221.24 298.793 1247.18 304.654C1247.18 304.654 1221.32 258.256 1265.34 212.386C1312.85 168.245 1373.33 200.165 1373.33 200.165" stroke="#180930" stroke-width="4" stroke-miterlimit="10" stroke-linecap="round" stroke-linejoin="round"/>
<path d="M1356.68 193.256C1356.68 193.256 1382.01 178.785 1405.46 176.256C1405.46 176.256 1406.53 152.01 1433.41 149.756C1433.41 149.756 1408.42 109.382 1441.63 56.256C1474.84 3.12986 1528.76 2.25598 1528.76 2.25598" stroke="#180930" stroke-width="4" stroke-miterlimit="10" stroke-linecap="round" stroke-linejoin="round"/>
<path d="M1214.98 413.768C1214.98 413.768 1208.56 438.554 1186.69 436.422C1186.69 436.422 1224.44 471.59 1178.79 488.934C1133.14 506.277 1134.29 460.555 1134.29 460.555C1134.29 460.555 1109.75 462.36 1114.25 444.381" stroke="#180930" stroke-width="4" stroke-miterlimit="10" stroke-linecap="round" stroke-linejoin="round"/>
<path d="M-45.1472 196.256C-45.1472 196.256 17.3642 193.392 2.87671 261.03C2.87671 261.03 60.9773 260.703 51.8967 317.941C51.8967 317.941 92.0622 306.854 95.5098 345.752C95.5098 345.752 119.7 342.074 120.566 364.144" stroke="#180930" stroke-width="4" stroke-miterlimit="10" stroke-linecap="round" stroke-linejoin="round"/>
</svg>
