<svg width="314" height="463" viewBox="0 0 314 463" fill="none" xmlns="http://www.w3.org/2000/svg">
<g filter="url(#filter0_f_17_86)">
<ellipse cx="156.801" cy="243" rx="56.5" ry="120" fill="#B3F1FF"/>
</g>
<g clip-path="url(#clip0_17_86)">
<path d="M181.039 301.105L157.49 334.468C156.157 336.361 152.834 336.361 151.501 334.468L127.952 301.085C118.775 288.084 118.775 272.069 127.952 259.067L154.495 242.627L181.039 259.067C190.235 272.088 190.235 288.103 181.039 301.105Z" fill="#1954DC"/>
<path d="M175.881 287.756L156.93 314.628C155.848 316.154 153.182 316.154 152.1 314.628L133.148 287.756C125.769 277.285 125.769 264.399 133.148 253.929L154.515 240.695L175.881 253.929C183.261 264.38 183.261 277.285 175.881 287.756Z" fill="#00C9D8"/>
<path d="M169.661 274.078L156.215 293.145C155.461 294.227 153.549 294.227 152.795 293.145L139.35 274.078C134.114 266.66 134.114 257.503 139.35 250.084L154.515 240.695L169.68 250.084C174.915 257.503 174.915 266.66 169.661 274.078Z" fill="#B3F1FF"/>
<path d="M181.039 301.105L157.49 334.468C156.157 336.361 152.834 336.361 151.501 334.468L127.952 301.085C118.775 288.084 118.775 272.069 127.952 259.067L154.495 242.627L181.039 259.067C190.235 272.088 190.235 288.103 181.039 301.105Z" stroke="url(#paint0_linear_17_86)" stroke-width="3.86373" stroke-miterlimit="10"/>
<path d="M99.3793 220.874L80.08 241.912L53.227 271.18C52.0872 272.416 50.5031 273.112 48.8224 273.112C46.0018 273.112 43.587 271.161 42.9881 268.398L35.4925 233.47C32.0538 217.474 34.6231 201.15 42.1574 187.337C46.7553 178.933 53.1304 171.457 61.1477 165.565L76.506 154.244L99.3793 220.874Z" fill="#CFC4FC"/>
<path d="M99.3794 220.874L80.08 241.912C76.2163 226.535 70.7878 211.543 63.8524 197.267C62.133 193.674 60.1239 189.926 56.7238 187.82C53.5942 185.888 49.6531 185.618 46.0406 186.255C44.7076 186.487 43.4132 186.854 42.1382 187.337C46.736 178.933 53.1112 171.457 61.1284 165.565L76.4868 154.244L99.3794 220.874Z" fill="#67637F"/>
<path d="M212.219 220.874L231.519 241.912L258.372 271.18C259.512 272.416 261.096 273.112 262.776 273.112C265.597 273.112 268.012 271.161 268.611 268.398L276.126 233.47C279.564 217.474 276.995 201.15 269.441 187.356C264.843 178.953 258.468 171.476 250.451 165.584L235.093 154.263L212.219 220.874Z" fill="#CFC4FC"/>
<path d="M212.219 220.874L231.519 241.912C235.383 226.535 240.811 211.543 247.747 197.267C249.466 193.674 251.475 189.926 254.875 187.82C258.005 185.888 261.946 185.618 265.558 186.255C266.891 186.487 268.186 186.854 269.461 187.337C264.863 178.933 258.488 171.457 250.47 165.565L235.112 154.244L212.219 220.874Z" fill="#67637F"/>
<path d="M61.1477 165.565C53.1497 171.457 46.7553 178.933 42.1574 187.337C34.6231 201.15 32.0538 217.474 35.4925 233.47L43.0074 268.398C43.6063 271.161 46.0212 273.112 48.8417 273.112C50.5031 273.112 52.1065 272.397 53.2463 271.18L80.0993 241.912L99.3986 220.874L76.5253 154.244L61.1477 165.565Z" stroke="url(#paint1_linear_17_86)" stroke-width="3.86373" stroke-miterlimit="10"/>
<path d="M269.441 187.337C264.843 178.933 258.468 171.457 250.451 165.565L235.093 154.244L212.219 220.874L231.519 241.912L258.372 271.18C259.512 272.416 261.096 273.112 262.776 273.112C265.597 273.112 268.012 271.161 268.611 268.398L276.126 233.47C279.564 217.474 276.995 201.15 269.441 187.337Z" stroke="url(#paint2_linear_17_86)" stroke-width="3.86373" stroke-miterlimit="10"/>
<path d="M123.856 64.7219C122.871 68.1993 121.963 71.6766 121.074 75.1733C115.201 98.8773 111.685 123.219 110.565 147.657H76.5251C77.2979 126.039 81.973 104.615 90.6084 84.852C92.0573 81.5678 93.5835 78.3416 95.2449 75.1733C97.0609 71.6187 99.0314 68.1413 101.118 64.7219H123.856Z" fill="#7CA6FC"/>
<path d="M154.534 64.7219C154.534 92.3669 154.534 119.993 154.515 147.657H110.584C111.878 119.606 116.283 91.7101 123.875 64.7219H154.534Z" fill="#548EE2"/>
<path d="M232.581 147.637H198.523C198.445 145.899 198.349 144.121 198.233 142.383C198.136 140.702 198.02 139.021 197.904 137.34C197.904 137.167 197.885 136.993 197.866 136.8C197.73 135.196 197.615 133.593 197.46 132.009C197.305 130.231 197.151 128.454 196.958 126.677C196.861 125.711 196.765 124.783 196.649 123.837C196.533 122.794 196.417 121.77 196.282 120.726C196.185 119.799 196.069 118.91 195.953 117.983C195.857 117.23 195.76 116.476 195.663 115.742C195.567 114.989 195.47 114.235 195.354 113.501C195.18 112.168 194.987 110.855 194.775 109.522C194.697 108.903 194.601 108.305 194.504 107.725C194.311 106.334 194.079 104.982 193.847 103.629C193.538 101.717 193.191 99.8043 192.843 97.8918C192.437 95.6508 192.012 93.3905 191.548 91.1496C191.529 91.053 191.51 90.9564 191.491 90.8598C189.733 82.0891 187.627 73.3764 185.193 64.741H207.95C210.036 68.1604 212.007 71.6377 213.823 75.1924C215.465 78.3606 217.01 81.5868 218.459 84.871C227.133 104.595 231.809 126.02 232.581 147.637Z" fill="#6A9AEF"/>
<path d="M191.471 86.011C191.181 87.5565 191.201 89.1792 191.529 90.8213C191.548 90.9179 191.568 91.0145 191.587 91.1111C192.051 93.3521 192.476 95.6123 192.881 97.8533C193.229 99.7659 193.577 101.678 193.886 103.591C194.118 104.963 194.35 106.315 194.543 107.687C194.639 108.285 194.736 108.884 194.813 109.483C195.026 110.816 195.219 112.13 195.393 113.463C195.509 114.216 195.605 114.97 195.702 115.704C195.818 116.457 195.895 117.211 195.992 117.945C196.108 118.872 196.224 119.761 196.32 120.688C196.455 121.731 196.571 122.755 196.687 123.798C196.803 124.745 196.9 125.672 196.996 126.638C197.189 128.415 197.344 130.193 197.499 131.97C197.653 133.554 197.769 135.158 197.904 136.761C197.924 136.954 197.943 137.128 197.943 137.302C198.059 138.983 198.175 140.663 198.271 142.344C198.387 144.083 198.484 145.86 198.561 147.599H154.592C154.572 127.797 154.572 108.054 154.572 88.2712C154.572 87.9815 154.553 87.6724 154.534 87.3826V87.3246C154.515 86.861 154.437 86.3973 154.36 85.953C153.278 79.7904 147.888 75.0959 141.416 75.0959H95.2449C97.0608 71.5413 99.0313 68.0639 101.118 64.6445C104.576 58.9455 108.382 53.459 112.496 48.2043H154.572V52.8988H200.145C202.927 56.7046 205.535 60.6262 207.989 64.6252C210.075 68.0446 212.045 71.522 213.861 75.0766H204.434C197.827 75.1539 192.534 79.9642 191.471 86.011Z" fill="#1B75CE"/>
<path d="M139.33 20.926C136.413 27.7069 133.728 34.5843 131.255 41.5197C130.463 43.7414 129.671 46.021 128.937 48.2619C128.009 50.9859 127.159 53.7291 126.29 56.4724C125.459 59.1963 124.667 61.9395 123.894 64.6828H101.118C102.798 61.9009 104.595 59.1577 106.43 56.4724C108.362 53.6712 110.391 50.9279 112.496 48.2619C114.293 45.963 116.148 43.7027 118.06 41.5197C124.532 34.0627 131.66 27.166 139.33 20.926Z" fill="#F739BD"/>
<path d="M154.553 9.89526C154.553 20.4433 154.553 30.9912 154.534 41.5392V48.2814H128.917C129.671 46.0405 130.463 43.7609 131.236 41.5392C133.709 34.5845 136.394 27.7071 139.311 20.9455C144.179 16.9659 149.26 13.276 154.553 9.89526Z" fill="#E528AB"/>
<path d="M196.59 48.2812H180.17C179.416 46.0403 178.624 43.7607 177.851 41.539C175.379 34.5843 172.693 27.7068 169.776 20.9453C177.446 27.1659 184.555 34.082 191.027 41.539C192.939 43.722 194.794 45.9823 196.59 48.2812Z" fill="#F22AAD"/>
<path d="M196.59 48.2814H112.496C114.293 45.9825 116.148 43.7222 118.06 41.5392H148.081C151.655 41.5392 154.553 38.6414 154.553 35.0482C154.534 26.6639 154.534 18.2602 154.534 9.89526C159.808 13.276 164.908 16.9659 169.757 20.9262C172.075 26.3161 174.258 31.764 176.287 37.2698C177.233 39.8199 179.648 41.5199 182.372 41.5199H191.007C192.939 43.7222 194.794 45.9825 196.59 48.2814Z" fill="#AD1486"/>
<path d="M198.812 156.002H154.592V147.637H198.523C198.658 150.419 198.754 153.201 198.812 156.002Z" fill="#F67716"/>
<path d="M154.573 48.2815H154.534V64.7217H154.573V48.2815Z" fill="#D6D0FF"/>
<path d="M117.365 238.338C112.168 238.338 106.933 238.357 101.736 238.357C100.442 238.357 99.0701 238.319 97.9882 237.604C97.1189 237.005 96.5973 236.058 96.1336 235.151C86.5902 217.126 80.5048 197.363 77.8775 177.117C77.3366 172.867 76.9309 168.617 76.6797 164.348C76.5252 161.585 76.4286 158.784 76.4093 156.002C76.3706 153.22 76.4093 150.419 76.5252 147.637H110.584C110.449 150.419 110.352 153.201 110.294 156.002C110.217 158.784 110.198 161.566 110.178 164.348C110.178 168.617 110.236 172.848 110.371 177.117C111.048 197.672 113.366 218.189 117.365 238.338Z" fill="#F739BD"/>
<path d="M110.584 147.637H154.515V164.367C154.515 189.018 154.495 213.668 154.495 238.319C142.112 238.338 129.748 238.338 117.365 238.338C112.554 214.016 110.14 189.192 110.178 164.367C110.198 158.803 110.313 153.201 110.584 147.637Z" fill="#E528AB"/>
<path d="M232.697 156.002C232.678 158.784 232.581 161.586 232.427 164.348C232.176 168.618 231.77 172.868 231.229 177.118C228.602 197.364 222.516 217.107 212.973 235.151C212.49 236.078 211.968 237.006 211.118 237.604C210.036 238.319 208.665 238.358 207.37 238.358C202.174 238.358 196.938 238.339 191.742 238.339C192.147 236.271 192.553 234.166 192.92 232.099C193.21 230.553 193.48 229.008 193.732 227.443C193.751 227.424 193.751 227.404 193.751 227.385C193.905 226.477 194.06 225.608 194.195 224.7C194.446 223.173 194.678 221.667 194.891 220.14C194.91 220.063 194.91 219.986 194.929 219.909C194.987 219.561 195.026 219.194 195.084 218.846C195.296 217.416 195.49 216.026 195.663 214.596C195.934 212.606 196.185 210.616 196.417 208.626C196.649 206.637 196.88 204.647 197.054 202.657C197.17 201.652 197.267 200.667 197.344 199.663C197.441 198.658 197.518 197.673 197.615 196.668C197.769 194.891 197.904 193.094 198.04 191.317C198.04 191.104 198.059 190.892 198.078 190.679C198.677 181.928 198.986 173.138 198.967 164.329C198.948 161.547 198.928 158.765 198.851 155.983C198.793 153.182 198.696 150.4 198.561 147.618H232.62C232.697 150.419 232.736 153.221 232.697 156.002Z" fill="#F22AAD"/>
<path d="M232.697 156.002C232.678 158.784 232.581 161.585 232.427 164.348C232.176 168.617 231.77 172.867 231.229 177.117H212.451C204.801 177.117 198.542 183.068 198.04 190.699C198.02 190.911 198.001 191.124 198.001 191.336C197.866 193.113 197.73 194.91 197.576 196.687C197.479 197.692 197.402 198.677 197.305 199.682C197.209 200.686 197.132 201.672 197.016 202.676C196.822 204.666 196.61 206.675 196.378 208.646C196.146 210.635 195.895 212.645 195.625 214.615C195.431 216.045 195.238 217.436 195.045 218.865C194.987 219.213 194.949 219.58 194.891 219.928C194.871 220.005 194.871 220.082 194.852 220.159C194.639 221.686 194.408 223.192 194.156 224.719C194.021 225.627 193.867 226.496 193.712 227.404C193.712 227.423 193.712 227.443 193.693 227.462C193.442 229.027 193.171 230.553 192.881 232.118C192.514 234.185 192.109 236.291 191.703 238.358C179.32 238.358 166.956 238.358 154.573 238.338C154.573 222.767 154.553 207.177 154.553 191.587C154.553 183.628 148.081 177.156 140.122 177.156H77.8581C77.3172 172.906 76.9115 168.656 76.6604 164.386C76.5058 161.624 76.4092 158.823 76.3899 156.041H232.697V156.002Z" fill="#AD1486"/>
<path d="M130.062 105.362C133.916 96.2188 130.856 86.1995 123.226 82.9838C115.597 79.7681 106.287 84.5736 102.433 93.7172C98.5795 102.861 101.64 112.88 109.27 116.096C116.899 119.312 126.208 114.506 130.062 105.362Z" fill="#F4E6FD"/>
<path d="M107.165 139.504C111.465 139.504 114.95 136.018 114.95 131.718C114.95 127.419 111.465 123.933 107.165 123.933C102.865 123.933 99.3794 127.419 99.3794 131.718C99.3794 136.018 102.865 139.504 107.165 139.504Z" fill="#F4E6FD"/>
<path d="M130.062 105.362C133.916 96.2188 130.856 86.1995 123.226 82.9838C115.597 79.7681 106.287 84.5736 102.433 93.7172C98.5795 102.861 101.64 112.88 109.27 116.096C116.899 119.312 126.208 114.506 130.062 105.362Z" stroke="url(#paint3_linear_17_86)" stroke-width="3.86373" stroke-miterlimit="10"/>
<path d="M107.165 139.504C111.465 139.504 114.95 136.018 114.95 131.718C114.95 127.419 111.465 123.933 107.165 123.933C102.865 123.933 99.3794 127.419 99.3794 131.718C99.3794 136.018 102.865 139.504 107.165 139.504Z" stroke="url(#paint4_linear_17_86)" stroke-width="3.86373" stroke-miterlimit="10"/>
<path d="M125.054 202.213C128.671 202.213 131.603 199.28 131.603 195.664C131.603 192.047 128.671 189.115 125.054 189.115C121.437 189.115 118.505 192.047 118.505 195.664C118.505 199.28 121.437 202.213 125.054 202.213Z" fill="#F4E6FD"/>
<path d="M154.592 202.213C158.209 202.213 161.141 199.28 161.141 195.664C161.141 192.047 158.209 189.115 154.592 189.115C150.975 189.115 148.043 192.047 148.043 195.664C148.043 199.28 150.975 202.213 154.592 202.213Z" fill="#F4E6FD"/>
<path d="M184.111 202.213C187.728 202.213 190.66 199.28 190.66 195.664C190.66 192.047 187.728 189.115 184.111 189.115C180.494 189.115 177.562 192.047 177.562 195.664C177.562 199.28 180.494 202.213 184.111 202.213Z" fill="#F4E6FD"/>
<path d="M239.266 151.385V160.619C239.266 162.686 237.604 164.367 235.518 164.367H73.0672C71.0001 164.367 69.3193 162.706 69.3193 160.619V151.385C69.3193 149.318 70.9807 147.637 73.0672 147.637H235.518C237.585 147.637 239.266 149.318 239.266 151.385Z" fill="#D6D0FF"/>
<path d="M93.7187 122.562C93.3517 124.184 93.0039 125.749 92.6948 127.237C93.0039 125.749 93.3323 124.204 93.7187 122.562Z" fill="#A89FD6"/>
<path d="M154.553 9.89526C154.553 9.89526 74.9604 55.0043 76.4093 156.002C76.4093 156.002 74.6319 194.813 96.7711 236.252H154.631" stroke="url(#paint5_linear_17_86)" stroke-width="3.86373" stroke-miterlimit="10"/>
<path d="M154.36 9.89526C154.36 9.89526 233.953 55.0043 232.504 156.002C232.504 156.002 234.282 194.813 212.142 236.252H154.302" stroke="url(#paint6_linear_17_86)" stroke-width="3.86373" stroke-miterlimit="10"/>
<path d="M123.45 48.2815C122.253 50.2134 121.132 52.1839 120.031 54.1157C119.471 55.101 118.91 56.0669 118.408 57.0328C117.539 58.5977 116.708 60.1625 115.897 61.7273C115.51 62.4421 115.143 63.1569 114.776 63.8523C114.738 63.9296 114.699 64.0262 114.66 64.1035C114.564 64.316 114.448 64.5092 114.351 64.7024H98.3746C97.0223 64.7024 96.2882 63.1569 97.0996 62.1137L104.19 52.9759L105.503 51.3145C107.01 49.4213 109.29 48.2815 111.705 48.2815H123.45Z" fill="#D6D0FF"/>
<path d="M134.636 64.7214H114.332C114.428 64.5282 114.544 64.335 114.641 64.1225C114.68 64.0452 114.718 63.9487 114.757 63.8714C115.124 63.1566 115.491 62.4418 115.877 61.7463C116.689 60.1815 117.519 58.6167 118.389 57.0519C118.91 56.086 119.471 55.12 120.011 54.1348C121.113 52.2029 122.233 50.2324 123.431 48.3005H141.9C141.436 49.2472 140.972 50.1744 140.547 51.1211C140.219 51.8165 139.89 52.4927 139.581 53.1688C139.523 53.3041 139.446 53.4393 139.388 53.5745C138.924 54.5984 138.461 55.603 138.016 56.6269C136.819 59.3508 135.698 62.0554 134.636 64.7214Z" fill="#EDE1FF"/>
<path d="M174.567 64.7214H134.636C135.698 62.0747 136.819 59.3701 138.055 56.6269C138.499 55.603 138.963 54.5984 139.427 53.5745C139.485 53.4393 139.562 53.3041 139.62 53.1688C139.929 52.4734 140.257 51.7972 140.586 51.1211C141.011 50.1744 141.475 49.2472 141.938 48.3005H167.323C167.4 48.4551 167.477 48.629 167.555 48.7835C167.883 49.479 168.231 50.1551 168.54 50.8313C170.742 55.545 172.771 60.2008 174.567 64.7214Z" fill="#CFC4FC"/>
<path d="M210.732 64.7217H194.871C192.147 59.3125 189.134 53.7873 185.772 48.2815H197.421C199.836 48.2815 202.116 49.4213 203.603 51.3145L212.007 62.133C212.838 63.1762 212.065 64.7217 210.732 64.7217Z" fill="#BDB4ED"/>
<path d="M194.871 64.7217H174.568C172.771 60.2011 170.742 55.5646 168.501 50.8122C168.192 50.1168 167.845 49.4406 167.516 48.7645C167.439 48.6099 167.362 48.436 167.284 48.2815H185.753C189.134 53.7873 192.148 59.2931 194.871 64.7217Z" fill="#B3B1D9"/>
<path d="M190.331 164.367C190.312 164.618 190.293 164.869 190.273 165.14C190.293 164.889 190.312 164.618 190.331 164.367Z" fill="#A89FD6"/>
<path d="M101.736 244.346H94.3178C92.3473 244.346 90.6086 242.974 90.1257 241.062L86.5324 226.689C85.779 223.733 88.0393 220.874 91.0916 220.874H95.3031C95.9986 224.061 96.752 227.172 97.544 230.166C97.7566 231.055 97.9884 231.885 98.2202 232.735C98.2395 232.793 98.2588 232.871 98.2782 232.929C98.5679 234.03 98.877 235.092 99.2054 236.174C99.418 236.947 99.6498 237.7 99.8816 238.454C100.075 239.111 100.287 239.767 100.48 240.386C100.596 240.772 100.712 241.158 100.848 241.545C101.137 242.491 101.446 243.438 101.736 244.346Z" fill="#E4C8DE"/>
<path d="M137.978 244.346H101.736C101.427 243.419 101.118 242.492 100.828 241.545C100.693 241.159 100.577 240.772 100.461 240.386C100.268 239.748 100.055 239.092 99.8622 238.454C99.6304 237.681 99.3986 236.928 99.1861 236.174C98.8576 235.093 98.5485 234.03 98.2588 232.929C98.2394 232.871 98.2201 232.794 98.2008 232.736C97.969 231.886 97.7372 231.055 97.5247 230.166C96.7133 227.172 95.9598 224.062 95.2837 220.874H129.246C129.922 223.057 130.618 225.201 131.313 227.249C131.912 229.026 132.53 230.765 133.148 232.427C133.438 233.277 133.747 234.069 134.056 234.88C134.501 236.058 134.964 237.179 135.409 238.319C135.834 239.381 136.259 240.386 136.684 241.39C137.128 242.414 137.534 243.4 137.978 244.346Z" fill="#EDE1FF"/>
<path d="M222.323 226.689L218.73 241.062C218.247 242.975 216.528 244.346 214.538 244.346H207.467C209.824 237.218 212.026 229.394 213.9 220.855H217.783C220.836 220.874 223.077 223.733 222.323 226.689Z" fill="#BDB4ED"/>
<path d="M213.9 220.874C212.026 229.394 209.824 237.237 207.467 244.366H171.225C172.075 242.453 172.906 240.425 173.756 238.338C175.147 234.861 176.519 231.171 177.852 227.268C178.161 226.341 178.489 225.433 178.798 224.487C178.856 224.313 178.914 224.12 178.991 223.907C179.301 222.902 179.629 221.917 179.938 220.893H213.9V220.874Z" fill="#B3B1D9"/>
<path d="M179.938 220.874C179.629 221.898 179.3 222.883 178.991 223.888C178.914 224.1 178.856 224.293 178.798 224.467C178.489 225.414 178.161 226.322 177.852 227.249C176.519 231.171 175.147 234.861 173.756 238.319C172.906 240.405 172.075 242.434 171.225 244.346H137.978C137.534 243.38 137.128 242.414 136.703 241.39C136.278 240.386 135.853 239.381 135.428 238.319C134.983 237.179 134.52 236.058 134.075 234.88C133.766 234.069 133.457 233.257 133.168 232.427C132.53 230.765 131.912 229.026 131.332 227.249C130.617 225.201 129.922 223.057 129.265 220.874H179.938Z" fill="#CFC4FC"/>
<path d="M145.57 259.898H111.106C108.787 259.898 106.759 258.333 106.218 256.073L103.262 244.346H137.997C138.326 245.1 138.654 245.853 138.982 246.549C139.523 247.785 140.084 248.964 140.624 250.123C141.03 251.031 141.455 251.881 141.88 252.731C142.209 253.388 142.518 254.025 142.827 254.624C143.735 256.498 144.662 258.275 145.57 259.898Z" fill="#A6A1D9"/>
<path d="M207.467 244.346C205.632 249.968 203.661 255.165 201.71 259.898H163.652C164.56 258.275 165.468 256.498 166.415 254.643C166.724 254.025 167.033 253.388 167.362 252.75C167.381 252.731 167.381 252.692 167.4 252.673C167.632 252.228 167.844 251.765 168.057 251.301C168.25 250.915 168.443 250.528 168.617 250.123C169.177 248.964 169.718 247.785 170.259 246.549C170.588 245.834 170.916 245.081 171.245 244.346H207.467Z" fill="#8279BA"/>
<path d="M171.225 244.346C170.897 245.1 170.568 245.853 170.24 246.549C169.68 247.785 169.139 248.964 168.598 250.123C168.424 250.528 168.231 250.915 168.038 251.301C167.825 251.765 167.613 252.228 167.381 252.673C167.362 252.692 167.361 252.731 167.342 252.75C167.014 253.407 166.705 254.044 166.396 254.643C165.449 256.498 164.541 258.275 163.633 259.898H145.551C144.643 258.275 143.735 256.498 142.788 254.643C142.479 254.025 142.17 253.388 141.842 252.75C141.417 251.9 140.992 251.05 140.586 250.142C140.026 248.983 139.465 247.804 138.944 246.568C138.615 245.853 138.287 245.1 137.958 244.366H171.225V244.346Z" fill="#999ACA"/>
<path d="M89.2949 164.367H73.0479C70.9808 164.367 69.3 162.706 69.3 160.619V151.385C69.3 149.318 70.9615 147.637 73.0479 147.637H89.8165C89.7778 148.217 89.7392 148.777 89.7006 149.337C89.604 151.037 89.5267 152.756 89.488 154.437C89.3528 157.818 89.2949 161.121 89.2949 164.367Z" fill="#E4C8DE"/>
<path d="M118.872 164.367H89.3142C89.3142 161.122 89.3722 157.818 89.4881 154.457C89.546 152.776 89.6233 151.057 89.7006 149.357C89.7392 148.777 89.7779 148.217 89.8165 147.657H118.234C118.234 148.932 118.254 150.187 118.292 151.443C118.312 152.796 118.35 154.109 118.408 155.423C118.466 156.988 118.524 158.533 118.601 160.079C118.698 161.508 118.794 162.938 118.872 164.367Z" fill="#EDE1FF"/>
<path d="M239.266 151.385V160.619C239.266 162.686 237.604 164.367 235.518 164.367H219.908C219.908 158.958 219.754 153.375 219.387 147.637H235.518C237.585 147.637 239.266 149.318 239.266 151.385Z" fill="#BDB4ED"/>
<path d="M190.93 150.902C190.95 149.82 190.969 148.738 190.969 147.637H219.387C219.754 153.356 219.908 158.939 219.908 164.367H190.332C190.621 160.001 190.834 155.519 190.93 150.902Z" fill="#B3B1D9"/>
<path d="M190.969 147.637C190.969 148.739 190.95 149.82 190.93 150.902C190.834 155.519 190.621 160.001 190.331 164.367C190.312 164.619 190.293 164.87 190.273 165.14C190.293 164.889 190.312 164.619 190.312 164.367H118.872C118.794 162.938 118.698 161.508 118.601 160.04C118.524 158.495 118.466 156.949 118.408 155.384C118.35 154.071 118.311 152.757 118.292 151.405C118.253 150.149 118.234 148.893 118.234 147.618H190.969V147.637Z" fill="#CFC4FC"/>
<path d="M239.266 151.385V160.619C239.266 162.706 237.604 164.367 235.518 164.367H190.351C190.331 164.618 190.312 164.869 190.293 165.14C190.312 164.889 190.331 164.618 190.331 164.367H73.0672C71.0001 164.367 69.3193 162.706 69.3193 160.619V151.385C69.3193 149.318 71.0001 147.637 73.0672 147.637H235.518C237.604 147.637 239.266 149.318 239.266 151.385Z" stroke="url(#paint7_linear_17_86)" stroke-width="1.93187" stroke-miterlimit="10"/>
<path d="M171.225 244.346H137.978H103.243L106.199 256.073C106.759 258.314 108.768 259.898 111.086 259.898H145.551H163.633H198.89C200.59 259.898 202.116 258.874 202.753 257.309C204.357 253.291 205.941 248.964 207.467 244.346H171.225Z" stroke="url(#paint8_linear_17_86)" stroke-width="3.86373" stroke-miterlimit="10"/>
<path d="M210.732 64.7214H98.3746C97.0223 64.7214 96.2882 63.1759 97.0996 62.1327L104.19 52.995L105.503 51.3336C107.01 49.4403 109.29 48.3005 111.705 48.3005H197.421C199.836 48.3005 202.116 49.4403 203.603 51.3336L212.007 62.152C212.838 63.1759 212.065 64.7214 210.732 64.7214Z" stroke="url(#paint9_linear_17_86)" stroke-width="3.86373" stroke-miterlimit="10"/>
<path d="M217.783 220.874H213.9H179.938H129.284H95.3223H91.1108C88.0585 220.874 85.8175 223.733 86.5516 226.689L90.1449 241.062C90.6278 242.975 92.3472 244.346 94.337 244.346H101.755H137.978H171.225H207.467H214.557C216.528 244.346 218.266 242.975 218.749 241.062L222.342 226.689C223.077 223.733 220.836 220.874 217.783 220.874Z" stroke="url(#paint10_linear_17_86)" stroke-width="3.86373" stroke-miterlimit="10"/>
<path d="M125.054 202.213C128.671 202.213 131.603 199.28 131.603 195.664C131.603 192.047 128.671 189.115 125.054 189.115C121.437 189.115 118.505 192.047 118.505 195.664C118.505 199.28 121.437 202.213 125.054 202.213Z" stroke="url(#paint11_linear_17_86)" stroke-width="3.86373" stroke-miterlimit="10"/>
<path d="M154.592 202.213C158.209 202.213 161.141 199.28 161.141 195.664C161.141 192.047 158.209 189.115 154.592 189.115C150.975 189.115 148.043 192.047 148.043 195.664C148.043 199.28 150.975 202.213 154.592 202.213Z" stroke="url(#paint12_linear_17_86)" stroke-width="3.86373" stroke-miterlimit="10"/>
<path d="M184.111 202.213C187.728 202.213 190.66 199.28 190.66 195.664C190.66 192.047 187.728 189.115 184.111 189.115C180.494 189.115 177.562 192.047 177.562 195.664C177.562 199.28 180.494 202.213 184.111 202.213Z" stroke="url(#paint13_linear_17_86)" stroke-width="3.86373" stroke-miterlimit="10"/>
</g>
<defs>
<filter id="filter0_f_17_86" x="0.301025" y="23" width="313" height="440" filterUnits="userSpaceOnUse" color-interpolation-filters="sRGB">
<feFlood flood-opacity="0" result="BackgroundImageFix"/>
<feBlend mode="normal" in="SourceGraphic" in2="BackgroundImageFix" result="shape"/>
<feGaussianBlur stdDeviation="50" result="effect1_foregroundBlur_17_86"/>
</filter>
<linearGradient id="paint0_linear_17_86" x1="119.154" y1="289.099" x2="189.863" y2="289.099" gradientUnits="userSpaceOnUse">
<stop offset="0.3307" stop-color="#1D1D43"/>
<stop offset="1" stop-color="#0F0C33"/>
</linearGradient>
<linearGradient id="paint1_linear_17_86" x1="32.0538" y1="213.086" x2="101.584" y2="213.086" gradientUnits="userSpaceOnUse">
<stop offset="0.3307" stop-color="#1D1D43"/>
<stop offset="1" stop-color="#0F0C33"/>
</linearGradient>
<linearGradient id="paint2_linear_17_86" x1="210.022" y1="213.086" x2="279.553" y2="213.086" gradientUnits="userSpaceOnUse">
<stop offset="0.3307" stop-color="#1D1D43"/>
<stop offset="1" stop-color="#0F0C33"/>
</linearGradient>
<linearGradient id="paint3_linear_17_86" x1="109.49" y1="115.576" x2="123.01" y2="83.4981" gradientUnits="userSpaceOnUse">
<stop offset="0.3307" stop-color="#1D1D43"/>
<stop offset="1" stop-color="#0F0C33"/>
</linearGradient>
<linearGradient id="paint4_linear_17_86" x1="97.4456" y1="131.711" x2="116.865" y2="131.711" gradientUnits="userSpaceOnUse">
<stop offset="0.3307" stop-color="#1D1D43"/>
<stop offset="1" stop-color="#0F0C33"/>
</linearGradient>
<linearGradient id="paint5_linear_17_86" x1="74.4349" y1="123.204" x2="155.499" y2="123.204" gradientUnits="userSpaceOnUse">
<stop offset="0.3307" stop-color="#1D1D43"/>
<stop offset="1" stop-color="#0F0C33"/>
</linearGradient>
<linearGradient id="paint6_linear_17_86" x1="234.47" y1="123.204" x2="153.406" y2="123.204" gradientUnits="userSpaceOnUse">
<stop offset="0.3307" stop-color="#1D1D43"/>
<stop offset="1" stop-color="#0F0C33"/>
</linearGradient>
<linearGradient id="paint7_linear_17_86" x1="68.3449" y1="155.998" x2="240.223" y2="155.998" gradientUnits="userSpaceOnUse">
<stop offset="0.3307" stop-color="#1D1D43"/>
<stop offset="1" stop-color="#0F0C33"/>
</linearGradient>
<linearGradient id="paint8_linear_17_86" x1="100.764" y1="252.128" x2="210.129" y2="252.128" gradientUnits="userSpaceOnUse">
<stop offset="0.3307" stop-color="#1D1D43"/>
<stop offset="1" stop-color="#0F0C33"/>
</linearGradient>
<linearGradient id="paint9_linear_17_86" x1="154.554" y1="46.3449" x2="154.554" y2="66.6442" gradientUnits="userSpaceOnUse">
<stop offset="0.3307" stop-color="#1D1D43"/>
<stop offset="1" stop-color="#0F0C33"/>
</linearGradient>
<linearGradient id="paint10_linear_17_86" x1="84.4812" y1="232.611" x2="224.401" y2="232.611" gradientUnits="userSpaceOnUse">
<stop offset="0.3307" stop-color="#1D1D43"/>
<stop offset="1" stop-color="#0F0C33"/>
</linearGradient>
<linearGradient id="paint11_linear_17_86" x1="116.57" y1="195.664" x2="133.539" y2="195.664" gradientUnits="userSpaceOnUse">
<stop offset="0.3307" stop-color="#1D1D43"/>
<stop offset="1" stop-color="#0F0C33"/>
</linearGradient>
<linearGradient id="paint12_linear_17_86" x1="146.101" y1="195.664" x2="163.069" y2="195.664" gradientUnits="userSpaceOnUse">
<stop offset="0.3307" stop-color="#1D1D43"/>
<stop offset="1" stop-color="#0F0C33"/>
</linearGradient>
<linearGradient id="paint13_linear_17_86" x1="175.631" y1="195.664" x2="192.6" y2="195.664" gradientUnits="userSpaceOnUse">
<stop offset="0.3307" stop-color="#1D1D43"/>
<stop offset="1" stop-color="#0F0C33"/>
</linearGradient>
<clipPath id="clip0_17_86">
<rect width="247.491" height="329.615" fill="white" transform="translate(32.0537 8.2146)"/>
</clipPath>
</defs>
</svg>
