<svg width="298" height="395" viewBox="0 0 298 395" fill="none" xmlns="http://www.w3.org/2000/svg">
<g clip-path="url(#clip0_143_4316)">
<path d="M91.5011 175.321C90.0702 174.808 88.6092 174.296 87.1482 173.769C86.4854 173.528 85.7926 173.287 85.1299 173.046C76.2283 169.717 67.5827 165.365 64.7963 154.595C63.5311 149.76 63.6817 144.624 65.203 139.865C69.3299 126.942 78.3821 97.2847 88.4736 55.5632C95.0707 28.2259 105.735 15.5287 115.028 9.69971C104.695 13.3899 90.3112 24.7917 82.1175 58.6509C72.0109 100.372 62.9587 130.029 58.8318 142.952C57.3105 147.712 57.1599 152.848 58.4402 157.683C61.2417 168.452 69.8872 172.805 78.7737 176.134C80.8975 176.917 83.0664 177.67 85.16 178.423C85.5215 178.559 85.898 178.694 86.2595 178.815C87.344 179.191 88.4435 179.553 89.543 179.899C90.8082 178.619 92.0885 177.294 93.3386 175.938C92.7211 175.742 92.1035 175.546 91.5011 175.321Z" fill="#FF45CF"/>
<path d="M93.3387 175.953C94.6642 176.405 96.0047 176.842 97.3603 177.234C95.9896 176.842 94.6491 176.42 93.3387 175.953Z" fill="#F225B3"/>
<path d="M128.478 173.182C126.927 174.372 125.36 175.532 123.734 176.631C122.951 177.173 122.137 177.701 121.339 178.213C121.038 178.409 120.751 178.589 120.465 178.77C119.095 179.613 117.709 180.306 116.278 180.849C111.232 182.807 105.84 183.078 100.478 182.4C96.788 181.933 93.0978 181.029 89.5432 179.915C90.8084 178.634 92.0736 177.324 93.3237 175.968L93.3087 175.984C92.6911 175.773 92.0886 175.562 91.4711 175.351C91.441 175.336 91.4109 175.321 91.3807 175.321C100.975 166.058 110.148 150.469 121.008 158.768C125.36 162.187 127.288 167.459 128.478 173.182Z" fill="#F225B3"/>
<path d="M93.3387 175.953C94.6642 176.405 96.0047 176.842 97.3603 177.234C95.9896 176.842 94.6491 176.42 93.3387 175.953Z" fill="#180930"/>
<path d="M190.533 26.1174C171.118 -4.78961 146.823 -0.436714 134.759 4.42828C134.217 4.65421 133.689 4.88014 133.192 5.09101C129.457 6.73276 127.243 8.25401 127.243 8.25401C127.243 8.25401 122.077 7.16955 115.013 9.69995C105.719 15.5139 95.0556 28.2261 88.4585 55.5484C78.367 97.2549 69.3148 126.927 65.1879 139.85C63.6666 144.61 63.516 149.746 64.7812 154.581C67.5677 165.35 76.2132 169.703 85.1148 173.031C85.7775 173.287 86.4704 173.528 87.1331 173.754C88.564 174.266 89.9948 174.779 91.4107 175.291C101.005 166.043 110.178 150.438 121.037 158.753C125.36 162.187 127.288 167.443 128.478 173.182C147.305 158.692 161.418 137.109 171.932 115.254C183.846 90.477 208.05 53.997 190.533 26.1174Z" fill="#F225B3"/>
<path d="M98.5954 81.5153C99.6648 82.3738 100.855 83.0215 101.924 83.88C103.4 85.0548 104.62 86.561 105.825 88.0522C108.582 91.4562 111.323 94.8752 114.079 98.2792C115.374 99.8758 116.685 101.533 117.348 103.521C118.312 106.413 117.784 109.681 116.534 112.437C115.284 115.194 113.386 117.543 111.519 119.848C109.741 122.047 107.949 124.231 106.172 126.43C104.033 129.066 101.849 131.777 100.734 135.075C103.129 135.708 105.569 136.13 108.024 136.295C108.566 136.341 109.124 136.356 109.621 136.1C110.027 135.889 110.329 135.527 110.645 135.196C112.633 133.117 115.435 132.274 118.025 131.22C126.565 127.785 134.368 120.887 137.033 111.473C137.711 109.094 138.043 106.548 137.666 104.093C137.395 102.361 136.777 100.704 136.16 99.0775C135.196 96.532 134.247 93.9564 132.982 91.5766C128.659 83.398 121.128 77.8101 113.492 73.2463C110.901 71.6949 108.235 70.2189 105.373 69.3603C102.406 68.4566 95.4023 66.3781 93.8058 70.5954C92.3448 74.4512 95.9295 79.3765 98.5954 81.5153Z" fill="#180930"/>
<path d="M163.286 105.795C159.973 109.847 159.867 115.811 160.033 121.218C157.322 120.721 155.198 118.492 153.27 116.369C153.044 116.112 152.803 115.841 152.698 115.495C152.562 115.058 152.683 114.576 152.788 114.124C153.586 110.54 153.391 106.774 154.053 103.174C154.716 99.5594 156.599 95.809 159.852 94.7246C162.096 93.9715 164.702 94.3781 167.007 94.4534C168.724 94.4986 170.35 94.589 170.802 96.7278C171.706 100.96 165.365 103.219 163.286 105.795Z" fill="#180930"/>
<path d="M125.466 18.0443C125.21 19.445 125.345 21.1319 126.43 21.9754C129.05 23.9937 130.346 24.2949 129.276 28.3165C127.499 35.004 125.571 41.9174 122.122 47.8518C121.399 49.1019 114.561 58.124 112.904 54.0121C112.723 53.5602 112.859 53.0481 112.844 52.5511C112.784 51.4064 111.759 50.5328 110.705 50.3521C109.078 50.0508 107.527 51.2106 105.915 50.834C103.611 50.2918 104.439 48.9061 103.249 47.7463C102.285 46.7974 100.704 47.0234 99.6043 47.7765C96.2003 50.0659 90.0701 55.925 90.5371 46.6167C91.1847 34.1003 100.026 23.5117 109.605 17.5171C113.868 14.8511 118.221 12.155 123.041 11.1308C123.628 11.0103 124.261 10.92 124.803 11.176C127.243 12.3207 125.797 16.1766 125.466 18.0443Z" fill="#FF45CF"/>
<path d="M141.13 4.95521C139.338 5.93423 137.53 6.89819 135.738 7.87722C134.91 8.32908 134.036 8.81106 133.494 9.6244C132.952 10.4377 132.876 11.718 133.584 12.3807C133.961 12.7272 134.488 12.8477 134.97 12.938C136.25 13.179 137.546 13.3748 138.856 13.5254C139.127 13.5556 139.413 13.6007 139.609 13.7815C140.181 14.3087 139.654 15.2726 139.549 16.0709C139.398 17.3512 140.513 18.3904 141.597 18.9327C142.847 19.5502 144.203 19.8514 145.543 20.1527C151.975 21.5986 158.406 23.0596 164.838 24.5056C166.028 24.7767 167.233 25.0478 168.347 25.575C169.432 26.1021 170.396 26.8552 171.405 27.5481C174.312 29.5814 177.49 31.1479 180.803 32.2022C181.074 32.2926 181.436 32.3528 181.617 32.1118C181.692 32.0064 181.722 31.8558 181.752 31.7202C181.918 30.681 182.069 29.5664 181.662 28.6175C181.074 27.2167 179.508 26.6293 178.589 25.4394C178.228 24.9574 177.972 24.3851 177.851 23.7826C177.701 23.0295 177.806 22.1559 178.318 21.6287C178.83 21.0865 179.809 21.0865 180.186 21.7492C180.653 19.746 179.583 17.6976 178.333 16.1161C173.724 10.2419 166.66 7.35005 159.732 5.49744C156.328 4.57866 152.848 3.85569 149.324 3.8105C145.814 3.76531 142.245 4.42804 139.112 6.17522" fill="#FF45CF"/>
<path d="M78.7589 176.134C69.8573 172.82 61.2118 168.452 58.4253 157.683C57.1601 152.833 57.3107 147.697 58.832 142.938C62.959 130.03 72.0112 100.342 82.1177 58.636C95.9144 1.68692 127.243 8.25391 127.243 8.25391C127.243 8.25391 163.573 -16.779 190.533 26.1173C208.05 54.012 183.846 90.4769 171.932 115.254C159.973 140.106 143.39 164.642 120.48 178.755C109.545 185.487 96.4115 182.475 85.1602 178.423C83.0516 177.67 80.8977 176.932 78.7589 176.134Z" stroke="#180930" stroke-width="1.98862" stroke-miterlimit="10" stroke-linecap="round" stroke-linejoin="round"/>
<path d="M102.195 80.1746C102.195 80.1746 103.069 91.9982 94.0768 119.095" stroke="#180930" stroke-width="1.98862" stroke-miterlimit="10" stroke-linecap="round" stroke-linejoin="round"/>
<path d="M95.4325 77.9907C95.4325 77.9907 91.9834 100.087 90.5073 103.641" stroke="#180930" stroke-width="1.98862" stroke-miterlimit="10" stroke-linecap="round" stroke-linejoin="round"/>
<path d="M102.346 55.7141C102.346 55.7141 108.371 42.2638 112.738 36.1035" stroke="#180930" stroke-width="1.98862" stroke-miterlimit="10" stroke-linecap="round" stroke-linejoin="round"/>
<path d="M169.07 141.341C167.067 135.196 155.273 122.574 155.273 122.574C144.097 112.392 128.854 113.025 128.854 113.025L128.734 103.445L128.689 100.312C141.973 106.322 156.026 104.168 156.026 104.168L155.815 112.317L155.8 113.326C167.202 121.746 169.326 134.066 169.326 134.066C170.546 138.6 169.07 141.341 169.07 141.341Z" fill="#FEDBC8"/>
<path d="M155.83 112.317C141.747 111.082 132.439 105.885 128.734 103.43L128.689 100.297C141.973 106.307 156.026 104.153 156.026 104.153L155.83 112.317Z" fill="#180930"/>
<path d="M184.072 89.8743C175.698 102.195 160.048 105.358 146.733 104.484C132.123 103.535 118.266 97.4956 109.305 84.5424C107.572 82.0421 106.322 79.813 105.509 78.1561L105.63 78.0959C104.093 78.608 102.436 78.7285 100.734 78.3971C97.0292 77.6742 91.2454 72.1615 92.2696 65.233L92.2997 65.0221C93.1131 60.1421 97.225 55.1114 102.316 55.7139C106.111 56.1808 109.425 59.6601 110.329 64.3896C110.329 64.3896 137.139 47.7311 135.362 22.5174C135.663 22.5024 135.979 22.5174 136.311 22.5024C140.844 22.4873 147.065 22.8789 154.249 24.6863C157.277 25.4394 160.455 26.4335 163.738 27.759C175.381 32.398 183.575 39.0554 188.365 43.6041C188.545 46.7521 188.696 50.3217 188.847 54.4939C188.937 57.0845 188.877 59.3739 188.47 62.3863L188.455 62.4616C188.319 63.4407 188.093 64.3444 187.853 65.2933C187.22 67.7333 188.545 71.1975 188.591 73.7581C188.741 79.4967 187.235 85.1901 184.072 89.8743Z" fill="#FEDBC8"/>
<path d="M124.472 61.1665C122.047 62.9288 119.517 64.5254 116.941 65.9713C114.411 67.4022 111.217 70.2188 108.521 67.8239C105.569 65.2031 103.506 63.3806 99.68 62.6426C97.1044 62.5372 94.6493 63.7723 92.3298 65.0073C93.1431 60.1273 97.255 55.0966 102.346 55.6991C106.142 56.166 109.455 59.6453 110.359 64.3747C110.359 64.3747 137.169 47.7163 135.392 22.5026C135.693 22.4875 136.009 22.5026 136.341 22.4875C137.049 24.3402 137.41 26.3886 137.531 28.2563C138.389 40.0497 133.856 54.3736 124.472 61.1665Z" fill="#F0A89C"/>
<path d="M188.5 62.3712L188.485 62.4465C186.557 57.8677 186 52.5056 183.967 47.9268C182.084 43.6794 178.966 40.2151 175.683 37.1124C174.493 35.9827 173.273 34.8983 171.992 33.8891C170.456 32.6992 168.844 31.6298 167.203 30.6207C164.627 29.0844 161.961 27.7137 159.235 26.554C157.608 25.8611 155.951 25.2586 154.28 24.6863C157.307 25.4394 160.485 26.4335 163.769 27.7589C175.411 32.398 183.605 39.0553 188.395 43.604C188.576 46.752 188.726 50.3217 188.877 54.4938C188.967 57.0694 188.922 59.3588 188.5 62.3712Z" fill="#F0A89C"/>
<path d="M124.165 83.6159C129.132 83.3319 132.973 79.8632 132.744 75.8684C132.516 71.8736 128.304 68.8655 123.338 69.1495C118.371 69.4336 114.53 72.9022 114.759 76.897C114.987 80.8918 119.199 83.8999 124.165 83.6159Z" fill="#FF94AD"/>
<path d="M178.692 79.7609C183.658 79.4769 187.499 76.0082 187.271 72.0134C187.042 68.0186 182.831 65.0105 177.865 65.2945C172.898 65.5786 169.057 69.0472 169.286 73.042C169.514 77.0368 173.725 80.045 178.692 79.7609Z" fill="#FF94AD"/>
<path d="M156.712 72.1765C158.176 69.226 157.431 65.8745 155.047 64.6907C152.663 63.507 149.542 64.9392 148.077 67.8898C146.612 70.8403 147.358 74.1918 149.742 75.3755C152.126 76.5593 155.247 75.127 156.712 72.1765Z" fill="#F0A89C"/>
<path d="M160.259 80.1746L159.551 82.2832C154.822 83.0062 141.944 82.8556 138.736 82.8104C138.103 82.3435 137.501 81.8163 136.973 81.2138C136.988 81.1988 159.16 81.6054 160.259 80.1746Z" fill="#D8D8D8"/>
<path d="M159.566 82.2832L158.196 86.3499C158.196 86.3499 145.709 88.0218 138.751 82.8104C141.959 82.8556 154.837 83.0062 159.566 82.2832Z" fill="white"/>
<path d="M157.398 90.9588C149.339 90.1605 141.613 86.7716 138.058 85.0244C137.727 83.9851 137.501 82.8555 137.35 81.5752C137.35 81.5752 146.176 86.636 155.319 87.2987C155.304 87.2987 156.494 89.1513 157.398 90.9588Z" fill="#BC4444"/>
<path d="M158.316 93.9863C158.316 93.9863 142.08 98.309 138.043 85.0244C141.598 86.7716 149.339 90.1605 157.382 90.9588C158 92.1939 158.467 93.3988 158.316 93.9863Z" fill="#F46460"/>
<path d="M160.515 79.9784L158.602 86.1387L155.906 86.8316L158.286 93.3835L161.253 90.2205L164.054 84.3162L167.097 78.9241L160.515 79.9784Z" fill="#FF6352"/>
<path d="M108.28 76.7558C106.126 78.262 103.46 78.9096 100.749 78.3825C97.0438 77.6595 91.245 72.1468 92.2842 65.2334C93.0223 60.278 97.1944 55.0967 102.346 55.7143C106.141 56.1661 109.455 59.6605 110.359 64.3749C110.359 64.3749 137.169 47.7315 135.376 22.5027C141.763 22.3973 152.05 23.0751 163.753 27.7443C175.396 32.3834 183.605 39.0407 188.394 43.5894C188.56 46.7374 188.726 50.307 188.876 54.4641C188.967 57.0548 188.921 59.3442 188.5 62.3566C188.364 63.3507 188.123 64.2845 187.882 65.2635C187.235 67.7186 188.575 71.1678 188.635 73.7283C188.756 79.482 187.25 85.1904 184.072 89.8596C175.697 102.195 160.048 105.358 146.748 104.485C132.138 103.521 118.281 97.496 109.319 84.5277C107.587 82.0274 106.337 79.7983 105.539 78.1415" stroke="#180930" stroke-width="1.98862" stroke-miterlimit="10" stroke-linecap="round" stroke-linejoin="round"/>
<path d="M106.141 70.5653C106.141 70.5653 104.063 63.9682 97.3149 64.7213" stroke="#180930" stroke-width="1.98862" stroke-miterlimit="10" stroke-linecap="round" stroke-linejoin="round"/>
<path d="M151.447 51.0144L152.698 63.9526C152.969 63.9526 155.364 63.9526 156.719 65.9558C158.21 68.1398 157.201 70.8208 156.96 71.4685C155.861 74.3905 153.225 75.3846 152.788 75.5352" stroke="#180930" stroke-width="1.98862" stroke-miterlimit="10" stroke-linecap="round" stroke-linejoin="round"/>
<path d="M125.647 63.742C125.647 63.742 130.723 57.2353 139.127 62.4316" stroke="#180930" stroke-width="1.98862" stroke-miterlimit="10" stroke-linecap="round" stroke-linejoin="round"/>
<path d="M164.506 61.543C164.506 61.543 169.085 54.976 176.48 60.0368" stroke="#180930" stroke-width="1.98862" stroke-miterlimit="10" stroke-linecap="round" stroke-linejoin="round"/>
<path d="M168.618 78.4875C165.832 79.1955 162.819 79.7979 159.611 80.2649C150.906 81.5301 143.088 81.3644 136.582 80.6414C136.552 80.6414 137.018 83.458 137.064 83.6237C137.636 85.8679 138.645 88.0067 140.061 89.7689C145.167 96.0949 156.509 97.9777 161.208 90.2509C162.533 88.082 163.377 85.6118 164.521 83.3375C165.576 81.2589 166.675 79.7226 167.413 78.7737" stroke="#180930" stroke-width="1.98862" stroke-miterlimit="10" stroke-linecap="round" stroke-linejoin="round"/>
<path d="M160.5 80.1294L158.241 86.124C158.241 86.124 143.48 88.7448 136.582 80.6415" stroke="#180930" stroke-width="1.98862" stroke-miterlimit="10" stroke-linecap="round" stroke-linejoin="round"/>
<path d="M154.174 86.5005C154.174 86.5005 158.722 90.04 158.03 93.5645" stroke="#180930" stroke-width="1.98862" stroke-miterlimit="10" stroke-linecap="round" stroke-linejoin="round"/>
<path d="M144.112 40.2303C144.112 40.2303 137.003 35.3352 127.499 42.2637" stroke="#180930" stroke-width="1.98862" stroke-miterlimit="10" stroke-linecap="round" stroke-linejoin="round"/>
<path d="M157.803 39.7182C157.803 39.7182 164.476 34.1603 174.522 40.1249" stroke="#180930" stroke-width="1.98862" stroke-miterlimit="10" stroke-linecap="round" stroke-linejoin="round"/>
<path opacity="0.3" d="M179.433 49.7495L168.754 49.0416C163.03 48.665 157.804 53.3794 157.156 59.5247L157.141 59.6301C156.493 65.7754 160.635 71.1224 166.359 71.514L177.038 72.2219C182.761 72.5984 187.988 67.884 188.636 61.7388L188.651 61.6333C189.313 55.473 185.156 50.126 179.433 49.7495Z" fill="#A6F5FF"/>
<path d="M179.643 49.9L168.979 48.9511C163.256 48.439 157.954 53.0329 157.186 59.1781L157.171 59.2836C156.403 65.4138 160.439 70.8511 166.163 71.3632L176.827 72.3121C182.55 72.8242 187.852 68.2303 188.62 62.0851L188.635 61.9797C189.403 55.8495 185.352 50.4121 179.643 49.9Z" stroke="#180930" stroke-width="1.98862" stroke-miterlimit="10" stroke-linecap="round" stroke-linejoin="round"/>
<path opacity="0.3" d="M137.154 51.0749L126.475 50.367C120.751 49.9905 115.525 54.7049 114.877 60.8501L114.862 60.9556C114.215 67.1008 118.357 72.4478 124.08 72.8394L134.759 73.5473C140.483 73.9239 145.709 69.2095 146.357 63.0642L146.372 62.9588C147.034 56.7985 142.877 51.4515 137.154 51.0749Z" fill="#A6F5FF"/>
<path d="M136.265 50.5029L125.571 50.774C119.832 50.9246 115.013 56.1059 114.847 62.2963V62.4018C114.681 68.5922 119.245 73.5325 124.984 73.3819L135.677 73.1108C141.416 72.9602 146.236 67.7789 146.402 61.5884V61.483C146.552 55.3076 142.003 50.3522 136.265 50.5029Z" stroke="#180930" stroke-width="1.98862" stroke-miterlimit="10" stroke-linecap="round" stroke-linejoin="round"/>
<path d="M116.926 55.9246L108.536 58.2742" stroke="#180930" stroke-width="1.98862" stroke-miterlimit="10" stroke-linecap="round" stroke-linejoin="round"/>
<path d="M145.709 59.1933C145.709 59.1933 153.059 55.5031 157.789 58.5456" stroke="#180930" stroke-width="1.98862" stroke-miterlimit="10" stroke-linecap="round" stroke-linejoin="round"/>
<path d="M128.855 113.025C128.794 108.868 128.719 104.71 128.659 100.538" stroke="#180930" stroke-width="1.98862" stroke-miterlimit="10" stroke-linecap="round" stroke-linejoin="round"/>
<path d="M155.951 104.695L156.132 113.928" stroke="#180930" stroke-width="1.98862" stroke-miterlimit="10" stroke-linecap="round" stroke-linejoin="round"/>
<path d="M137.124 127.71C135.452 125.135 133.147 123.011 130.527 121.505C126.821 119.396 122.273 120.134 119.215 123.237C101.653 140.995 65.4741 175.351 49.885 193.335C44.4778 199.571 36.1636 208.728 25.2136 219.151C20.3034 225.793 16.6735 230.538 14.2937 233.204C13.7364 233.836 12.4712 235.237 12.5014 237.09C12.5164 237.587 12.6068 238.069 12.7574 238.491C13.0888 239.439 13.7063 240.193 14.1732 240.675C13.4201 240.418 12.7423 239.937 12.2302 239.274C11.9742 238.957 11.7784 238.596 11.6428 238.234C11.1307 236.999 11.1608 235.584 11.7332 234.333C11.2512 233.867 10.5132 233.038 10.1366 231.969C9.98601 231.547 9.88058 231.065 9.88058 230.568C9.85046 228.7 11.1157 227.315 11.6729 226.682C14.0527 224.016 17.6827 219.272 22.5928 212.629C33.5428 202.206 41.842 193.034 47.2643 186.813C62.8533 168.844 99.017 134.473 116.594 116.715C119.652 113.612 124.201 112.874 127.906 114.983C132.515 117.604 136.099 122.198 137.124 127.71Z" fill="#F0A89C"/>
<path d="M137.41 130.436C137.485 133.449 136.822 136.311 135.648 139.022C132.409 146.628 125.285 153.074 120.179 158.376C107.753 171.314 94.2725 183.078 80.6415 194.48C75.8367 198.516 71.0169 202.493 66.1218 206.364C64.8566 209.406 63.6215 212.81 62.522 216.545C62.2358 217.494 61.9798 218.443 61.7388 219.392C60.082 225.673 59.2234 231.442 58.7866 236.397C58.4553 236.337 58.154 236.261 57.8679 236.201C56.5274 235.855 55.5333 235.418 54.7802 234.906C53.8313 234.258 53.2589 233.535 52.9125 232.857C52.5058 232.059 52.295 231.201 52.1895 230.342C51.828 227.028 53.1987 223.625 52.0389 222.917C50.9243 222.224 48.4391 224.814 48.0324 225.236C37.7 236.126 31.9162 251.971 27.2922 251.323C26.8253 251.248 25.4396 250.872 24.5208 249.651C24.2949 249.35 24.1141 249.034 23.9936 248.718C23.9635 248.657 23.9484 248.597 23.9334 248.537C23.5568 247.543 23.5719 246.564 23.587 246.052C22.0055 247.136 19.9721 247.076 18.4659 245.871C17.8032 245.359 17.2911 244.636 16.9898 243.868C16.9748 243.838 16.9748 243.823 16.9597 243.807C16.5982 242.843 16.5079 241.744 16.7639 240.69C15.8903 241.006 14.9866 240.991 14.1582 240.705C13.6913 240.223 13.0737 239.47 12.7424 238.521C12.5918 238.099 12.4863 237.617 12.4863 237.12C12.4562 235.252 13.7214 233.867 14.2787 233.234C16.6585 230.568 20.2884 225.824 25.1986 219.181C36.1486 208.758 44.4477 199.586 49.87 193.365C65.4591 175.396 101.623 141.025 119.2 123.267C122.258 120.164 126.806 119.426 130.511 121.535C133.147 123.041 135.437 125.165 137.109 127.74C137.289 128.599 137.395 129.503 137.41 130.436Z" fill="#FEDBC8"/>
<path d="M268.9 223.745C267.244 226.245 264.261 224.257 264.066 224.137L264.502 226.983C262.59 232.677 257.273 228.535 257.273 228.535C255.962 237.075 250.209 230.086 250.209 230.086C249.591 233.791 246.549 234.574 246.549 234.574L243.145 232.375L237.677 228.821L237.391 228.625C236.578 228.083 235.764 227.495 234.951 226.848C226.818 220.341 219.633 209.06 219.633 209.06L207.177 201.483C199.33 196.709 189.479 189.163 183.289 184.253C179.659 181.376 177.279 179.388 177.279 179.388L169.808 160.831C176.089 142.742 171.977 137.124 171.344 136.401L206.273 169.386L230.779 189.69L248.13 195.293L248.552 195.594L267.274 209.044C265.512 212.373 260.36 212.388 260.36 212.388L266.988 217.208L267.5 217.6C271.777 222.088 268.9 223.745 268.9 223.745Z" fill="#FEDBC8"/>
<path d="M248.522 195.609C237.918 194.254 227.601 190.172 218.744 183.74C213.126 179.659 208.125 174.718 203.05 169.868C197.432 164.506 191.723 159.25 185.789 154.339C183.198 152.201 179.674 150.062 176.932 151.945C174.568 153.556 174.372 157.156 174.688 160.168C175.095 164.115 175.938 168.001 177.188 171.736C178.318 175.11 179.764 178.363 181.526 181.421C182.068 182.385 182.671 183.334 183.273 184.267C179.643 181.391 177.264 179.402 177.264 179.402L169.793 160.846C176.074 142.757 171.962 137.139 171.329 136.416L206.258 169.401L230.764 189.705L248.115 195.308L248.522 195.609Z" fill="#F0A89C"/>
<path d="M256.053 213.427C255.496 214.241 255.059 215.28 255.33 216.244C252.905 216.063 250.495 218.051 250.043 220.627C249.652 219.979 248.808 219.889 248.07 219.889C247.046 219.889 245.946 219.934 245.103 220.567C244.259 221.199 243.868 222.645 244.576 223.443C243.898 223.398 243.205 223.82 242.874 224.468C241.624 224.196 240.373 223.925 239.108 223.639C238.34 225.01 237.722 226.471 237.271 227.977L236.984 227.781C236.171 227.239 235.358 226.652 234.544 226.004C234.59 225.733 234.665 225.477 234.77 225.236C235.237 224.076 236.171 223.202 237.21 222.63C238.25 222.058 239.394 221.741 240.524 221.425C241.096 221.274 241.669 221.109 242.241 220.958C242.527 220.883 242.813 220.808 243.039 220.627C243.341 220.386 243.521 220.009 243.717 219.663C244.636 218.096 246.293 217.057 247.995 216.982C247.859 216.425 248.206 215.867 248.642 215.536C249.079 215.205 249.591 215.024 249.998 214.662C250.917 213.864 251.128 212.448 251.263 211.183C250.058 210.987 248.838 211.319 247.663 211.65C246.489 211.981 245.284 212.328 244.35 213.156C244.139 213.352 243.913 213.578 243.672 213.744C243.461 213.879 243.22 213.954 242.979 214.045C240.464 214.813 237.677 214.587 235.298 213.397C232.918 212.222 230.945 210.099 229.845 207.523C230.297 208.156 230.749 208.306 231.201 208.939C231.306 209.089 231.427 209.255 231.562 209.361C231.818 209.571 232.135 209.647 232.451 209.722C233.144 209.873 234.183 209.903 234.861 210.083C237.888 210.897 241.051 211.71 244.064 210.912C246.458 210.279 248.657 208.653 251.128 208.638C252.89 208.622 254.547 209.436 256.128 210.234C256.67 210.505 257.198 210.776 257.74 211.032C257.318 211.921 256.61 212.614 256.053 213.427Z" fill="#F0A89C"/>
<path d="M268.9 223.745C267.244 226.245 264.261 224.257 264.066 224.136L264.502 226.983C262.589 232.677 257.273 228.534 257.273 228.534C255.962 237.075 250.209 230.086 250.209 230.086C249.591 233.791 246.549 234.574 246.549 234.574L243.145 232.375C244.063 232.36 244.982 232.285 245.871 232.074C247.437 231.697 248.973 230.824 249.847 229.378C251.127 230.011 252.603 230.312 253.944 229.845C255.269 229.363 256.384 227.962 256.278 226.456C257.634 226.667 259.11 226.26 260.059 225.191C261.008 224.121 261.309 222.359 260.601 221.094C261.866 221.455 263.207 221.817 264.457 221.395C265.933 220.898 266.807 219.362 266.912 217.765C266.927 217.569 266.942 217.389 266.957 217.238L267.47 217.63C271.777 222.088 268.9 223.745 268.9 223.745Z" fill="#F0A89C"/>
<path d="M171.962 137.545C179.915 145.317 188.304 153.195 197.13 161.117C208.638 171.45 219.934 180.999 230.944 189.825L249.064 195.609L267.229 209.059C267.229 209.059 263.84 214.557 257.453 211.665L251.037 208.969C249.004 209.843 245.118 211.168 240.147 210.807C235.478 210.46 231.984 208.773 230.071 207.674" stroke="#180930" stroke-width="1.98862" stroke-miterlimit="10" stroke-linecap="round" stroke-linejoin="round"/>
<path d="M215.762 209.557C215.702 209.933 215.656 210.295 215.656 210.671C215.671 211.425 215.927 212.133 216.168 212.825C216.274 213.127 216.409 213.458 216.665 213.609C216.831 213.714 217.027 213.729 217.223 213.759C217.705 213.834 218.187 213.985 218.669 214.015C219.151 214.045 219.693 213.91 220.009 213.503C220.145 213.337 220.22 213.127 220.31 212.931C220.476 212.524 220.657 212.102 220.702 211.666C220.762 211.048 220.582 210.43 220.356 209.873C220.19 209.467 219.994 209.075 219.693 208.789C219.03 208.141 217.765 207.885 216.906 207.749C215.807 207.554 215.912 208.638 215.762 209.557Z" fill="#008B8E"/>
<path d="M177.248 179.388C177.248 179.388 191.783 192.928 219.618 209.06C219.618 209.06 228.248 224.483 242.09 231.427" stroke="#180930" stroke-width="1.98862" stroke-miterlimit="10" stroke-linecap="round" stroke-linejoin="round"/>
<path d="M228.173 187.913C228.022 187.958 227.871 187.988 227.706 188.018C227.254 186.723 226.456 185.548 225.371 184.81C223.458 183.514 220.928 183.725 218.834 184.659C217.524 185.232 216.304 186.075 215.28 187.129C214.512 187.913 213.849 188.801 213.246 189.735C211.74 192.13 210.686 194.811 209.737 197.492C209.391 198.501 209.029 199.525 208.788 200.565C208.878 199.284 208.999 198.004 209.27 196.754C209.511 195.624 209.888 194.54 210.264 193.47C211.228 190.774 212.267 188.093 213.774 185.714C214.361 184.78 215.039 183.891 215.807 183.108C216.846 182.053 218.051 181.21 219.362 180.638C221.455 179.704 223.97 179.508 225.898 180.788C227.45 181.843 228.399 183.74 228.625 185.683C228.715 186.497 229.046 187.656 228.173 187.913Z" fill="#00F9FF"/>
<path d="M227.706 188.018C227.073 188.138 226.411 188.154 225.778 188.395C224.227 188.982 222.826 190.081 221.741 191.407C219.994 193.561 218.94 196.287 218.096 199.013C217.479 201.001 216.952 203.035 216.575 205.098C216.47 205.686 216.394 206.318 216.515 206.906C216.545 207.041 216.59 207.177 216.635 207.297C216.304 209.27 216.003 211.259 216.575 213.397C216.334 213.352 216.078 213.322 215.822 213.277C215.611 213.247 215.4 213.217 215.22 213.096C215.009 212.945 214.873 212.674 214.723 212.448C214.015 211.394 212.689 211.078 211.801 210.219C211.213 209.662 210.837 208.894 210.49 208.141C210.114 207.358 209.767 206.589 209.391 205.836C209.195 205.43 209.014 205.023 208.879 204.601C208.592 203.637 208.653 202.583 208.713 201.574C208.743 201.242 208.758 200.911 208.773 200.58C209.014 199.525 209.376 198.516 209.722 197.507C210.686 194.811 211.725 192.13 213.231 189.75C213.834 188.816 214.497 187.928 215.265 187.144C216.304 186.09 217.509 185.247 218.819 184.674C220.913 183.74 223.443 183.545 225.356 184.825C226.456 185.563 227.269 186.723 227.706 188.018Z" fill="#00C9D8"/>
<path d="M245.479 234.093L239.409 229.333C238.204 228.384 237.933 226.547 238.807 225.251L238.912 225.086C239.786 223.79 241.488 223.489 242.693 224.438L248.763 229.197C249.967 230.146 250.239 231.984 249.365 233.279L249.26 233.445C248.386 234.755 246.684 235.041 245.479 234.093Z" stroke="#180930" stroke-width="1.98862" stroke-miterlimit="10" stroke-linecap="round" stroke-linejoin="round"/>
<path d="M252.362 231.803L245.569 226.471C244.214 225.417 243.913 223.353 244.892 221.892L245.012 221.712C245.991 220.251 247.889 219.919 249.244 220.989L256.037 226.321C257.393 227.375 257.694 229.438 256.715 230.899L256.595 231.08C255.616 232.526 253.718 232.857 252.362 231.803Z" stroke="#180930" stroke-width="1.98862" stroke-miterlimit="10" stroke-linecap="round" stroke-linejoin="round"/>
<path d="M259.577 229.152L252.106 223.293C250.706 222.193 250.389 220.07 251.413 218.563C252.423 217.057 254.396 216.711 255.797 217.81L263.267 223.669C264.668 224.769 264.984 226.893 263.96 228.399C262.951 229.905 260.978 230.251 259.577 229.152Z" stroke="#180930" stroke-width="1.98862" stroke-miterlimit="10" stroke-linecap="round" stroke-linejoin="round"/>
<path d="M264.517 224.498L257.047 218.639C255.646 217.54 255.33 215.416 256.354 213.91C257.363 212.404 259.336 212.057 260.737 213.157L268.208 219.016C269.608 220.115 269.925 222.239 268.9 223.745C267.891 225.251 265.918 225.598 264.517 224.498Z" stroke="#180930" stroke-width="1.98862" stroke-miterlimit="10" stroke-linecap="round" stroke-linejoin="round"/>
<path d="M228.685 188.349C228.67 188.349 228.384 186.211 228.354 186.075C228.007 184.524 227.48 182.927 226.486 181.707C223.067 177.49 217.479 181.466 214.873 184.689C211.047 189.449 209.436 195.127 208.592 201.257C207.824 206.845 211.56 210.295 215.656 212.704C215.656 212.689 217.705 186.557 228.685 188.349Z" stroke="#180930" stroke-width="1.98862" stroke-miterlimit="10" stroke-linecap="round" stroke-linejoin="round"/>
<path d="M215.656 212.689C215.656 212.689 219.316 214.768 221.335 211.801" stroke="#180930" stroke-width="1.98862" stroke-miterlimit="10" stroke-linecap="round" stroke-linejoin="round"/>
<path d="M21.5836 321.286C21.207 321.738 20.8003 322.205 20.3786 322.687C16.3119 327.341 10.6787 333.215 4.97027 337.553C4.83472 337.658 4.71422 337.749 4.57866 337.839L0.993927 332.251C2.42481 331.799 3.88581 331.242 5.37694 330.594C11.0402 328.139 16.8842 324.509 21.5836 321.286Z" fill="#727272"/>
<path d="M53.0629 382.377C51.9784 383.929 50.6831 385.133 49.448 386.037C46.8875 387.905 44.5379 388.553 44.5379 388.553L44.4174 388.387L17.4113 353.609L16.1612 341.785L15.9503 339.752L15.6943 337.327L14.2483 337.99L6.86801 341.379L4.59366 337.854C4.72922 337.764 4.84971 337.673 4.98527 337.568C10.6937 333.23 16.3269 327.341 20.3936 322.702C20.8153 322.22 21.222 321.753 21.5986 321.301C21.6136 321.286 21.6136 321.301 21.6136 321.286C22.2763 320.834 22.924 320.397 23.5265 319.961C25.3339 318.68 26.9004 317.521 28.1053 316.572C29.988 315.141 31.1026 314.237 31.1026 314.237C33.6782 317.852 36.9467 321.467 40.2301 324.75C44.9144 329.419 49.6438 333.381 52.4152 335.61C53.9516 336.86 54.8854 337.553 54.8854 337.553C53.3943 338.517 52.3098 339.767 51.5266 341.123C49.0112 345.491 49.6438 350.928 49.6438 350.928L55.1866 368.098C56.6476 374.65 55.2619 379.244 53.0629 382.377Z" fill="#3D3D3D"/>
<path d="M295.741 391.685L288.195 391.565C289.068 388.492 291.403 378.295 286.011 372.15C286.011 372.15 285.8 371.954 285.423 371.638C286.553 372.075 287.201 372.225 287.201 372.225C291.478 373.777 293.918 375.991 293.918 375.991C299.341 381.699 295.741 391.685 295.741 391.685Z" fill="#727272"/>
<path d="M288.195 391.565L255.465 391.037L246.232 382.708L247.015 392.438L247.061 393.056L236.291 392.875C236.336 391.67 236.321 390.36 236.246 389.004C236.08 386.007 235.613 382.738 235.011 379.515C233.143 369.469 229.935 359.754 229.935 359.754L242.723 351.515C247.889 349.165 251.73 348.096 254.576 347.719C260.707 346.951 262.228 349.451 262.228 349.451L269.503 359.754H269.518L269.789 360.145C272.56 363.248 275.256 365.568 277.681 367.315C280.98 369.695 283.736 370.975 285.438 371.638C285.83 371.954 286.026 372.15 286.026 372.15C291.403 378.295 289.068 388.492 288.195 391.565Z" fill="#3D3D3D"/>
<path d="M49.4481 386.022C49.9753 348.925 32.0365 327.853 23.5115 319.93C28.0451 316.707 31.0876 314.207 31.0876 314.207C39.3717 325.85 54.8704 337.538 54.8704 337.538C48.5444 341.604 49.6288 350.913 49.6288 350.913L55.1716 368.083C57.3556 377.919 53.1985 383.296 49.4481 386.022Z" fill="#180930"/>
<path d="M269.488 359.754C259.758 361.547 242.738 366.457 234.996 379.5C233.128 369.454 229.92 359.739 229.92 359.739L242.708 351.5C258.959 344.075 262.228 349.437 262.228 349.437L269.488 359.754Z" fill="#180930"/>
<path d="M153.074 255.51C150.95 260.089 148.39 265.195 145.332 270.678C140.226 279.85 133.704 290.047 125.451 300.515C122.965 303.678 120.314 306.856 117.498 310.034C100.026 329.765 82.3584 342.553 69.3148 350.491C61.9344 345.008 53.801 338.23 45.4416 329.916C45.4115 329.871 45.3663 329.841 45.3362 329.796C38.3324 322.822 32.3679 315.939 27.3222 309.522C43.7848 303.678 55.5331 295.725 62.8683 289.927C69.9926 284.278 76.0324 278.208 81.2287 272.033C89.9948 261.61 96.3358 250.916 101.336 241.488L117.603 204.782C117.769 204.3 117.935 203.833 118.085 203.381L119.034 204.782L141.1 237.647L153.074 255.51Z" fill="#5A829C"/>
<path d="M127.981 290.243C129.487 283.797 130.828 277.169 130.301 270.557C129.352 258.749 121.956 247.814 111.835 243.265C108.566 241.789 104.846 240.991 101.306 241.488L117.573 204.782C118.055 204.782 118.522 204.767 119.004 204.782L153.059 255.51C147.366 267.756 138.615 283.812 125.436 300.515C126.324 297.111 127.183 293.677 127.981 290.243Z" fill="#3F687A"/>
<path d="M81.2137 272.048L81.1986 272.154C80.3853 276.898 77.8248 281.763 75.1287 285.544C71.5891 290.514 66.9802 294.43 62.4164 298.286C58.8016 301.344 55.1867 304.416 51.5869 307.474C49.162 309.522 46.6617 311.691 45.3061 314.674C43.1824 319.343 44.3723 324.554 45.3362 329.811C38.3324 322.837 32.3679 315.954 27.3222 309.537C43.7848 303.693 55.5331 295.741 62.8683 289.942C69.9775 284.294 76.0173 278.224 81.2137 272.048Z" fill="#7297B1"/>
<path d="M153.074 255.51C150.95 260.089 148.39 265.195 145.332 270.678C145.844 266.566 145.86 262.424 144.73 258.493C143.6 254.531 141.371 251.007 138.871 247.844C138.027 246.76 137.124 245.72 136.099 244.862C133.81 242.949 130.978 242.075 128.147 241.578C127.273 241.428 125.164 241.352 125.556 239.891C125.842 238.852 127.77 238.039 128.614 237.888C131.792 237.346 135.015 236.924 138.223 237.21C139.172 237.286 140.121 237.436 141.055 237.647L153.074 255.51Z" fill="#180930"/>
<path d="M262.755 350.099C261.957 349.331 260.631 348.277 258.824 347.689C256.082 346.801 253.642 347.494 251.925 347.991C225.733 355.476 218.834 374.876 218.834 374.876C217.75 377.904 217.298 380.449 217.087 381.684C215.551 377.376 214.03 373.265 212.523 369.379C208.863 359.92 205.354 351.771 202.296 345.039C198.591 336.86 193.726 323.666 189.012 311.375V311.36C184.644 300.018 180.411 289.475 177.309 284.399C172.865 277.139 168.482 269.714 162.518 263.779C157.171 258.448 150.89 253.974 145.423 249.034C142.606 246.503 139.398 243.371 136.084 239.304C134.337 237.18 132.289 234.484 130.135 231.11C123.342 220.461 119.456 214.557 120.269 210.084C121.098 205.415 127.378 203.908 136.506 202.056C141.808 200.986 148.073 199.812 154.806 197.838C157.788 196.965 160.771 196.739 163.617 196.92C173.618 197.522 181.842 203.11 181.842 203.11C185.397 206.725 189.012 210.581 192.672 214.693C199.57 222.45 206.619 231.155 213.578 240.87C216.138 244.455 218.654 248.326 221.094 252.393C221.094 252.393 221.094 252.393 221.109 252.408C240.222 284.249 255.42 328.47 262.755 350.099Z" fill="#5A829C"/>
<path d="M189.012 311.375C184.644 300.033 180.411 289.505 177.309 284.414C172.865 277.154 168.482 269.728 162.518 263.794C157.171 258.462 150.89 253.989 145.408 249.048C142.591 246.518 139.383 243.385 136.069 239.318C134.337 237.18 132.274 234.483 130.12 231.11C123.327 220.461 119.441 214.557 120.239 210.083C121.565 202.718 136.506 203.2 154.776 197.853C168.256 193.907 181.812 203.125 181.812 203.125C185.367 206.724 188.982 210.595 192.657 214.707C190.292 213.819 187.822 213.246 185.307 213.261C180.05 213.306 175.064 215.837 170.712 219C167.353 221.47 164.084 224.588 162.909 228.79C161.75 232.947 162.834 237.421 164.19 241.517C167.985 253.025 173.859 263.553 178.95 274.458C184.041 285.348 188.454 296.96 188.967 309.16C188.997 309.898 189.012 310.637 189.012 311.375Z" fill="#3F687A"/>
<path d="M262.755 350.099C261.957 349.316 260.646 348.277 258.839 347.689C256.098 346.801 253.658 347.494 251.925 347.991C225.733 355.476 218.834 374.876 218.834 374.876C217.765 377.904 217.298 380.449 217.087 381.684C215.566 377.376 214.03 373.265 212.523 369.379C212.93 367.782 213.457 366.216 214.09 364.709C217.373 356.877 223.278 350.717 227.555 343.472C236.683 328.019 237.873 308.302 234.469 290.334C232.782 281.462 230.055 272.877 226.862 264.517C225.507 260.993 223.022 256.685 221.079 252.408C240.222 284.249 255.42 328.47 262.755 350.099Z" fill="#7297B1"/>
<path d="M230.462 359.332L234.966 375.885C234.966 375.885 223.925 383.205 217.75 381.789C217.765 381.774 217.328 368.203 230.462 359.332Z" fill="#180930"/>
<path d="M163.587 196.935C161.976 198.17 160.696 199.857 160.048 201.86C159.159 204.601 159.566 207.508 159.461 210.34C159.129 218.865 156.117 227.254 149.58 232.315C146.101 235.011 142.41 237.511 138.299 238.852C138.314 231.818 138.344 224.739 137.033 217.84C136.642 215.777 136.13 213.744 135.874 211.665C135.527 208.773 135.648 205.821 136.25 202.974C136.31 202.658 136.401 202.372 136.476 202.071C141.778 201.001 148.044 199.826 154.776 197.853C157.774 196.995 160.756 196.769 163.587 196.935Z" fill="#180930"/>
<path d="M181.813 203.14C192.025 213.503 202.899 226.004 213.548 240.9C236.201 272.576 254.471 325.699 262.74 350.099C261.927 349.316 260.616 348.277 258.809 347.689C256.083 346.801 253.628 347.494 251.896 347.991C225.703 355.476 218.805 374.876 218.805 374.876C217.735 377.904 217.253 380.449 217.057 381.699C211.801 366.878 206.589 354.543 202.282 345.054C195.142 329.329 183.756 295.003 177.279 284.429C172.836 277.169 168.453 269.744 162.488 263.81C157.141 258.478 150.845 254.019 145.378 249.079C142.561 246.534 139.353 243.416 136.054 239.334C131.626 233.882 125.059 224.739 120.224 210.114" stroke="#180930" stroke-width="1.98862" stroke-miterlimit="10" stroke-linecap="round" stroke-linejoin="round"/>
<path d="M229.92 359.739C231.306 363.534 232.647 367.887 233.746 372.782C235.448 380.343 236.111 387.181 236.292 392.86C239.876 392.92 243.461 392.98 247.046 393.041L246.217 382.708C246.217 382.708 254.396 391.293 257.062 391.806L295.726 391.685C295.726 391.685 301.841 376.126 287.186 372.21C271.777 368.098 263.117 350.235 263.117 350.235" stroke="#180930" stroke-width="1.98862" stroke-miterlimit="10" stroke-linecap="round" stroke-linejoin="round"/>
<path d="M217.088 381.699C217.088 381.699 224.513 383.145 234.981 375.87" stroke="#180930" stroke-width="1.98862" stroke-miterlimit="10" stroke-linecap="round" stroke-linejoin="round"/>
<path d="M118.07 203.381C115.645 210.58 111.804 220.747 106.005 232.345C97.8871 248.552 86.0785 271.521 62.853 289.927C55.5179 295.741 43.7847 303.693 27.3069 309.537C32.3828 315.984 38.3774 322.897 45.4264 329.916C53.7707 338.23 61.9192 345.008 69.2995 350.491C82.3432 342.538 100.026 329.765 117.483 310.034C135.195 290.017 146.296 270.075 153.059 255.51" stroke="#180930" stroke-width="1.98862" stroke-miterlimit="10" stroke-linecap="round" stroke-linejoin="round"/>
<path d="M30.8466 314.915C25.8008 319.237 23.5265 320.638 15.9503 324.991C10.6335 328.049 5.58775 330.413 1.00893 332.266C2.96698 335.308 4.90996 338.336 6.86801 341.378L15.6792 337.312L17.3963 353.594C26.4485 365.251 35.4856 376.894 44.5379 388.552C53.078 384.486 55.0059 379.56 55.5782 377.226C55.6837 376.819 55.7439 376.442 55.7891 376.036C56.3313 370.644 54.8101 366.456 53.7256 363.625C50.4572 354.979 48.3033 349.331 49.8397 344.15C50.6078 341.589 52.0839 339.782 53.1834 338.682" stroke="#180930" stroke-width="1.98862" stroke-miterlimit="10" stroke-linecap="round" stroke-linejoin="round"/>
<path d="M181.812 203.14C181.812 203.14 180.773 202.311 178.83 201.287C178.74 201.242 178.649 201.182 178.544 201.137C178.469 201.106 178.393 201.061 178.318 201.016C178.755 194.69 174.055 180.291 174.055 180.291L166.058 160.108L168.874 148.48C169.356 145.92 169.447 143.66 169.296 141.702C169.567 140.527 170.335 136.461 168.934 132.289C168.934 132.289 174.763 137.575 172.579 149.188L169.763 160.816L177.761 180.999C177.791 181.014 183.304 197.913 181.812 203.14Z" fill="#1DFAFF"/>
<path d="M178.333 201.016C176.661 200.158 174.402 199.194 171.661 198.456C170.275 198.079 168.769 197.763 167.142 197.537C163.271 196.98 158.722 197.01 153.662 198.109L152.276 198.38L149.896 198.832L138.6 200.986C138.6 200.986 126.098 201.122 118.552 202.854C118.613 202.763 118.929 202.251 119.396 201.333C120.751 198.591 123.252 192.25 123.252 182.806C123.252 182.249 123.252 181.677 123.221 181.104L120.45 174.824L115.148 162.804L130.783 147.004C130.783 147.004 141.266 135.858 135.994 123.944C135.994 123.944 133.991 118.085 125.752 114.154C125.722 114.124 125.677 114.109 125.631 114.094C125.631 114.094 125.677 114.079 125.782 114.034C126.565 113.778 130.331 112.708 135.889 113.446H135.934C137.078 113.597 138.283 113.823 139.564 114.154H139.579C140.648 114.41 141.748 114.757 142.892 115.178C145.89 116.278 149.143 117.92 152.547 120.345C152.547 120.345 157.051 124.261 161.418 129.322C163.06 131.219 164.672 133.268 166.042 135.331C167.549 137.636 168.739 139.94 169.266 142.064C169.266 142.064 169.311 141.943 169.356 141.733C169.507 143.691 169.416 145.95 168.934 148.51L166.118 160.138L174.116 180.321C174.071 180.291 178.77 194.675 178.333 201.016Z" fill="#00C9D8"/>
<path d="M161.388 129.306C160.62 128.734 159.837 128.222 158.963 127.77C157.803 127.183 156.403 126.731 155.318 127.439C154.625 127.876 154.234 128.704 153.933 129.487C153.014 131.927 152.667 134.608 152.969 137.214C149.173 130.105 145.814 122.724 142.862 115.148C145.859 116.248 149.113 117.889 152.517 120.314C152.502 120.314 157.02 124.246 161.388 129.306Z" fill="#008B8E"/>
<path d="M149.203 144.248C147.275 143.826 147.094 140.422 144.669 140.271C142.937 140.166 141.657 141.883 140.648 143.404C136.958 149.022 132.951 154.399 128.659 159.49C126.339 162.247 123.869 165.003 122.468 168.422C121.625 170.471 121.188 172.715 120.435 174.808L115.133 162.789L130.767 146.989C130.767 146.989 141.25 135.843 135.979 123.929C135.979 123.929 133.976 118.07 125.737 114.139C125.737 114.094 125.752 114.064 125.767 114.018C126.053 112.874 126.49 111.804 127.348 111.066C129.216 109.455 131.942 110.373 134.156 111.352C135.979 112.166 137.861 113.024 139.533 114.154C139.548 114.139 139.548 114.154 139.548 114.154C140.844 115.043 142.019 116.097 142.937 117.422C144.052 119.034 144.715 120.962 145.332 122.86C147.004 128.041 148.45 133.283 149.685 138.599C149.971 139.925 151.493 144.745 149.203 144.248Z" fill="#008B8E"/>
<path d="M152.261 188.018C151.854 190.066 151.463 192.115 151.071 194.163C150.77 195.714 150.423 197.326 149.911 198.817L138.615 200.971C138.615 200.971 126.113 201.107 118.567 202.839C119.426 201.272 120.269 199.48 120.992 197.431C123.583 190.081 123.312 183.303 122.739 179.101C123.342 180.592 124.893 183.876 128.297 186.21C132.153 188.846 135.994 188.635 137.816 188.53C139.88 188.409 142.922 188.093 145.92 185.819C147.983 184.252 149.354 181.797 150.122 179.207C150.89 176.616 151.086 173.875 151.146 171.148L151.417 173.935C151.764 176.164 152.11 178.378 152.442 180.607C152.607 181.707 152.788 182.821 152.773 183.921C152.773 185.337 152.517 186.692 152.261 188.018Z" fill="#008B8E"/>
<path d="M165.711 194.344C167.443 196.106 169.477 197.401 171.661 198.455C166.976 197.175 160.861 196.528 153.662 198.109L152.276 198.38C152.833 195.247 153.421 192.114 154.023 188.966C154.912 184.312 155.288 178.393 157.141 174.1C157.126 177.595 157.276 180.833 158.707 184.071C159.641 186.18 160.951 188.093 162.262 189.976C163.331 191.512 164.431 193.033 165.711 194.344Z" fill="#008B8E"/>
<path d="M178.936 201.257C178.905 201.272 178.875 201.272 178.845 201.287C178.755 201.242 178.664 201.182 178.559 201.136C178.68 201.167 178.8 201.212 178.936 201.257Z" fill="#180930"/>
<path d="M47.2491 186.798C62.8382 168.829 99.0169 134.458 116.579 116.7C119.637 113.612 124.185 112.859 127.891 114.968C133.268 118.025 137.229 123.719 137.41 130.421C137.726 141.883 127.107 151.162 120.179 158.376C107.753 171.314 94.2574 183.063 80.6414 194.48C75.8517 198.501 71.0168 202.477 66.1217 206.348C64.8565 209.391 63.6214 212.78 62.5219 216.53C60.353 223.911 59.2836 230.688 58.7866 236.367C55.0964 235.674 53.5902 234.153 52.9124 232.827C50.9544 228.971 53.4998 223.79 52.0539 222.886C50.9393 222.194 48.4541 224.784 48.0474 225.206C37.7149 236.081 31.9312 251.941 27.3072 251.278C26.8402 251.218 25.4545 250.841 24.5358 249.606C23.5718 248.311 23.5718 246.729 23.6019 246.021C22.0204 247.106 19.9871 247.046 18.4809 245.856C16.9897 244.681 16.312 242.617 16.7638 240.675C15.1221 241.262 13.3146 240.705 12.2302 239.274C11.1608 237.888 10.965 235.945 11.7181 234.333C11.0553 233.671 9.89558 232.33 9.86546 230.568C9.83533 228.7 11.1005 227.315 11.6578 226.682C14.0376 224.001 17.6675 219.256 22.5777 212.614C33.5277 202.206 41.8268 193.049 47.2491 186.798Z" stroke="#180930" stroke-width="1.98862" stroke-miterlimit="10" stroke-linecap="round" stroke-linejoin="round"/>
<path d="M23.6019 246.021C23.6019 246.021 35.6063 227.736 42.2034 220.778" stroke="#180930" stroke-width="1.98862" stroke-miterlimit="10" stroke-linecap="round" stroke-linejoin="round"/>
<path d="M16.7788 240.674C16.7788 240.674 30.8918 222.901 35.9677 217.599" stroke="#180930" stroke-width="1.98862" stroke-miterlimit="10" stroke-linecap="round" stroke-linejoin="round"/>
<path d="M11.5675 234.921L27.8042 214.888" stroke="#180930" stroke-width="1.98862" stroke-miterlimit="10" stroke-linecap="round" stroke-linejoin="round"/>
<path d="M121.369 114.019C125.375 113.01 130.12 112.483 135.346 113.251C156.975 116.474 168.227 139.504 169.823 142.893C170.049 139.971 170.034 135.045 168.121 129.518C164.913 120.3 158.481 115.51 156.132 113.929" stroke="#180930" stroke-width="1.98862" stroke-miterlimit="10" stroke-linecap="round" stroke-linejoin="round"/>
<path d="M168.543 130.858C169.974 132.816 172.158 136.401 172.82 141.371C173.182 144.113 173.107 146.297 172.655 148.902C171.841 153.541 170.727 157.714 169.778 160.846C169.778 160.846 183.183 189.163 181.812 203.155C178.74 201.182 173.272 198.275 165.982 197.432C160.922 196.844 156.644 197.447 153.662 198.125" stroke="#180930" stroke-width="1.98862" stroke-miterlimit="10" stroke-linecap="round" stroke-linejoin="round"/>
<path d="M115.751 162.91L124.155 183.394" stroke="#180930" stroke-width="1.98862" stroke-miterlimit="10" stroke-linecap="round" stroke-linejoin="round"/>
<path d="M123.207 181.09C123.207 181.09 124.095 196.995 118.07 203.381C118.07 203.381 132.108 200.068 139.308 201.047" stroke="#180930" stroke-width="1.98862" stroke-miterlimit="10" stroke-linecap="round" stroke-linejoin="round"/>
<path d="M147.365 200.806C147.697 199.254 147.998 197.688 148.254 196.106C149.098 191.03 149.61 185.864 150.001 180.758C151.327 163.241 150.634 144.685 144.052 128.343C142.094 123.478 140.091 119.547 135.813 116.67C131.761 113.959 127.032 112.784 122.378 113.763C121.715 113.898 121.052 114.079 120.39 114.305C120.525 114.26 120.691 114.034 120.887 113.793C121.113 113.462 121.353 113.07 121.474 112.919C122.423 111.85 123.507 110.916 124.682 110.193C125.616 109.621 126.595 109.214 127.589 108.958C129.472 109.109 131.355 109.711 133.102 110.72C147.139 118.703 151.809 137.395 153.134 153.18C154.414 168.694 153.119 183.62 151.658 195.052C151.251 198.17 150.845 200.911 150.483 203.155C149.444 202.342 148.405 201.574 147.365 200.806Z" fill="#F4D100"/>
<path d="M153.586 205.445C152.547 204.677 151.523 203.893 150.484 203.125C150.845 200.881 151.267 198.14 151.658 195.022C153.119 183.59 154.415 168.679 153.134 153.15C151.809 137.365 147.14 118.673 133.102 110.69C131.34 109.681 129.457 109.079 127.589 108.928C130.602 108.13 133.795 108.732 136.657 110.359C150.694 118.342 155.379 137.034 156.689 152.819C157.969 168.332 156.674 183.259 155.213 194.691C154.656 199.164 154.038 202.869 153.586 205.445Z" fill="#FFEB31"/>
<path d="M120.375 114.305C120.676 114.2 121.233 113.175 121.459 112.919C122.408 111.85 123.492 110.931 124.667 110.208C128.478 107.874 132.831 108.22 136.656 110.389C150.694 118.372 155.363 137.064 156.674 152.848C157.969 168.377 156.674 183.289 155.198 194.721C154.625 199.179 154.023 202.884 153.556 205.46C151.477 203.908 149.414 202.357 147.335 200.821C148.721 194.254 149.474 187.476 149.971 180.773C151.282 163.256 150.604 144.7 144.022 128.358C142.064 123.478 140.06 119.547 135.783 116.685C131.174 113.567 125.631 112.468 120.375 114.305Z" stroke="#180930" stroke-width="1.98862" stroke-miterlimit="10" stroke-linecap="round" stroke-linejoin="round"/>
<path d="M154.761 216.515L153.33 225.085C151.447 236.412 141.326 244.003 130.858 241.97L94.7091 234.951C84.226 232.918 77.2071 221.998 79.0899 210.671L80.5509 201.905C81.319 197.492 83.3223 193.681 86.1238 190.759C86.2895 190.594 86.4552 190.428 86.6208 190.262C86.666 190.443 86.7263 190.639 86.7865 190.82C90.8834 205.158 102.104 216.59 116.715 219.437C131.038 222.224 144.941 216.063 153.481 204.616C154.942 208.231 155.454 212.343 154.761 216.515Z" fill="#FFEB31"/>
<path d="M153.481 204.601C144.941 216.048 131.039 222.209 116.715 219.422C101.909 216.545 90.5823 204.857 86.621 190.247C90.9137 186.075 96.8782 184.012 102.978 185.186L139.127 192.205C145.769 193.516 151.011 198.366 153.481 204.601Z" fill="#F4D100"/>
<path d="M153.481 204.601C144.941 216.048 131.039 222.209 116.715 219.422C101.909 216.545 90.5823 204.857 86.621 190.247C90.9137 186.075 96.8782 184.012 102.978 185.186L104.695 185.518C103.792 185.774 102.903 186.075 102.029 186.437C94.8298 189.359 98.9869 202.116 102.391 206.785C104.786 210.054 108.175 212.238 111.699 213.819C115.133 215.355 118.763 216.636 122.529 216.5C125.978 216.365 129.788 214.843 132.786 213.021C134.97 211.695 136.958 209.798 138.133 207.373C139.473 204.646 138.57 201.197 137.606 198.471C136.717 195.91 135.512 193.38 133.961 191.211L139.127 192.22C145.769 193.516 151.011 198.366 153.481 204.601Z" fill="#FFEB31"/>
<path d="M114.862 227.269C119.238 227.269 122.785 223.439 122.785 218.714C122.785 213.989 119.238 210.159 114.862 210.159C110.487 210.159 106.939 213.989 106.939 218.714C106.939 223.439 110.487 227.269 114.862 227.269Z" fill="#FDE000"/>
<path d="M154.761 216.515L153.963 221.32C152.713 219.573 150.83 218.353 148.797 218.112C146.914 217.901 145.046 218.443 143.224 219.031C136.642 221.124 130.18 223.64 123.884 226.547C122.152 227.345 120.42 228.188 118.552 228.369C117.332 228.49 116.112 228.339 114.907 228.143C112.076 227.691 109.184 227.029 106.864 225.221C104.966 223.745 103.581 221.621 101.879 219.889C98.6555 216.621 94.3176 214.843 91.0341 211.65C88.8954 209.557 87.2687 206.921 85.1449 204.797C84.0304 203.683 82.72 202.719 81.274 202.146C81.033 202.041 80.8071 201.966 80.5511 201.89C81.3192 197.477 83.3224 193.666 86.124 190.744C86.3499 190.759 86.5608 190.775 86.7867 190.805C90.8835 205.144 102.105 216.576 116.715 219.422C131.039 222.209 144.941 216.048 153.481 204.601C154.942 208.231 155.454 212.343 154.761 216.515Z" fill="#F4D100"/>
<path d="M154.761 216.5L153.33 225.085C151.447 236.412 141.326 244.003 130.858 241.97L94.6939 234.951C84.2109 232.918 77.192 221.998 79.0747 210.671L80.5056 202.086C81.2888 197.356 83.518 193.275 86.6057 190.262C90.582 204.872 101.894 216.56 116.699 219.437C131.023 222.224 144.925 216.048 153.466 204.601C154.942 208.231 155.454 212.328 154.761 216.5Z" stroke="#180930" stroke-width="1.98862" stroke-miterlimit="10" stroke-linecap="round" stroke-linejoin="round"/>
<path d="M153.481 204.601C144.926 216.048 131.039 222.224 116.715 219.437C101.909 216.56 90.5974 204.872 86.621 190.262C90.9137 186.09 96.8782 184.027 102.978 185.202L139.142 192.22C145.769 193.516 151.011 198.366 153.481 204.601Z" stroke="#180930" stroke-width="1.98862" stroke-miterlimit="10" stroke-linecap="round" stroke-linejoin="round"/>
<path d="M122.664 220.235C122.167 223.247 120.269 225.612 117.814 226.666C118.552 225.627 119.079 224.377 119.305 222.991C120.073 218.337 117.212 213.894 112.904 213.05C111.383 212.749 109.891 212.945 108.551 213.532C110.298 211.062 113.235 209.707 116.263 210.294C120.57 211.123 123.432 215.581 122.664 220.235Z" fill="#7C9900"/>
<path d="M119.305 222.992C119.079 224.378 118.552 225.613 117.814 226.667C116.489 227.254 114.998 227.435 113.461 227.149C109.154 226.306 106.277 221.862 107.06 217.208C107.286 215.822 107.813 214.587 108.551 213.533C109.877 212.946 111.383 212.765 112.904 213.051C117.212 213.895 120.089 218.338 119.305 222.992Z" fill="#96C600"/>
<path d="M114.862 227.269C119.238 227.269 122.785 223.439 122.785 218.714C122.785 213.989 119.238 210.159 114.862 210.159C110.487 210.159 106.939 213.989 106.939 218.714C106.939 223.439 110.487 227.269 114.862 227.269Z" stroke="#180930" stroke-width="1.98862" stroke-miterlimit="10" stroke-linecap="round" stroke-linejoin="round"/>
</g>
<defs>
<clipPath id="clip0_143_4316">
<rect width="298" height="394.035" fill="white"/>
</clipPath>
</defs>
</svg>
