<svg width="234" height="414" viewBox="0 0 234 414" fill="none" xmlns="http://www.w3.org/2000/svg">
<g clip-path="url(#clip0_143_4447)">
<path d="M76.1178 123.896C83.5257 128.935 96.8272 117.966 96.8272 117.966L113.688 103.667L109.496 101.464L109.396 95.7264L79.8038 101.817L80.484 112.574L80.5241 113.032C73.3343 121.393 76.1178 123.896 76.1178 123.896Z" fill="#FEDBC8"/>
<path d="M79.8174 101.818L80.4975 112.574C90.7563 108.124 103.18 103.552 109.502 101.284L109.41 95.7269L79.8174 101.818Z" fill="#180930"/>
<path d="M147.801 404.032C148.697 405.834 149.865 407.341 150.88 408.469C152.163 409.883 153.203 410.68 153.203 410.68C157.63 409.983 220.337 372.753 220.337 372.753L216.944 368.194L213.908 364.118L213.855 364.047L199.763 345.129L165.134 356.897C165.134 356.897 165.798 357.736 168.099 360.596C168.444 361.037 168.844 361.508 169.269 362.048C169.482 362.318 169.681 362.588 169.851 362.885C170.979 364.778 170.991 366.898 170.715 368.55C170.664 368.84 170.612 369.142 170.534 369.403C170.212 370.736 169.781 371.622 169.781 371.622L157.586 382.24L157.572 382.239L152.779 386.414C145.007 393.122 145.543 399.497 147.801 404.032Z" fill="#5A829C"/>
<path d="M165.134 356.897C165.134 356.897 165.799 357.736 168.099 360.596C168.445 361.037 168.845 361.508 169.27 362.048C169.482 362.318 169.681 362.588 169.851 362.885C170.979 364.778 170.992 366.898 170.715 368.55C170.664 368.84 170.612 369.142 170.534 369.403C170.823 369.468 171.14 369.52 171.429 369.585C174.661 370.247 177.904 371.02 180.788 372.598C183.671 374.19 186.177 376.711 187.096 379.872C187.864 382.584 187.246 385.749 185.352 387.736C194.853 379.853 204.368 371.944 213.855 364.061L199.763 345.143L165.134 356.897Z" fill="#3F687A"/>
<path d="M147.801 404.031C148.697 405.834 149.866 407.341 150.881 408.469C180.081 394.609 208.681 374.248 216.944 368.194L213.908 364.118C203.874 371.373 175.94 390.884 147.801 404.031Z" fill="#EAE7BB"/>
<path d="M150.867 408.469C152.149 409.883 153.189 410.679 153.189 410.679C157.617 409.982 220.324 372.752 220.324 372.752L216.93 368.193C208.668 374.247 180.068 394.595 150.867 408.469Z" fill="#D1CDA3"/>
<path d="M157.6 382.226C164.989 381.614 172.284 380.07 179.263 377.602C180.315 377.222 181.367 376.828 182.314 376.236C182.343 376.209 182.371 376.196 182.413 376.17C184.635 374.748 186.104 372.221 186.248 369.581C186.282 368.959 186.248 368.32 186.074 367.733C185.85 366.964 185.43 366.271 184.924 365.672C182.981 363.308 179.876 362.139 176.833 362.009C174.537 361.905 172.411 362.527 170.157 362.839C170.06 362.85 169.977 362.861 169.865 362.871C170.993 364.765 171.006 366.884 170.729 368.537C170.434 370.328 169.81 371.609 169.81 371.609L157.6 382.226Z" fill="#EAE7BB"/>
<path d="M170.729 368.537C172.914 369.067 175.034 369.872 177.005 370.962C179.236 372.186 181.382 373.878 182.314 376.236C182.343 376.209 182.371 376.196 182.413 376.17C184.635 374.748 186.104 372.221 186.248 369.581C186.282 368.959 186.248 368.32 186.074 367.733C185.85 366.964 185.43 366.271 184.924 365.672C182.981 363.308 179.876 362.139 176.833 362.009C174.537 361.905 172.411 362.527 170.157 362.839C170.06 362.85 169.977 362.861 169.865 362.871C170.98 364.764 171.006 366.87 170.729 368.537Z" fill="#D1CDA3"/>
<path d="M1.06784 401.356C1.23247 403.896 1.81167 405.633 1.81167 405.633C11.4654 406.038 46.4374 402.688 66.6856 400.621C75.4549 399.722 81.4595 399.078 81.4595 399.078L80.914 392.592L80.5843 388.772L78.6304 365.951L44.1072 367.889C43.8997 368.713 43.653 369.467 43.3666 370.163C43.095 370.833 42.8109 371.461 42.501 372.032C40.3447 376.06 37.4574 377.501 37.4574 377.501C37.4574 377.501 27.5491 380.162 21.187 381.972C20.1379 382.283 19.1732 382.556 18.3758 382.792C12.753 384.447 5.83988 388.247 5.83988 388.247C2.87881 391.071 1.63186 394.408 1.21405 397.386C0.999607 398.833 0.982529 400.176 1.06784 401.356Z" fill="#5A829C"/>
<path d="M42.4863 372.059C48.1082 373.341 53.3736 374.929 58.4264 377.909C60.586 379.186 62.6967 380.683 64.0815 382.765C65.1228 384.351 65.7121 386.199 66.1913 388.029C66.8447 390.447 67.3566 392.957 67.1629 395.443C67.0098 397.128 66.5883 398.97 66.6856 400.621C75.4549 399.722 81.4595 399.078 81.4595 399.078L80.914 392.592L80.5843 388.772L78.6304 365.951L44.1072 367.889C43.8997 368.713 43.653 369.467 43.3666 370.163C43.0802 370.86 42.7962 371.488 42.4863 372.059Z" fill="#3F687A"/>
<path d="M1.06768 401.356C28.7474 401.96 68.1879 395.021 80.8995 392.605L80.5698 388.785C67.2181 391.29 28.449 398.031 1.19957 397.399C0.999436 398.833 0.982366 400.176 1.06768 401.356Z" fill="#EAE7BB"/>
<path d="M1.06784 401.356C1.23247 403.896 1.81167 405.633 1.81167 405.633C15.6282 406.218 81.4591 399.092 81.4591 399.092L80.9135 392.605C68.1881 395.021 28.7476 401.96 1.06784 401.356Z" fill="#EAE7BB"/>
<path d="M21.1725 381.985C21.9352 382.371 22.698 382.757 23.4912 383.06C27.2113 384.472 31.4064 384.099 35.2335 385.21C36.0018 385.43 36.7539 385.718 37.5355 385.952C37.8099 386.03 38.0843 386.109 38.373 386.174C39.596 386.464 40.8687 386.506 42.1277 386.548C44.8669 386.639 47.7883 386.668 50.0683 385.165C50.8043 384.691 51.4342 384.075 52.0231 383.443C52.9712 382.422 53.8396 381.302 54.3399 380.003C54.8403 378.704 54.9454 377.211 54.392 375.946C53.58 374.133 51.6464 373.14 49.8151 372.401C47.8068 371.572 45.7385 370.88 43.6523 370.311C43.5559 370.294 43.4466 370.249 43.3512 370.204C42.7909 371.64 42.1139 372.836 41.4171 373.796C39.4844 376.516 37.4562 377.529 37.4562 377.529C37.4562 377.529 27.5341 380.189 21.1725 381.985Z" fill="#EAE7BB"/>
<path d="M37.5355 385.952C37.8099 386.03 38.0843 386.109 38.373 386.174C39.596 386.464 40.8687 386.506 42.1277 386.548C44.8669 386.639 47.7883 386.668 50.0683 385.165C50.8043 384.691 51.4342 384.075 52.0231 383.443C52.9712 382.422 53.8396 381.302 54.3399 380.003C54.8403 378.704 54.9454 377.211 54.392 375.946C53.58 374.133 51.6464 373.14 49.8151 372.401C47.8068 371.572 45.7385 370.88 43.6523 370.311C43.5559 370.294 43.4466 370.249 43.3512 370.204C42.7909 371.64 42.1139 372.836 41.4171 373.796C43.0998 374.42 44.706 375.263 45.8806 376.591C47.4024 378.303 47.9756 381.051 46.5986 382.888C45.3811 384.51 43.1381 384.906 41.1187 385.24C39.9211 385.436 38.7359 385.673 37.5355 385.952Z" fill="#D1CDA3"/>
<path d="M185.323 387.762C184.981 388.055 184.611 388.348 184.269 388.641C184.652 388.377 184.994 388.084 185.323 387.762Z" fill="#3F687A"/>
<path d="M113.389 103.92L113.689 103.667C113.689 103.667 113.395 103.754 113.389 103.92Z" fill="#5A829C"/>
<path d="M64.1195 196.734L64.4096 196.758L63.3355 201.14L52.8964 243.824C52.8964 243.824 49.2989 255.767 61.7265 253.979C61.7265 253.979 70.0641 254.811 88.0306 245.577C95.682 241.649 97.7701 240.084 99.8453 238.907C101.836 237.782 103.815 236.989 110.633 234.807C113.433 233.903 117.072 232.764 121.858 231.275C121.858 231.275 126.624 229.163 133.541 228.978C139.558 228.791 147.189 230.042 154.727 235.349C158.976 238.33 163.196 242.611 167.094 248.655C167.094 248.655 169.846 252.514 172.053 246.563C173.652 242.212 175.082 213.867 175.735 198.848C175.962 193.288 176.1 189.553 176.1 189.553C176.114 189.554 176.128 189.54 176.128 189.54C176.297 189.463 176.985 189.181 178.255 188.891C178.855 188.745 179.567 188.602 180.402 188.464C180.486 188.453 180.555 188.441 180.639 188.43C180.973 188.372 181.334 188.343 181.71 188.3C182.085 188.243 182.488 188.201 182.891 188.187C186.641 187.855 191.984 187.964 198.973 189.346L195.013 180.586L186.578 161.898L184.011 156.231C184.011 156.231 170.041 123.689 157.929 117.274C157.929 117.274 147.816 109.042 128.884 106.916C115.334 105.397 113.387 104.405 113.387 103.975L100.289 115.076L97.6523 117.315C97.6523 117.315 89.9861 126.671 78.5067 124.945C78.5067 124.945 75.8933 124.816 75.7024 122.234C75.5678 120.456 76.5948 117.485 80.4837 112.587L80.3896 108.346L67.7965 113.854C67.7965 113.854 54.4581 123.852 48.4589 130.563C47.5237 131.612 46.7716 132.571 46.2592 133.398C42.5211 139.589 42.7798 146.371 42.7798 146.371L43.2391 174.557L43.1081 179.732L39.3096 195.63L46.985 195.969L64.1195 196.734Z" fill="#5A829C"/>
<path d="M61.7267 253.979C61.7267 253.979 70.0643 254.811 88.0308 245.576C95.6823 241.649 97.7704 240.084 99.8455 238.907C99.104 239.131 98.3477 239.383 97.62 239.608C91.0251 241.757 84.4131 244.001 77.5401 244.936C76.1073 245.123 74.6205 245.268 73.2214 244.861C69.4349 243.779 67.7406 239.346 67.4012 235.401C66.8257 228.983 68.3277 222.566 69.784 216.271C72.1811 205.853 74.4735 194.835 71.4364 184.568C69.0721 176.553 63.6872 169.823 60.0875 162.307C60.6962 163.574 60.2406 165.608 60.8156 167.054C61.6319 169.159 62.3923 171.275 63.0259 173.457C64.3024 177.959 65.2141 182.602 65.7093 187.272C65.939 189.523 66.0838 191.827 65.4022 193.993C65.1066 194.966 64.6473 195.865 64.134 196.72L64.4241 196.744L52.9109 243.81C52.8966 243.823 49.2991 255.767 61.7267 253.979Z" fill="#7297B1"/>
<path d="M48.4596 130.549C54.96 125.42 62.3205 121.496 70.4473 120.341C71.7413 120.162 73.116 120.056 74.2883 120.621C74.9828 120.977 75.4762 121.547 75.7021 122.247C75.5675 120.47 76.5945 117.499 80.4834 112.601L80.3893 108.36L67.7962 113.868C67.7971 113.84 54.4726 123.839 48.4596 130.549Z" fill="#7297B1"/>
<path d="M100.289 115.075C101.919 115.213 104.054 114.73 105.151 114.628C109.056 114.26 112.928 114.001 116.848 114.007C119.478 114.025 122.515 114.334 123.994 116.503C125.882 119.266 124.057 122.931 122.531 125.914C119.538 131.755 117.758 138.635 119.765 144.893C120.951 143.81 120.488 141.911 120.597 140.308C120.697 138.539 121.555 136.919 122.424 135.356C124.604 131.453 126.95 127.557 130.075 124.365C133.201 121.159 137.232 118.661 141.669 118.103C148.818 117.192 155.754 121.412 160.491 126.833C165.212 132.267 168.316 138.88 172.241 144.938C176.272 151.167 181.181 156.787 186.58 161.856L184.012 156.189C184.012 156.189 170.042 123.647 157.93 117.232C157.93 117.232 147.817 109.001 128.886 106.874C115.335 105.356 113.388 104.363 113.389 103.934L100.289 115.075Z" fill="#7297B1"/>
<path d="M134.155 150.719L137.521 156.108C136.63 154.167 135.4 152.436 134.155 150.719Z" fill="#3F687A"/>
<path d="M110.62 234.792C113.42 233.889 117.059 232.75 121.845 231.261C121.845 231.261 126.61 229.148 133.528 228.964C134.571 225.508 135.862 222.103 136.74 218.6C137.268 216.485 138.635 212.431 141.356 204.35C143.309 198.529 143.559 198.094 144.255 195.513C145.88 189.557 145.292 189.316 146.783 184.892C148.045 181.111 148.912 180.018 148.744 177.603C148.549 174.702 147.052 172.671 146.206 171.452C143.959 168.233 141.029 163.468 137.535 156.108C140.067 161.58 139.455 167.917 138.784 173.919C137.255 187.773 135.574 202.066 128.634 214.147C124.048 222.083 117.419 228.579 110.62 234.792Z" fill="#3F687A"/>
<path d="M154.713 235.321C158.963 238.302 163.183 242.583 167.081 248.627C167.081 248.627 169.833 252.486 172.04 246.535C173.639 242.184 175.069 213.839 175.722 198.82C175.458 198.853 175.15 198.94 174.812 199.108C173.545 199.731 172.45 202.229 171.692 203.381C170.598 205.034 169.558 206.717 168.561 208.401C166.387 212.11 164.418 215.936 162.681 219.839C161.258 223.046 159.972 226.313 158.101 229.27C156.858 231.237 155.353 233.181 154.713 235.321Z" fill="#3F687A"/>
<path d="M64.4095 196.757L63.3355 201.14C64.4358 200.124 64.8688 198.352 65.1289 196.781C65.5615 194.192 65.9954 191.561 65.8059 188.937C65.4033 183.564 62.4358 178.687 61.7409 173.359C61.4983 171.495 61.5334 169.613 61.1372 167.785C60.6323 165.483 59.6408 161.572 57.9521 159.881C57.33 162.34 58.0844 165.883 58.3998 168.469C58.6719 170.694 59.027 172.922 58.9938 175.165C58.9269 179.664 57.2718 184.027 54.7516 187.752C52.6248 190.894 49.9446 193.602 46.9983 195.983L64.1052 196.747L64.4095 196.757Z" fill="#3F687A"/>
<path d="M60.8275 197.026C59.2877 196.684 57.7096 196.659 56.1454 196.634C53.0165 196.599 49.8848 196.647 46.7651 196.751C45.7114 196.785 44.6572 196.833 43.6095 196.687C42.41 196.523 41.2327 196.11 40.1868 195.493C40.0646 195.42 39.9429 195.333 39.8778 195.206C39.7602 194.994 39.852 194.734 39.9429 194.502C40.6277 192.655 40.8338 190.626 40.511 188.676C46.0075 187.903 51.5514 189.446 57.0889 189.519C60.3281 189.572 63.653 189.129 66.7519 190.063C66.1487 189.877 64.5439 195.225 64.4148 195.774C63.8706 197.972 62.8072 197.466 60.8275 197.026Z" fill="#180930"/>
<path d="M144.324 192.995C153.453 196.263 165.572 193.371 176.087 189.525C176.101 189.526 176.115 189.512 176.115 189.512C176.802 189.272 177.515 189.06 178.242 188.863C178.94 188.692 179.665 188.564 180.389 188.436C180.473 188.425 180.542 188.413 180.626 188.402C180.974 188.345 181.335 188.315 181.697 188.272C182.1 188.23 182.475 188.187 182.878 188.159C186.628 187.827 191.971 187.936 198.96 189.318L195 180.558L179.394 180.065C179.394 180.065 169.14 182.729 161.81 186.556C154.481 190.37 146.693 186.329 146.693 186.329L144.324 192.995Z" fill="#180930"/>
<path d="M108.838 93.7686L109.496 101.463" stroke="#180930" stroke-width="1.9159" stroke-miterlimit="10" stroke-linecap="round" stroke-linejoin="round"/>
<path d="M79.8175 101.817L80.9759 114.847" stroke="#180930" stroke-width="1.85514" stroke-miterlimit="10" stroke-linecap="round" stroke-linejoin="round"/>
<path d="M109.741 101.582L113.674 103.68C108.858 107.73 104.216 111.938 99.346 115.944C94.6745 119.805 89.2495 123.834 82.7307 124.947C80.6412 125.306 77.4708 125.685 76.1039 123.895C75.1217 122.616 75.7069 120.848 76.2773 119.524C77.4021 116.944 78.8261 115.357 80.5098 113.045" stroke="#180930" stroke-width="1.85514" stroke-miterlimit="10" stroke-linecap="round" stroke-linejoin="round"/>
<path d="M99.1925 239.384C99.1925 239.384 99.3917 242.548 99.6947 247.171C99.7551 248.267 99.8399 249.461 99.9229 250.71C100.324 256.956 100.828 264.687 101.24 271.016C102.071 283.897 103.392 288.747 103.392 288.747C105.159 300.55 121.194 318.092 121.194 318.092L152.215 355.967C155.869 363.125 160.971 358.378 160.971 358.378L200.534 344.878C201.306 343.712 202.167 342.813 201.63 341.064C201.093 339.329 192.25 329.962 187.014 324.165C186.8 323.936 186.587 323.693 186.345 323.45C181.063 317.789 172.841 310.992 172.841 310.992C164.788 291.264 153.388 285.884 153.388 285.884L161.617 239.706C153.768 233.364 144.119 231.561 144.119 231.561C140.142 230.375 135.917 229.999 131.701 230.163C115.587 230.762 99.714 239.11 99.1925 239.384C99.1929 239.37 99.2068 239.371 99.1925 239.384Z" fill="#3D3D3D"/>
<path d="M39.5024 367.667L79.28 365.987C79.28 365.987 79.9801 366.177 80.9582 365.918C82.3269 365.576 84.2369 364.366 85.5001 360.544C87.6292 354.008 88.0913 339.731 88.0913 339.731C87.318 331.769 87.8963 328.132 87.8963 328.132C94.5175 322.702 102.414 284.42 102.414 284.42L102.085 279.742L99.1928 239.37C99.1928 239.37 96.2594 241.779 88.4955 245.758C86.4521 246.812 84.0869 247.966 81.3305 249.217C80.7818 249.476 80.2339 249.707 79.7004 249.925C67.3807 255.123 58.8365 253.841 58.8365 253.841L47.9873 303.007L34.7226 363.144C33.5144 368.644 39.5024 367.667 39.5024 367.667Z" fill="#3D3D3D"/>
<path d="M79.7138 249.939C80.6864 251.093 82.7302 251.688 84.0325 252.507C88.7394 255.475 92.6731 259.623 95.6613 264.293C98.6754 269.019 100.757 274.296 102.099 279.743L99.2067 239.371C99.2067 239.371 96.2733 241.78 88.5093 245.759C86.466 246.813 84.1007 247.966 81.3444 249.218C80.7952 249.491 80.2473 249.722 79.7138 249.939Z" fill="#180930"/>
<path d="M99.1924 239.384C99.1924 239.384 99.5014 244.242 99.9091 250.71C101.419 249.458 103.09 248.35 104.799 247.368C109.331 244.777 114.318 243.088 119.286 241.55C123.82 240.15 128.435 238.822 133.186 238.786C137.924 238.75 142.863 240.175 146.17 243.582C150.736 248.29 151.229 255.509 151.163 262.071C151.116 266.377 150.899 270.802 149.134 274.732C147.369 278.662 143.725 282.031 139.426 282.206C148.819 286.272 158.792 290.801 164.194 299.499C166.508 303.219 167.846 307.529 170.458 311.037C172.672 314.006 175.713 316.267 178.744 318.391C181.221 320.135 183.768 321.813 186.318 323.435C181.036 317.775 172.814 310.977 172.814 310.977C164.76 291.249 153.361 285.87 153.361 285.87L161.59 239.691C153.741 233.35 144.092 231.546 144.092 231.546C124.905 225.865 99.8408 239.046 99.1924 239.384C99.1929 239.37 99.2067 239.371 99.1924 239.384Z" fill="#303030"/>
<path d="M99.1921 239.384C99.1921 239.384 99.3913 242.548 99.6943 247.171C99.8354 247.092 99.9908 247 100.174 246.896C101.378 246.105 102.098 244.439 103.103 243.379C104.151 242.264 105.373 241.349 106.66 240.533C109.278 238.875 112.21 237.754 115.1 236.66C119.799 234.877 124.497 233.109 129.21 231.327C130.066 231.009 130.935 230.678 131.7 230.177C115.587 230.762 99.7136 239.111 99.1921 239.384C99.1925 239.37 99.2064 239.371 99.1921 239.384Z" fill="#180930"/>
<path d="M132.479 229.663C132.341 244.187 143.121 252.372 148.43 255.54C150.155 256.553 151.316 257.049 151.316 257.049L153.354 237.478L180.389 188.436C176.713 189.851 172.163 191.32 166.838 192.347C164.496 192.823 162.004 193.197 159.364 193.455C153.958 193.995 149.086 193.916 144.969 193.585L132.479 229.663Z" fill="#FEDBC8"/>
<path d="M45.732 196.163L52.7806 241.48L52.8724 242.051L53.4742 239.785L56.3366 229.119L65.2987 195.846L45.732 196.163Z" fill="#FEDBC8"/>
<path d="M45.732 196.163L52.7668 241.479C53.0075 240.905 53.2335 240.359 53.4604 239.784C54.2139 237.954 54.967 236.137 55.7343 234.306C56.0659 233.5 56.3975 232.694 56.5234 231.826C56.6506 230.916 56.5423 230.012 56.3228 229.118C56.1669 228.393 55.9414 227.679 55.7154 226.979C54.3057 222.32 53.3848 217.539 52.492 212.745C52.0779 210.626 51.6785 208.48 51.7085 206.334C51.7256 204.16 52.2282 201.961 53.4651 200.174C54.6576 198.468 56.4566 197.268 58.2255 196.136L57.8022 195.956L45.732 196.163Z" fill="#F0A89C"/>
<path d="M165.469 202.675C163.904 205.171 162.489 207.742 161.142 210.342C163.847 209.366 166.573 208.598 169.392 208.374L180.389 188.436C176.713 189.851 172.163 191.32 166.838 192.347C166.852 192.362 166.865 192.376 166.879 192.376C167.762 193.306 168.33 194.544 168.315 195.831C168.314 198.352 166.8 200.559 165.469 202.675Z" fill="#F0A89C"/>
<path d="M113.675 103.666L140.218 109.274C145.348 110.359 150.201 112.266 154.519 114.848C154.519 114.848 160.535 118.455 165.529 124.439C172.441 132.73 185.276 156.522 198.975 189.305C188.639 187.34 181.087 188.293 176.087 189.525C169.747 191.087 165.774 193.544 157.815 194.234C152.397 194.705 147.888 194.125 144.983 193.585C146.254 188.281 147.525 182.991 148.782 177.687C143.117 166.903 137.437 156.133 131.772 145.349" stroke="#180930" stroke-width="1.85514" stroke-miterlimit="10" stroke-linecap="round" stroke-linejoin="round"/>
<path d="M144.979 115.61C144.979 115.61 125.219 119.66 122.315 136.973" stroke="#180930" stroke-width="1.85514" stroke-miterlimit="10" stroke-linecap="round" stroke-linejoin="round"/>
<path d="M80.4039 108.333C80.4039 108.333 61.2306 115.546 49.4689 128.935C45.0492 133.967 42.7393 140.109 42.7942 146.357L43.1224 179.719L39.3239 195.616L64.4004 195.788" stroke="#180930" stroke-width="1.85514" stroke-miterlimit="10" stroke-linecap="round" stroke-linejoin="round"/>
<path d="M56.4657 147.145L66.094 189.861C61.5064 208.655 56.9055 227.434 52.3179 246.228C51.4357 249.841 53.9333 253.442 57.6341 253.773C58.9045 253.885 60.2728 253.972 61.7268 253.979C81.0979 254.126 88.3288 242.456 109.405 235.071C119.047 231.694 136.171 225.7 151.32 233.255C158.963 237.069 163.937 243.259 167.081 248.641C168.208 250.562 171.135 250.009 171.527 247.82C174.212 232.91 174.997 223.49 175.253 218.305C175.328 216.881 175.507 212.746 175.686 207.794C175.94 200.171 175.951 200.254 176 195.893" stroke="#180930" stroke-width="1.85514" stroke-miterlimit="10" stroke-linecap="round" stroke-linejoin="round"/>
<path d="M195.288 180.664C187.917 179.49 180.295 179.638 173.182 181.949C164.221 184.864 156.417 191.293 146.721 186.316" stroke="#180930" stroke-width="1.85514" stroke-miterlimit="10" stroke-linecap="round" stroke-linejoin="round"/>
<path d="M41.0934 188.238C41.0934 188.238 64.329 189.622 66.0943 189.847" stroke="#180930" stroke-width="1.85514" stroke-miterlimit="10" stroke-linecap="round" stroke-linejoin="round"/>
<path d="M148.444 255.54C148.771 255.717 149.07 255.894 149.341 256.055C150.565 256.733 151.33 257.049 151.33 257.049L153.354 237.477L169.393 208.373C166.574 208.598 163.848 209.352 161.142 210.342C160.298 211.962 159.482 213.583 158.666 215.218C157.256 218.051 155.831 220.899 154.598 223.821C150.346 233.818 148.251 244.703 148.444 255.54Z" fill="#F0A89C"/>
<path d="M132.479 229.663C132.341 244.187 143.121 252.372 148.43 255.54C148.238 244.703 150.332 233.818 154.585 223.821C155.832 220.885 157.242 218.051 158.652 215.218C159.469 213.583 160.284 211.962 161.128 210.342C156.291 212.092 151.501 214.522 146.345 215.901C143.234 216.573 139.807 217.581 136.557 217.86L132.479 229.663Z" fill="#FEDBC8"/>
<path d="M144.983 193.585L132.512 231.575C132.611 233.601 132.966 235.829 133.733 238.181C137.252 248.921 147.178 254.875 151.33 257.049C152.005 250.521 152.679 244.006 153.354 237.478C162.093 221.26 170.819 205.042 179.56 188.81" stroke="#180930" stroke-width="1.85514" stroke-miterlimit="10" stroke-linecap="round" stroke-linejoin="round"/>
<path d="M45.739 195.942L52.896 243.824" stroke="#180930" stroke-width="1.78399" stroke-miterlimit="10" stroke-linecap="round" stroke-linejoin="round"/>
<path d="M160.808 240.288L153.388 285.884" stroke="#180930" stroke-width="1.67533" stroke-miterlimit="10" stroke-linecap="round" stroke-linejoin="round"/>
<path d="M99.206 239.384L101.694 278.178C102.357 289.446 106.555 300.209 113.701 308.937L153.692 357.789C154.836 359.199 156.743 359.733 158.466 359.154L200.52 344.863C202.117 344.321 202.681 342.359 201.617 341.05C196.294 334.529 182.549 318.088 175.219 313.19C173.526 312.053 172.194 310.458 171.454 308.563C168.84 301.801 161.499 286.861 146.952 284.091" stroke="#180930" stroke-width="1.67865" stroke-miterlimit="10" stroke-linecap="round" stroke-linejoin="round"/>
<path d="M58.8493 253.869L34.5104 364.107C34.0534 366.183 35.6923 368.121 37.815 368.012L79.2795 366.001C81.9016 365.867 84.1354 364.085 84.8294 361.546C86.5813 355.109 89.3644 342.668 87.6061 333.51C87.1703 331.21 87.4152 328.85 88.468 326.766C90.9149 321.917 93.311 316.512 95.4747 310.601C99.0561 300.804 101.17 291.803 102.426 284.047" stroke="#180930" stroke-width="1.67865" stroke-miterlimit="10" stroke-linecap="round" stroke-linejoin="round"/>
<path d="M43.2807 367.751C43.3577 369.18 43.0353 368.879 42.7254 370.281C42.2666 372.412 41.2718 374.415 39.4572 376.086C35.7998 379.44 31.5964 378.816 20.8382 382.044C20.544 382.145 20.2226 382.231 19.9145 382.332C12.1054 384.758 8.03478 385.966 5.06772 388.97C0.251444 393.85 0.637396 400.553 1.81102 405.647C27.5465 405.577 81.4446 399.105 81.4446 399.105L78.2332 367.06" stroke="#180930" stroke-width="1.61428" stroke-miterlimit="10" stroke-linecap="round" stroke-linejoin="round"/>
<path d="M20.8383 382.044C21.5342 382.358 22.302 382.591 23.1274 382.757L41.7464 386.356C46.921 387.346 52.34 384.742 53.7816 380.552C54.9935 377.019 53.0211 373.45 49.2807 371.815C48.5844 371.515 47.8171 371.268 46.9911 371.116L42.725 370.295C42.2662 372.426 41.2715 374.429 39.4568 376.1C35.7999 379.44 31.5965 378.816 20.8383 382.044Z" stroke="#180930" stroke-width="1.61428" stroke-miterlimit="10" stroke-linecap="round" stroke-linejoin="round"/>
<path d="M80.4896 389.531C65.6023 391.985 29.0361 397.455 1.19363 397.164" stroke="#180930" stroke-width="1.61428" stroke-miterlimit="10" stroke-linecap="round" stroke-linejoin="round"/>
<path d="M78.7045 371.619L53.461 375.625" stroke="#180930" stroke-width="1.61428" stroke-miterlimit="10" stroke-linecap="round" stroke-linejoin="round"/>
<path d="M165.134 356.897C165.98 358.116 169.496 361.89 169.992 363.236C170.754 365.283 170.987 367.438 170.305 369.631C168.911 374.044 164.829 375.196 157.055 382.361C156.841 382.561 156.612 382.775 156.397 382.99C150.806 388.26 147.849 390.973 146.877 394.791C145.299 400.999 149.346 406.715 153.217 410.681C176.044 400.209 220.351 372.754 220.351 372.754L199.774 346.044" stroke="#180930" stroke-width="1.61428" stroke-miterlimit="10" stroke-linecap="round" stroke-linejoin="round"/>
<path d="M157.055 382.36C157.859 382.36 158.666 382.248 159.475 382.053L178.001 377.657C183.139 376.43 186.514 371.972 185.479 367.713C184.601 364.138 180.884 361.812 176.642 361.906C175.852 361.921 175.031 362.033 174.222 362.213L169.978 363.221C170.741 365.269 170.974 367.423 170.291 369.617C168.912 374.03 164.829 375.182 157.055 382.36Z" stroke="#180930" stroke-width="1.61428" stroke-miterlimit="10" stroke-linecap="round" stroke-linejoin="round"/>
<path d="M214.19 364.792C202.326 372.956 172.852 392.527 147.971 403.525" stroke="#180930" stroke-width="1.61428" stroke-miterlimit="10" stroke-linecap="round" stroke-linejoin="round"/>
<path d="M202.694 349.853L182.487 363.555" stroke="#180930" stroke-width="1.61428" stroke-miterlimit="10" stroke-linecap="round" stroke-linejoin="round"/>
<path d="M42.1436 48.2922C43.7309 51.3644 45.7452 53.2597 45.7452 53.2597C46.9396 50.2525 48.3973 47.6558 50.0367 45.4252C55.1739 38.3945 62.0073 34.9105 67.881 33.2089C74.5944 31.2444 80.0111 31.6188 80.0111 31.6188C89.2037 46.2738 103.697 48.5713 103.697 48.5713L103.839 40.1691C113.888 51.5563 118.608 51.6444 118.608 51.6444L118.096 56.6272L116.842 68.8841C117.683 71.5021 120.401 69.723 120.401 69.723L121.368 66.0711C122.139 64.5456 123.171 63.5136 124.274 62.8301C124.33 62.7905 124.401 62.7513 124.471 62.7259C127.452 60.9556 130.643 61.6298 131.207 61.7593C131.908 61.9074 133.02 62.2076 134.16 62.9104C134.594 63.1742 136.018 64.0942 137.054 65.8323C138.207 67.7958 138.229 69.6524 138.201 70.4825C140.818 68.0075 142.884 65.8466 144.408 64.1938C146.117 62.3533 146.98 61.4126 147.938 60.0872C148.823 58.8703 149.528 57.6611 150.12 56.5451L150.12 56.5313C150.831 55.1562 151.33 53.8986 151.712 52.8034C151.728 52.7346 151.758 52.6802 151.775 52.5977C157.505 35.6702 134.621 30.3923 134.621 30.3923C134.979 16.7482 118.457 10.4774 118.457 10.4774C105.499 4.50545 92.7431 3.24925 83.2332 3.51393C77.2447 3.6744 71.9267 4.49432 67.4471 5.50838C63.8298 6.41269 59.2635 7.95017 54.5044 10.7C51.4963 12.4418 51.227 13.0422 49.8029 14.2135C48.3503 15.4116 48.0907 15.306 46.4988 16.5271C46.2147 16.7392 45.386 17.5011 43.7291 19.0109C42.7865 19.8658 42.2428 20.3879 41.9647 21.2511C41.7802 21.799 41.777 22.3113 41.8075 22.6447C42.0127 22.7208 42.3138 22.8278 42.6869 22.8541C43.5861 22.8841 44.2797 22.4363 44.5624 22.2657C45.4247 21.7404 46.6878 21.6579 49.2011 21.4647C51.2007 21.3097 52.6994 21.2212 53.1463 21.9424C53.3044 22.1831 53.4797 22.743 53.2293 23.1917C53.1117 23.3955 52.9553 23.515 52.9129 23.5412C46.1529 27.734 42.7012 31.9817 41.1992 35.9065C39.3333 40.7749 40.5171 45.1494 42.1436 48.2922Z" fill="#7D4606"/>
<path d="M144.231 36.2389C149.098 39.8359 151.389 45.4523 149.939 51.5671C149.31 54.2331 148.227 56.8008 146.75 59.1614C146.355 59.7853 145.875 60.4618 145.105 60.7132C144.504 60.9008 143.734 60.709 143.503 60.1612C143.401 59.9085 143.41 59.6318 143.419 59.3689C143.46 58.5531 144.183 55.9873 143.231 55.4569C141.885 54.6919 141.35 57.4579 140.009 57.3855C139.552 57.3703 138.992 57.13 138.677 57.438C138.334 57.7728 138.689 58.3387 138.508 58.7759C138.372 59.1314 137.923 59.2827 137.532 59.3804C136.248 59.6839 133.986 60.2317 133.029 59.0364C132.829 58.7943 132.728 58.5001 132.543 58.2446C131.96 57.4496 130.745 57.3398 129.702 57.4436C128.661 57.5335 127.56 57.7322 126.633 57.2858C125.692 56.839 125.226 55.854 124.531 55.1106C123.983 54.5245 123.291 54.0859 122.699 53.5537C121.839 52.7772 120.819 50.9565 122.421 50.2759C122.857 50.0826 123.356 50.0716 123.841 50.0462C124.645 50.0176 125.05 49.9342 125.262 49.8166C126.01 49.3845 125.539 48.5516 126.297 47.829C126.955 47.2 127.638 47.4859 128.146 46.7827C128.509 46.2823 128.253 46.066 128.542 45.7294C129.405 44.7471 131.174 46.1218 131.926 44.7619C132.191 44.286 132.154 43.7169 131.963 43.2258C131.823 42.861 131.599 42.5212 131.487 42.1435C131.375 41.7658 131.389 41.3231 131.676 41.0279C131.891 40.8135 132.199 40.7268 132.453 40.5829C133.47 39.9936 132.139 38.772 133.019 38.1504C133.245 37.9917 133.55 37.988 133.816 37.9C135.791 37.2318 133.836 34.3966 135.368 33.312C136.843 32.2808 139.28 33.5532 140.658 34.167C141.968 34.7508 143.164 35.4416 144.231 36.2389Z" fill="#874A0E"/>
<path d="M103.181 6.31159C105.617 6.75292 108.007 7.34505 110.336 8.12901C111.445 8.51223 118.678 11.7449 116.741 13.3285C116.399 13.608 115.913 13.6472 115.456 13.6734C114.193 13.7422 112.945 13.7837 111.684 13.797C111.717 14.8784 110.483 15.7514 109.322 15.6988C108.617 15.6615 107.808 15.4129 107.295 15.8528C106.98 16.1332 106.924 16.5745 106.718 16.9416C105.983 18.2052 104.676 18.3832 104.277 19.9488C104.007 20.9924 103.967 23.0131 103.055 23.786C101.93 24.718 100.192 24.5077 99.4254 25.8949C98.8508 26.9283 99.3903 28.1928 99.1865 29.3217C98.9808 30.5059 98.4966 31.7363 97.905 32.8661C97.1076 34.3492 97.3765 35.0091 97.8505 36.5761C98.2365 37.877 98.6506 39.165 98.7719 40.5125C98.9854 42.8325 95.4553 42.3686 93.9644 41.8064C91.803 41.0003 90.1147 39.2959 88.7022 37.6284C86.0368 34.4926 83.7905 30.8305 79.0729 30.2578C75.3482 29.8151 71.4796 30.7802 67.8784 31.6158C62.4069 32.8877 57.5652 35.2054 52.7135 37.8275C52.2057 38.1015 51.5592 38.3846 51.0423 38.1042C50.6069 37.8681 50.5004 37.3244 50.4612 36.8384C50.3533 35.5052 50.4386 34.1923 50.5244 32.8655C50.7813 28.8992 56.3137 25.3857 59.4481 23.1772C60.6398 22.3305 62.9243 20.2738 60.8759 18.9867C60.5097 18.7529 60.0698 18.6552 59.6889 18.4486C58.8182 17.9763 58.3811 16.9646 58.495 16.0404C58.6232 15.1029 59.2466 14.265 60.068 13.7245C61.059 13.0789 62.3009 12.8018 63.1983 12.0561C65.5488 10.0985 66.0809 7.84485 69.2744 6.77406C72.6076 5.66638 76.1553 5.1891 79.6651 5.01525C84.3264 4.78284 89.1316 4.80452 93.7597 5.1527C96.9509 5.39758 100.097 5.73792 103.181 6.31159Z" fill="#8E4C28"/>
<path d="M116.829 68.8698C117.669 71.4878 120.388 69.7087 120.388 69.7087L121.354 66.0568C122.126 64.5313 123.157 63.4993 124.26 62.8158C124.317 62.7762 124.387 62.737 124.458 62.7116C127.439 60.9413 130.63 61.6155 131.193 61.745C131.895 61.8931 133.006 62.1933 134.146 62.8961C134.581 63.1599 136.004 64.0799 137.041 65.818C138.194 67.7815 138.215 69.6381 138.187 70.4682C140.804 67.9932 142.871 65.8323 144.394 64.1795C146.104 62.339 146.966 61.3983 147.924 60.0729C148.81 58.856 149.515 57.6468 150.106 56.5308L150.106 56.517C150.817 55.1419 151.316 53.8843 151.699 52.7891C150.568 53.4716 149.411 54.0978 148.177 54.5691C144.654 55.9613 140.809 56.2348 137.033 56.4967C134.659 56.6669 132.285 56.8232 129.911 56.9933C125.969 57.2636 121.902 57.5158 118.096 56.6133L116.829 68.8698Z" fill="#180930"/>
<path d="M42.1437 48.2921C43.7309 51.3643 45.7453 53.2597 45.7453 53.2597C46.9396 50.2525 48.3974 47.6557 50.0368 45.4252C49.571 45.2711 49.12 45.0899 48.6694 44.8948C45.9237 43.7507 43.2403 41.9854 41.9592 39.2835C41.6493 38.6084 41.4718 37.2867 41.2274 35.8936C39.3334 40.7749 40.5172 45.1494 42.1437 48.2921Z" fill="#180930"/>
<path d="M134.607 30.3779C134.607 30.3779 128.043 41.1421 118.595 51.6162" stroke="#180930" stroke-width="1.82759" stroke-miterlimit="10" stroke-linecap="round" stroke-linejoin="round"/>
<path d="M45.745 53.2595C45.745 53.2595 30.0308 38.9689 52.8255 24.0783C54.0573 23.2745 53.5353 21.4843 52.0416 21.4207C49.3996 21.3188 45.9848 21.5512 43.0298 22.9485C42.1291 23.3755 41.2345 22.3762 41.8142 21.6061C47.8105 13.7315 63.8241 -0.484907 99.2299 4.33789C99.2299 4.33789 134.931 10.2785 134.593 30.3774C134.593 30.3774 172.818 39.1306 138.16 70.4533" stroke="#180930" stroke-width="1.82759" stroke-miterlimit="10" stroke-linecap="round" stroke-linejoin="round"/>
<path d="M138.075 72.1818C137.338 77.6557 132.778 81.0908 126.991 81.0087C125.413 80.9976 124.192 80.6384 123.918 80.56C123.643 80.4816 123.37 80.3894 123.124 80.2842C123.151 80.3128 123.178 80.3276 123.204 80.3562C122.874 81.1208 122.354 82.1976 121.633 83.4616C119.989 86.246 117.469 89.5414 113.241 92.9876C104.043 100.506 93.7036 101.56 88.7306 102.004C76.131 103.135 63.441 99.4989 53.6148 92.2187C50.3844 89.8258 48.0704 86.951 46.5145 83.769C43.6876 77.9963 43.4142 71.2423 44.8521 64.6699C44.9512 64.1885 45.031 63.8726 45.048 63.7762C45.6162 61.69 45.8099 60.0344 45.7573 57.8721C45.7144 55.8347 45.6918 55.2661 45.7315 53.2454C45.7315 53.2454 52.2181 31.9111 79.9698 31.6036L80.0666 31.6068C80.0666 31.6068 80.186 31.7631 80.3839 32.0606C82.2105 34.6006 91.6438 47.0199 103.656 48.556L103.797 40.1538C103.797 40.1538 113.617 51.3811 118.567 51.6153L116.805 67.9272L116.763 68.3413C116.681 69.1419 117.252 69.8811 118.105 70.048L118.917 70.2136C119.068 70.2463 119.22 70.2514 119.359 70.2283C119.971 70.1656 120.498 69.74 120.628 69.1488L121.411 65.6016C121.761 65.0731 123.638 62.3657 127.277 61.6422C130.985 60.9209 134.431 62.6701 136.28 64.9339C137.398 66.3008 137.976 68.079 138.097 69.8558C138.195 70.6485 138.169 71.4371 138.075 72.1818ZM84.0767 84.9796C84.0767 84.9796 78.4894 85.5689 74.6964 83.4343L74.6825 83.4338C73.5638 83.3411 72.2214 82.8947 70.7508 81.7238C70.7508 81.7238 71.1769 83.0676 72.2666 84.4474C70.9726 84.6259 69.222 84.3736 67.2114 82.7831C67.2114 82.7831 69.9373 91.5856 79.8857 87.3052C81.1645 86.7523 82.5609 85.9955 84.0767 84.9796Z" fill="#FEDBC8"/>
<path d="M84.0767 84.9793C82.5609 85.9952 81.164 86.7658 79.8857 87.3049C69.9373 91.5853 67.2114 82.7828 67.2114 82.7828C69.222 84.3733 70.9726 84.6256 72.2666 84.4471C71.163 83.0669 70.7508 81.7236 70.7508 81.7236C72.2214 82.8944 73.55 83.3404 74.6825 83.4335L74.6964 83.434C78.4894 85.5687 84.0767 84.9793 84.0767 84.9793Z" fill="#FEDBC8"/>
<path d="M80.398 32.0612C74.2218 31.6199 63.0366 33.9477 50.899 51.548C49.9241 52.9559 49.2481 54.54 48.9022 56.1904C48.3271 58.8997 47.7516 61.6228 47.1766 64.3321C46.5143 66.3321 45.8932 68.7628 45.592 71.5643C45.0502 76.6015 45.7405 80.821 46.5009 83.7687C43.6741 77.996 43.4006 71.242 44.8385 64.6696C44.9377 64.1882 45.0175 63.8723 45.0345 63.7759C45.6027 61.6897 45.7963 60.0341 45.7438 57.8718C45.7009 55.8344 45.6783 55.2658 45.7179 53.2451C46.6919 50.6183 49.8185 43.2436 58.1317 37.7453C67.7048 31.4303 77.6624 31.8592 80.398 32.0612Z" fill="#F0A89C"/>
<path d="M118.595 51.6162L116.833 67.928C115.341 66.5487 115.225 60.4924 115.276 57.2948C115.285 56.2009 114.583 55.2219 113.505 54.7566C110.706 53.5415 108.359 50.8317 107.084 49.1688C106.78 48.757 106.08 48.9553 106.077 49.4677L106.074 49.98C106.051 51.0734 105.025 51.9394 103.867 51.79C89.7008 50.0574 82.4207 37.0313 79.984 31.604L80.0808 31.6072C80.0808 31.6072 80.2002 31.7635 80.3981 32.061C82.2247 34.601 91.658 47.0203 103.67 48.5564L103.812 40.1542C103.825 40.1547 113.645 51.3819 118.595 51.6162Z" fill="#F0A89C"/>
<path d="M138.125 69.8705C129.256 56.7082 120.156 74.1882 120.156 74.1882L119.387 70.243C119.998 70.1803 120.525 69.7547 120.656 69.1635L121.439 65.6163C121.789 65.0878 123.666 62.3804 127.305 61.6569C131.013 60.9356 134.458 62.6848 136.308 64.9486C137.426 66.3154 138.004 68.0936 138.125 69.8705Z" fill="#F0A89C"/>
<path d="M53.3476 75.5781C49.4978 75.4192 46.4722 72.9807 46.5897 70.1315C46.7073 67.2823 49.9235 65.1014 53.7734 65.2602C57.6232 65.4191 60.6488 67.8576 60.5313 70.7068C60.4137 73.556 57.1975 75.7369 53.3476 75.5781Z" fill="#FF94AD"/>
<path d="M99.4608 81.6442C95.6109 81.4854 92.5853 79.0469 92.7029 76.1977C92.8204 73.3485 96.0367 71.1675 99.8865 71.3264C103.736 71.4852 106.762 73.9237 106.644 76.7729C106.527 79.6221 103.311 81.8031 99.4608 81.6442Z" fill="#FF94AD"/>
<path d="M84.0767 84.9796C82.5609 85.9956 81.164 86.7661 79.8857 87.3052C69.9373 91.5856 67.2114 82.7831 67.2114 82.7831C69.2221 84.3737 70.9726 84.6259 72.2666 84.4475C73.7833 84.2349 74.6687 83.4334 74.6687 83.4334L74.6826 83.4338C78.4894 85.569 84.0767 84.9796 84.0767 84.9796Z" fill="#F0A89C"/>
<path d="M45.7453 53.2598C45.7052 55.2944 45.714 55.8625 45.7712 57.8865C45.8237 60.0489 45.6157 61.7178 45.0619 63.7906C45.0448 63.887 44.965 64.2029 44.8659 64.6844C42.6427 74.873 44.5329 85.4758 53.6287 92.2331C63.4549 99.5133 76.1453 103.136 88.7444 102.018C93.7175 101.575 104.043 100.52 113.241 93.0015C119.163 88.1714 121.766 83.6462 123.204 80.3701" stroke="#180930" stroke-width="1.82759" stroke-miterlimit="10" stroke-linecap="round" stroke-linejoin="round"/>
<path d="M45.7451 53.2599C45.7451 53.2599 52.2474 31.8707 80.0806 31.6075C80.0806 31.6075 90.279 46.8361 103.684 48.5571L103.825 40.155C103.825 40.155 113.658 51.3826 118.595 51.6165L116.791 68.3424C116.708 69.1568 117.28 69.8822 118.133 70.0492L118.945 70.2147C119.729 70.3655 120.493 69.8924 120.655 69.1637L121.439 65.6166C121.789 65.0881 123.665 62.3807 127.304 61.6571C130.999 60.9354 134.444 62.6846 136.308 64.9488C137.918 66.9138 138.406 69.7416 138.075 72.1682C137.339 77.6421 132.778 81.091 126.992 80.9951C125.4 80.9697 124.193 80.6248 123.919 80.5464C122.437 80.1092 121.352 79.4359 120.69 78.9429" stroke="#180930" stroke-width="1.82759" stroke-miterlimit="10" stroke-linecap="round" stroke-linejoin="round"/>
<path d="M124.168 73.9068C124.168 73.9068 125.373 67.6591 133.042 69.8537" stroke="#180930" stroke-width="1.79202" stroke-miterlimit="10" stroke-linecap="round" stroke-linejoin="round"/>
<path d="M92.4492 68.9492C90.785 67.3824 90.7782 64.6865 92.4341 62.9276C94.09 61.1688 96.7814 61.0131 98.4456 62.5798C100.11 64.1466 100.117 66.8426 98.4608 68.6014C96.8049 70.3603 94.1135 70.516 92.4492 68.9492Z" fill="#180930"/>
<path d="M90.6677 60.9341C90.6677 60.9341 96.9274 57.2094 101.976 62.3914" stroke="#180930" stroke-width="1.79202" stroke-miterlimit="10" stroke-linecap="round" stroke-linejoin="round"/>
<path d="M56.094 64.3195C54.4298 62.7528 54.423 60.0568 56.0789 58.298C57.7347 56.5391 60.4262 56.3834 62.0904 57.9502C63.7546 59.517 63.7614 62.2129 62.1056 63.9718C60.4497 65.7306 57.7582 65.8863 56.094 64.3195Z" fill="#180930"/>
<path d="M53.9819 56.2906C53.9819 56.2906 60.2416 52.5658 65.2903 57.7478" stroke="#180930" stroke-width="1.79202" stroke-miterlimit="10" stroke-linecap="round" stroke-linejoin="round"/>
<path d="M79.2296 56.7305C77.9195 60.3016 76.6232 63.8732 75.313 67.4444C74.9787 67.087 73.9729 66.0978 72.3206 65.8073C71.99 65.7547 71.04 65.5846 70.0877 65.8991C68.0153 66.5779 66.7047 69.3319 67.1991 71.5366C67.7681 73.9932 70.654 75.9176 74.1385 75.6737" stroke="#180930" stroke-width="1.79202" stroke-miterlimit="10" stroke-linecap="round" stroke-linejoin="round"/>
<path d="M68.8279 48.4336C68.8279 48.4336 63.7967 40.6485 55.1474 47.9222" stroke="#180930" stroke-width="1.79202" stroke-miterlimit="10" stroke-linecap="round" stroke-linejoin="round"/>
<path d="M91.3684 50.7225C91.3684 50.7225 98.8253 44.7386 104.552 54.0981" stroke="#180930" stroke-width="1.79202" stroke-miterlimit="10" stroke-linecap="round" stroke-linejoin="round"/>
<path d="M88.9846 82.7611C88.9846 82.7611 83.5273 86.9281 75.3912 83.7899C74.9946 83.6382 74.5372 83.6507 74.1701 83.86C72.9278 84.5665 69.5106 85.6991 64.9005 80.6564" stroke="#180930" stroke-width="1.79202" stroke-miterlimit="10" stroke-linecap="round" stroke-linejoin="round"/>
<path d="M67.2263 82.7697C67.2263 82.7697 71.473 94.1435 84.5882 84.6088" stroke="#180930" stroke-width="1.79202" stroke-miterlimit="10" stroke-linecap="round" stroke-linejoin="round"/>
<path d="M87.7746 81.2525C87.7746 81.2525 91.8733 81.2783 89.978 85.3701" stroke="#180930" stroke-width="1.79202" stroke-miterlimit="10" stroke-linecap="round" stroke-linejoin="round"/>
</g>
<defs>
<clipPath id="clip0_143_4447">
<rect width="219.898" height="406.602" fill="white" transform="matrix(-0.999445 -0.0333168 -0.0333168 0.999445 233.322 7.32617)"/>
</clipPath>
</defs>
</svg>
